<svg width="45" height="45" viewBox="0 0 45 45" fill="none" xmlns="http://www.w3.org/2000/svg">
<circle cx="22.5" cy="22.5" r="21.5" fill="#F04438" stroke="url(#paint0_linear_194_79)" stroke-width="2"/>
<path fill-rule="evenodd" clip-rule="evenodd" d="M33.7737 13.2837C33.9088 13.1488 34.016 12.9886 34.0892 12.8122C34.1624 12.6358 34.2001 12.4468 34.2002 12.2558C34.2003 12.0649 34.1628 11.8758 34.0899 11.6993C34.0169 11.5229 33.9099 11.3625 33.775 11.2274C33.64 11.0923 33.4798 10.9851 33.3034 10.9119C33.1271 10.8387 32.938 10.801 32.7471 10.8009C32.5561 10.8008 32.367 10.8383 32.1906 10.9112C32.0141 10.9842 31.8538 11.0912 31.7187 11.2261L22.95 19.9949L14.1839 11.2261C13.911 10.9533 13.541 10.8 13.1551 10.8C12.7692 10.8 12.3992 10.9533 12.1263 11.2261C11.8535 11.499 11.7002 11.8691 11.7002 12.2549C11.7002 12.6408 11.8535 13.0109 12.1263 13.2837L20.895 22.05L12.1263 30.8163C11.9912 30.9514 11.8841 31.1117 11.8109 31.2883C11.7378 31.4648 11.7002 31.654 11.7002 31.845C11.7002 32.0361 11.7378 32.2253 11.8109 32.4018C11.8841 32.5783 11.9912 32.7387 12.1263 32.8738C12.3992 33.1467 12.7692 33.3 13.1551 33.3C13.3462 33.3 13.5354 33.2624 13.7119 33.1892C13.8884 33.1161 14.0488 33.0089 14.1839 32.8738L22.95 24.1051L31.7187 32.8738C31.9915 33.1464 32.3614 33.2993 32.7471 33.2991C33.1327 33.2989 33.5024 33.1454 33.775 32.8726C34.0475 32.5997 34.2004 32.2298 34.2002 31.8442C34.2 31.4585 34.0465 31.0888 33.7737 30.8163L25.005 22.05L33.7737 13.2837Z" fill="black"/>
<defs>
<linearGradient id="paint0_linear_194_79" x1="-17.1" y1="-46.35" x2="32.85" y2="45" gradientUnits="userSpaceOnUse">
<stop stop-color="white"/>
<stop offset="1" stop-color="white" stop-opacity="0"/>
</linearGradient>
</defs>
</svg>
