<svg width="647" height="540" viewBox="0 0 647 540" fill="none" xmlns="http://www.w3.org/2000/svg">
<path d="M466 14H233.5V58.5V75.5V137C232.819 166.195 237.763 190.97 246.63 211.326C249.781 218.56 253.428 225.236 257.493 231.354C271.988 253.164 291.81 267.881 313.5 275.507C336.94 283.747 362.561 283.704 386 275.38C407.598 267.709 427.343 253.005 441.819 231.269C445.886 225.161 449.537 218.499 452.697 211.282C459.107 196.639 463.494 179.712 465.224 160.5C426 294.5 277 251 277 137V17H466V14Z" fill="#F7AE11"/>
<path d="M176 265.5L76.5 191L63.5 200.5L176 265.5Z" fill="#F59F25"/>
<path d="M176 279L80.5 253.5L70 265.5L176 279Z" fill="#F59F25"/>
<path d="M173 289H127L121 296.5L173 289Z" fill="#F59F25"/>
<path d="M290.5 479C287.012 479 283.905 478.62 283.166 482.5L320.5 521.5H349L308 479H290.5Z" fill="#FDC802"/>
<path d="M308 479L349 521.5H381L339.5 479H308Z" fill="#F8B20E"/>
<path d="M283 516C283 520.5 284 521.5 289 521.5H320.5L283.166 482.5C283.057 483.07 283 485.232 283 486V516Z" fill="#F8B20E"/>
<path d="M339.5 479L381 521.5H385L342 479H339.5Z" fill="#FDC802"/>
<path d="M342 479L385 521.5H394C392.712 519.167 385.1 506.2 355.5 479H342Z" fill="#F8B20E"/>
<path d="M394 521.5H411C413.16 521.49 414.686 520.373 415.5 519.5L370 479H355.5C385.1 506.2 392.712 519.167 394 521.5Z" fill="#FDC802"/>
<path d="M416.5 514.5V484C416.5 480.5 415.5 479 411 479H370L415.5 519.5C417.123 517.759 416.5 515.499 416.5 514.5Z" fill="#F8B20E"/>
<path d="M377 435.5C376.859 435.493 388.14 431.008 388 431C355.632 432.072 347.641 420.888 354.874 364C354.219 361.315 337.46 364.25 337.676 362C337.084 361.89 336.527 361.77 336 361.641L335.941 362.118C334.779 371.581 333.709 380.296 332.581 388.366C331.943 392.927 331.286 397.282 330.584 401.449C327.783 418.068 324.254 431.697 318.278 443.5C316.836 446.348 315.251 449.09 313.5 451.742C326 458 361.217 458.294 391.865 458C381.757 446.743 382.541 444.779 378.5 435C378.008 435.046 377.508 435.481 377 435.5Z" fill="#F49C1A"/>
<path d="M305 462.5H396C394.447 460.84 393.078 459.35 391.865 458C361.217 458.294 326 458 313.5 451.742C311.023 455.493 308.212 459.064 305 462.5Z" fill="#EDA03A"/>
<path fill-rule="evenodd" clip-rule="evenodd" d="M305 462.5H266.5C261 462.5 259.5 464.5 259.5 469.5V532C259.5 537 261 539 266.5 539H434.5C440 539 440.5 535 440.5 531V469.5C440.5 464 438.5 462.5 432 462.5H396H305ZM416.5 484V514.5C416.5 515.499 417.123 517.759 415.5 519.5C414.686 520.373 413.16 521.49 411 521.5H394H385H381H349H320.5H289C284 521.5 283 520.5 283 516V486C283 485.232 283.057 483.07 283.166 482.5C283.905 478.62 287.012 479 290.5 479H308H339.5H342H355.5H370H411C415.5 479 416.5 480.5 416.5 484Z" fill="#F49C1A"/>
<path fill-rule="evenodd" clip-rule="evenodd" d="M233.5 14H466C475.5 13.5 474.5 1 466 1H233.5C225.5 1 225 13.5 233.5 14Z" fill="#FDC802"/>
<path d="M552.5 160.5C581.196 105.5 527.5 42 466 58.5V75.5C504.269 65.4212 530.185 87 539.5 108C566.897 169.769 471.361 191.835 452.697 211.282C449.537 218.499 445.886 225.161 441.819 231.269C438.616 252.115 452.109 265.5 477.5 265.5C496 265.5 493 245.5 477.5 248.5C452.877 253.266 453.5 228.058 471.5 218.5C506.939 199.681 540.5 183.5 552.5 160.5Z" fill="#F49C1A"/>
<path d="M518 265.5L569.5 231L582 235.5L518 265.5Z" fill="#F59F25"/>
<path d="M520.5 276L637 254L645 268L520.5 276Z" fill="#F59F25"/>
<path d="M518 290L615 308.093L618.5 321.326L518 290Z" fill="#F59F25"/>
<path d="M340.5 399C339.086 393.166 346.531 386.006 349.5 383.722C350.348 383.07 351.225 382.626 352.5 382.5C349.025 377.939 356.097 369.012 354.874 364C347.641 420.888 355.632 432.072 388 431C369.967 429.957 346.918 424.627 343.353 416.5C341.175 411.536 342.006 407.198 346.223 405.868C346.47 405.79 346.729 405.722 347 405.665C343.506 404.011 341.188 401.838 340.5 399Z" fill="#EB9016"/>
<path d="M352.5 382.5C351.225 382.626 350.348 383.07 349.5 383.722C350.861 383.354 345.102 385.175 346.223 385.201C346.171 385.137 346.12 385.073 346.069 385.008C345.937 384.84 356.324 381.5 352.5 382.5Z" fill="#D9D9D9"/>
<path d="M337.676 323.173C342.598 325.922 346.844 328.091 350.5 329.874C354.942 326.217 358.915 323.43 362.5 321.357V307.514C354.596 309.961 345.765 310.014 337.801 307.667V308L337.676 323.173Z" fill="#F6A727"/>
<path d="M313.5 276C313.5 293.512 324.429 303.727 337.801 307.667C345.765 310.014 354.596 309.961 362.5 307.514C375.673 303.437 386.273 293.333 386 276V275.38C362.561 283.704 336.94 283.747 313.5 275.507V276Z" fill="#F49C1A"/>
<path d="M257.493 231.354C253.428 225.236 249.781 218.56 246.63 211.326C243.384 208.315 238.84 205.301 233.5 202.179C234.369 203.511 235.23 204.824 236.079 206.12L236.088 206.135C252.328 230.923 264.207 249.057 246.63 259.666C255.593 254.256 261.215 244.972 257.493 231.354Z" fill="#EB9016"/>
<path fill-rule="evenodd" clip-rule="evenodd" d="M214 55.6539C166.837 56.5902 119.536 110.471 148.5 160.5C163.553 186.5 215 211.5 229.5 218.5C249.5 228.155 244 253.5 224 248.5C206.5 244.125 203 265.5 224 265.5C231.767 265.5 240.088 263.615 246.63 259.666C264.207 249.057 252.328 230.923 236.088 206.135L236.079 206.12C235.23 204.824 234.369 203.511 233.5 202.179C229.015 199.555 223.969 196.855 218.66 194.015C185.286 176.157 141.531 152.745 161.5 108C172.349 83.6911 193.822 73.3686 214 72.8478C223.077 71.1031 222.751 55.8856 214 55.6539Z" fill="#F49C1A"/>
<path d="M233.5 75.5V58.5C227.14 56.4209 220.572 55.5235 214 55.6539C222.751 55.8856 223.077 71.1031 214 72.8478C220.799 72.6723 227.451 73.6097 233.5 75.5Z" fill="#EB9016"/>
<path fill-rule="evenodd" clip-rule="evenodd" d="M228.179 2.29997C229.41 0.90259 231.216 0 233.5 0H466C470.853 0 473.606 3.61778 473.749 7.27331C473.821 9.09834 473.249 10.9686 471.949 12.4239C470.803 13.7069 469.143 14.611 467 14.9088V57.2071C528.728 41.6988 582.329 105.489 553.387 160.963C547.264 172.698 535.692 182.609 521.333 191.907C509.351 199.666 495.324 207.06 480.736 214.751C477.832 216.281 474.906 217.824 471.969 219.383C463.249 224.014 458.887 232.358 459.512 238.775C459.821 241.947 461.336 244.645 464.152 246.306C466.994 247.983 471.3 248.681 477.31 247.518C485.525 245.928 490.814 250.46 491.247 255.794C491.46 258.424 490.458 261.138 488.145 263.173C485.839 265.202 482.3 266.5 477.5 266.5C464.647 266.5 454.637 263.113 448.241 256.92C442.627 251.484 439.913 243.998 440.412 235.071C426.204 254.996 407.448 268.672 387.001 276.083C387.12 284.925 384.471 291.985 380.066 297.362C375.809 302.558 369.955 306.129 363.5 308.245V321.934L363.001 322.223C359.474 324.263 355.546 327.016 351.135 330.646L350.639 331.054L350.062 330.772C346.392 328.983 342.129 326.806 337.188 324.046L336.671 323.757L336.797 308.407C330.244 306.354 324.264 302.79 319.871 297.567C315.343 292.184 312.545 285.092 312.501 276.213C292.216 268.934 273.595 255.49 259.426 235.895C260.051 240.859 259.386 245.223 257.734 248.99C255.573 253.918 251.763 257.736 247.147 260.522C240.418 264.584 231.91 266.5 224 266.5C218.589 266.5 214.623 265.123 212.044 263.001C209.456 260.87 208.316 258.02 208.567 255.269C208.817 252.524 210.442 249.98 213.173 248.44C215.903 246.899 219.676 246.388 224.243 247.53C229.035 248.728 232.845 248.085 235.592 246.424C238.343 244.76 240.131 242.014 240.769 238.801C242.044 232.386 238.709 224.056 229.065 219.401C221.811 215.899 205.282 207.879 188.676 197.472C172.117 187.095 155.296 174.235 147.635 161.001C132.923 135.589 137.602 109.189 151.887 89.0879C166.148 69.0207 190.045 55.1293 213.98 54.6541C220.207 54.5305 226.438 55.3152 232.5 57.1382V14.8947C230.568 14.5785 229.062 13.6616 228.017 12.3937C226.823 10.9443 226.277 9.09382 226.313 7.2929C226.348 5.49313 226.965 3.67887 228.179 2.29997ZM234.5 15V137.012L234.5 137.023C233.824 166 238.714 190.566 247.464 210.737C247.477 210.749 247.489 210.761 247.501 210.772L247.486 210.788C247.506 210.834 247.527 210.881 247.547 210.927C250.666 218.087 254.272 224.693 258.29 230.746L258.357 230.727C258.377 230.796 258.396 230.865 258.415 230.933C272.78 252.488 292.389 267.025 313.832 274.563C337.055 282.727 362.442 282.686 385.665 274.437C407.001 266.86 426.52 252.352 440.865 230.897C440.868 230.878 440.871 230.86 440.873 230.842L440.899 230.846C440.928 230.802 440.957 230.758 440.986 230.714C445.021 224.657 448.644 218.046 451.781 210.881C451.785 210.871 451.789 210.861 451.794 210.851L451.759 210.819C451.789 210.786 451.82 210.753 451.851 210.72C457.037 198.832 460.887 185.419 463.05 170.477C452.967 198.854 437.583 218.387 419.821 230.223C400.103 243.363 377.529 246.967 356.208 242.731C313.576 234.261 276 194.465 276 137V16H465V15H234.5ZM465.973 13C468.104 12.8823 469.552 12.1059 470.457 11.0917C471.376 10.0627 471.804 8.71416 471.751 7.35169C471.644 4.63222 469.647 2 466 2H233.5C231.784 2 230.527 2.65991 229.68 3.6219C228.816 4.60238 228.34 5.94437 228.312 7.3321C228.285 8.71868 228.708 10.087 229.561 11.1219C230.395 12.1341 231.685 12.8846 233.53 13H465.973ZM465 18H278V137C278 193.535 314.924 232.489 356.598 240.769C377.431 244.908 399.461 241.387 418.712 228.558C437.946 215.741 454.48 193.582 464.237 160.313C464.902 152.894 465.168 145.13 465 137.021L465 137.01V18ZM453.541 211.848C450.407 218.981 446.794 225.578 442.774 231.637C441.281 241.706 443.804 249.84 449.632 255.483C455.53 261.194 464.962 264.5 477.5 264.5C481.95 264.5 484.974 263.298 486.824 261.671C488.667 260.05 489.415 257.951 489.253 255.956C488.936 252.04 484.975 248.072 477.69 249.482C471.389 250.701 466.538 250.036 463.135 248.028C459.705 246.005 457.884 242.697 457.521 238.968C456.802 231.584 461.751 222.545 471.031 217.617C473.982 216.05 476.918 214.502 479.827 212.968C494.417 205.277 508.346 197.934 520.246 190.229C534.527 180.981 545.736 171.302 551.613 160.037C579.751 106.108 527.433 43.6784 467 59.2709V74.2126C505.139 64.7813 531.04 86.4597 540.414 107.595C547.375 123.287 546.552 136.558 541.019 147.9C535.512 159.187 525.39 168.463 513.938 176.336C503.143 183.757 491.071 189.992 480.398 195.506C479.741 195.845 479.091 196.181 478.446 196.514C472.866 199.4 467.736 202.086 463.42 204.653C459.171 207.182 455.779 209.557 453.541 211.848ZM467 76.2744C504.302 66.8154 529.494 87.9075 538.586 108.405C545.324 123.597 544.478 136.248 539.221 147.023C533.937 157.854 524.145 166.892 512.805 174.688C502.117 182.035 490.149 188.217 479.454 193.742C478.807 194.077 478.164 194.408 477.527 194.738C471.954 197.621 466.772 200.332 462.398 202.935C459.721 204.527 457.321 206.094 455.304 207.652C460.841 193.854 464.637 178.165 466.22 160.59C466.898 153.068 467.17 145.201 467 136.99V76.2744ZM256.571 231.772C252.544 225.696 248.929 219.078 245.798 211.919C243.427 209.747 240.346 207.555 236.736 205.299C236.796 205.39 236.856 205.481 236.915 205.572L237.009 205.715C245.061 218.006 252.15 228.828 254.995 237.919C256.027 241.22 256.521 244.351 256.274 247.28C257.899 243.024 258.212 237.883 256.571 231.772ZM246.113 258.81C250.35 256.253 252.711 253.309 253.726 250.017C254.749 246.702 254.454 242.888 253.086 238.516C250.335 229.723 243.404 219.128 235.252 206.683L235.247 206.676L235.242 206.668C234.435 205.437 233.617 204.188 232.792 202.923C228.377 200.348 223.42 197.696 218.188 194.896L218.101 194.85C201.473 185.953 182.07 175.571 169.341 161.768C162.949 154.836 158.196 146.999 156.335 138.008C154.47 129.007 155.522 118.94 160.587 107.592C171.6 82.914 193.411 72.4064 213.889 71.8504C217.741 71.0667 219.723 67.4218 219.686 63.6935C219.667 61.8379 219.136 60.0785 218.169 58.7944C217.225 57.5399 215.848 56.7096 213.996 56.6542C190.776 57.1241 167.452 70.6387 153.518 90.2465C139.602 109.827 135.113 135.382 149.365 159.999C156.757 172.765 173.186 185.405 189.738 195.778C206.244 206.121 222.689 214.101 229.935 217.599C240.291 222.599 244.206 231.769 242.731 239.191C241.994 242.896 239.907 246.151 236.627 248.135C233.342 250.122 228.965 250.772 223.757 249.47C219.574 248.424 216.347 248.945 214.156 250.181C211.964 251.418 210.746 253.398 210.558 255.45C210.372 257.496 211.201 259.716 213.315 261.456C215.44 263.205 218.911 264.5 224 264.5C231.624 264.5 239.758 262.646 246.113 258.81ZM219.046 56.7605C219.305 57.0192 219.546 57.2971 219.767 57.5913C221.039 59.2802 221.663 61.4776 221.685 63.6734C221.715 66.6504 220.616 69.844 218.261 71.8821C223.19 72.088 227.995 72.866 232.5 74.1568V59.2301C228.093 57.8525 223.584 57.0464 219.046 56.7605ZM232.5 76.2404C226.747 74.5271 220.456 73.6815 214.026 73.8475C194.173 74.3598 173.082 84.5025 162.413 108.408C157.493 119.432 156.526 129.072 158.293 137.603C160.062 146.144 164.59 153.666 170.812 160.412C183.289 173.942 202.405 184.183 219.131 193.133L219.143 193.139C224.443 195.975 229.503 198.683 234.005 201.315C237.817 203.545 241.258 205.737 244.126 207.93C236.198 188.171 231.859 164.519 232.5 136.988V76.2404ZM314.51 276.912C314.693 285.013 317.31 291.415 321.401 296.279C325.655 301.336 331.547 304.782 338.083 306.708C345.859 309 354.489 308.947 362.204 306.559C368.645 304.565 374.406 301.114 378.519 296.094C382.497 291.239 384.978 284.864 385.005 276.785C362.162 284.569 337.355 284.612 314.51 276.912ZM338.793 308.98L338.68 322.588C343.111 325.05 346.983 327.036 350.363 328.693C354.436 325.374 358.128 322.775 361.5 320.783V308.847C354.171 310.857 346.167 310.903 338.793 308.98ZM76.5072 189.756L176.599 264.7L175.5 266.366L61.6709 200.598L76.5072 189.756ZM65.3291 200.402L161.938 256.22L76.4928 192.244L65.3291 200.402ZM569.363 229.888L584.615 235.379L518.424 266.405L517.443 264.669L569.363 229.888ZM569.637 232.112L529.474 259.017L579.385 235.621L569.637 232.112ZM80.157 252.373L176.258 278.034L175.874 279.992L68.0108 266.255L80.157 252.373ZM80.843 254.627L71.9892 264.745L161.371 276.129L80.843 254.627ZM637.515 252.885L646.663 268.895L520.564 276.998L520.314 275.017L637.515 252.885ZM536.712 273.956L643.337 267.105L636.485 255.115L536.712 273.956ZM126.519 288H173L173.143 289.99L118.639 297.851L126.519 288ZM127.481 290L123.361 295.149L159.062 290H127.481ZM517.702 290.955L518.183 289.017L615.805 307.225L619.929 322.819L517.702 290.955ZM534.493 294.094L617.071 319.834L614.195 308.96L534.493 294.094ZM335.145 360.4L336.239 360.67C336.746 360.794 337.284 360.91 337.858 361.017L338.758 361.184L338.71 361.693C339.028 361.78 339.534 361.848 340.234 361.886C341.597 361.959 343.408 361.908 345.338 361.854C345.531 361.848 345.726 361.843 345.921 361.837C348.032 361.779 350.238 361.732 351.963 361.875C352.819 361.946 353.627 362.068 354.267 362.291C354.846 362.492 355.635 362.897 355.846 363.763C356.214 365.272 355.943 366.976 355.496 368.625C355.405 368.962 355.304 369.305 355.196 369.651C354.706 373.905 354.313 377.876 354.022 381.582C354.222 381.766 354.369 382.055 354.343 382.396C354.321 382.683 354.185 382.873 354.132 382.941C354.068 383.023 354.004 383.078 353.971 383.105C353.947 383.124 353.924 383.141 353.903 383.156C353.485 388.948 353.328 394.07 353.447 398.593C353.683 407.559 355.006 414.079 357.472 418.769C359.378 422.393 361.986 424.963 365.399 426.73C372.666 428.453 380.755 429.577 388.029 430C388.102 430.002 388.229 430.013 388.368 430.064C388.475 430.104 388.694 430.205 388.858 430.45C389.045 430.731 389.052 431.037 388.995 431.259C388.946 431.45 388.853 431.578 388.809 431.634C388.758 431.699 388.709 431.745 388.679 431.772C388.619 431.825 388.564 431.862 388.534 431.881C388.424 431.952 388.282 432.021 388.17 432.073C387.914 432.192 387.529 432.356 387.073 432.545C386.154 432.924 384.878 433.43 383.613 433.933C382.343 434.437 381.084 434.937 380.181 435.309C380.035 435.369 379.899 435.426 379.775 435.478C380.439 437.122 380.97 438.542 381.446 439.817C381.57 440.149 381.69 440.471 381.808 440.784C382.458 442.514 383.04 443.986 383.801 445.496C385.315 448.501 387.579 451.73 392.609 457.332C393.739 458.59 395.006 459.97 396.434 461.5H432C435.248 461.5 437.705 461.855 439.317 463.16C440.999 464.523 441.5 466.682 441.5 469.5V531C441.5 532.987 441.389 535.228 440.442 536.976C439.952 537.881 439.239 538.656 438.228 539.195C437.228 539.729 435.993 540 434.5 540H266.5C263.681 540 261.568 539.499 260.21 538.062C258.866 536.638 258.5 534.54 258.5 532V469.5C258.5 466.96 258.866 464.862 260.21 463.438C261.568 462.001 263.681 461.5 266.5 461.5H304.564C307.616 458.202 310.296 454.779 312.666 451.191C313.692 449.636 314.662 448.05 315.578 446.428C316.205 445.318 316.807 444.192 317.386 443.048C323.295 431.378 326.803 417.864 329.598 401.282C330.298 397.127 330.953 392.782 331.59 388.227C332.717 380.167 333.787 371.461 334.949 361.996L335.145 360.4ZM336.858 362.859C335.725 372.081 334.676 380.601 333.571 388.504C333.565 388.547 333.559 388.589 333.553 388.631L333.659 388.752C333.612 388.793 333.566 388.834 333.519 388.875C332.9 393.281 332.263 397.499 331.582 401.542L331.732 401.681C331.667 401.751 331.603 401.82 331.539 401.889C331.533 401.896 331.526 401.903 331.52 401.909C328.721 418.434 325.178 432.087 319.171 443.952C318.541 445.195 317.885 446.418 317.2 447.623C316.487 448.875 315.743 450.108 314.966 451.322C317.904 452.594 321.955 453.613 326.869 454.414C332.36 455.31 338.854 455.921 345.935 456.33C359.422 457.108 374.973 457.145 389.661 457.02C385.566 452.331 383.48 449.304 382.015 446.396C381.203 444.785 380.591 443.229 379.936 441.488C379.815 441.168 379.694 440.842 379.569 440.508C379.098 439.246 378.583 437.869 377.94 436.275C377.706 436.375 377.386 436.486 377.037 436.499L376.994 436.501L376.95 436.499L376.947 436.499C376.909 436.497 376.629 436.487 376.37 436.277C376.241 436.152 376.052 435.823 376.007 435.627C376 435.458 376.052 435.178 376.096 435.069C376.166 434.922 376.259 434.823 376.306 434.777C376.319 434.765 376.329 434.757 376.333 434.752C376.378 434.713 376.416 434.685 376.435 434.672C376.5 434.628 376.561 434.598 376.569 434.594C376.61 434.573 376.657 434.552 376.696 434.534C376.781 434.497 376.904 434.445 377.052 434.382C377.351 434.257 377.784 434.08 378.302 433.869C378.773 433.677 379.318 433.456 379.903 433.22C380.606 432.936 381.366 432.629 382.126 432.323C382.344 432.235 382.563 432.147 382.78 432.059C376.962 431.98 371.987 431.362 367.826 429.929C366.728 429.551 365.688 429.116 364.704 428.62C363.08 428.232 361.496 427.813 359.97 427.366C355.698 426.115 351.841 424.628 348.806 422.919C345.802 421.225 343.46 419.234 342.437 416.902C341.295 414.298 340.886 411.739 341.419 409.581C341.857 407.81 342.916 406.38 344.565 405.485C341.992 403.896 340.164 401.858 339.528 399.236C338.709 395.857 340.466 392.282 342.55 389.439C343.475 388.176 344.505 387.004 345.5 385.984C345.497 385.982 345.494 385.98 345.491 385.978C345.265 385.808 345.069 385.508 345.077 385.136C345.065 385.046 345.065 384.954 345.078 384.865C345.109 384.642 345.206 384.488 345.258 384.415C345.359 384.275 345.473 384.193 345.504 384.171C345.57 384.124 345.636 384.087 345.683 384.063C345.697 384.055 345.71 384.049 345.72 384.044C345.824 383.993 345.957 383.937 346.093 383.882C346.375 383.77 346.769 383.624 347.219 383.463C347.752 383.272 348.381 383.052 349.023 382.829C349.608 382.395 350.23 382.038 350.968 381.798C350.533 380.694 350.462 379.49 350.582 378.291C350.75 376.608 351.306 374.811 351.897 373.094C352.06 372.622 352.225 372.157 352.387 371.699C352.686 370.854 352.977 370.033 353.23 369.235C353.417 367.62 353.618 365.966 353.832 364.271C353.78 364.245 353.708 364.214 353.61 364.18C353.209 364.041 352.601 363.935 351.798 363.868C350.203 363.736 348.11 363.778 345.976 363.837C345.777 363.842 345.578 363.848 345.379 363.853C343.475 363.907 341.577 363.961 340.126 363.883C339.336 363.84 338.589 363.756 338.021 363.574C337.742 363.485 337.413 363.344 337.147 363.098C337.076 363.032 337.009 362.958 336.95 362.878C336.919 362.872 336.889 362.865 336.858 362.859ZM348.09 386.246L348.34 386.252L348.231 386.115C348.854 385.54 349.427 385.052 349.902 384.677C349.924 384.669 349.945 384.661 349.964 384.653C349.984 384.646 350.108 384.601 350.208 384.543C350.215 384.538 350.225 384.532 350.238 384.524C350.262 384.516 350.287 384.507 350.311 384.499C350.542 384.419 350.772 384.339 350.998 384.261C351.288 384.16 351.572 384.06 351.842 383.966C351.47 389.423 351.333 394.298 351.448 398.645C351.687 407.742 353.029 414.617 355.702 419.7C356.846 421.875 358.227 423.71 359.851 425.244C355.941 424.062 352.486 422.697 349.788 421.176C346.905 419.552 345.029 417.83 344.269 416.098C343.233 413.737 342.969 411.646 343.361 410.061C343.738 408.536 344.74 407.384 346.523 406.822C346.738 406.754 346.965 406.695 347.205 406.644L350.113 406.034L347.428 404.762C344.058 403.165 342.057 401.18 341.472 398.764C340.876 396.309 342.135 393.387 344.163 390.621C345.394 388.941 346.834 387.421 348.09 386.246ZM391.424 459.004C376.226 459.147 359.914 459.139 345.819 458.326C338.702 457.916 332.133 457.299 326.547 456.388C321.42 455.552 317.058 454.459 313.852 453.016C311.872 455.946 309.686 458.766 307.263 461.5H393.704C392.89 460.619 392.131 459.789 391.424 459.004ZM261.664 464.812C260.884 465.638 260.5 467.04 260.5 469.5V532C260.5 534.46 260.884 535.862 261.665 536.688C262.432 537.501 263.819 538 266.5 538H434.5C435.757 538 436.647 537.771 437.287 537.43C437.917 537.094 438.361 536.619 438.683 536.024C439.361 534.772 439.5 533.013 439.5 531V469.5C439.5 466.818 439.001 465.477 438.058 464.715C437.045 463.895 435.252 463.5 432 463.5H266.5C263.819 463.5 262.432 463.999 261.664 464.812ZM284.263 482.2L320.927 520.5H346.646L307.575 480H290.5C290.189 480 289.891 479.997 289.604 479.995C289.048 479.989 288.528 479.985 288.018 480.001C287.256 480.025 286.618 480.095 286.088 480.253C285.573 480.407 285.183 480.638 284.883 480.978C284.643 481.25 284.423 481.635 284.263 482.2ZM310.354 480L349.425 520.5H378.626L339.079 480H310.354ZM349.759 488.074L381.421 520.5H382.566L349.759 488.074ZM385.411 520.5H392.249C389.486 516.06 380.459 503.327 355.11 480H344.434L385.411 520.5ZM358.057 480C384.537 504.565 392.628 517.123 394.583 520.5H410.996C412.26 520.494 413.268 520.034 413.997 519.501L369.619 480H358.057ZM372.628 480L415.315 517.997C415.505 517.571 415.587 517.123 415.61 516.67C415.63 516.285 415.608 515.909 415.576 515.545C415.569 515.472 415.562 515.394 415.555 515.315C415.529 515.04 415.5 514.738 415.5 514.5V484C415.5 482.282 415.238 481.402 414.73 480.895C414.217 480.381 413.201 480 411 480H372.628ZM417.5 484C417.5 482.219 417.262 480.598 416.145 479.48C415.033 478.369 413.299 478 411 478H290.5C290.231 478 289.956 477.997 289.678 477.995C289.096 477.99 288.505 477.984 287.955 478.002C287.13 478.028 286.291 478.105 285.516 478.337C284.726 478.573 283.983 478.975 283.383 479.655C282.787 480.331 282.393 481.213 282.184 482.313C282.112 482.687 282.07 483.455 282.043 484.136C282.015 484.854 282 485.6 282 486V516C282 518.216 282.215 520.029 283.445 521.17C284.061 521.743 284.847 522.067 285.751 522.253C286.648 522.438 287.729 522.5 289 522.5H411.004C413.527 522.489 415.298 521.183 416.231 520.182C417.253 519.086 417.553 517.831 417.607 516.773C417.635 516.251 417.603 515.766 417.568 515.371C417.557 515.245 417.547 515.135 417.538 515.037C417.515 514.799 417.5 514.636 417.5 514.5V484ZM318.158 520.5L284.02 484.839C284.007 485.313 284 485.742 284 486V516C284 518.284 284.285 519.221 284.805 519.705C285.064 519.945 285.465 520.152 286.155 520.294C286.852 520.437 287.771 520.5 289 520.5H318.158Z" fill="#C68658"/>
<path fill-rule="evenodd" clip-rule="evenodd" d="M416.5 484.01V514.51C416.5 515.509 417.123 517.769 415.5 519.51C414.686 520.384 413.16 521.501 411 521.51H289C284 521.51 283 520.51 283 516.01V486.01C283 485.242 283.057 483.08 283.166 482.51C283.905 478.63 287.012 479.01 290.5 479.01H411C415.5 479.01 416.5 480.51 416.5 484.01Z" fill="#F8B20E"/>
<path fill-rule="evenodd" clip-rule="evenodd" d="M284.883 480.988C284.58 481.332 284.308 481.857 284.148 482.697C284.111 482.893 284.07 483.491 284.041 484.225C284.014 484.923 284 485.642 284 486.01V516.01C284 518.294 284.285 519.232 284.805 519.715C285.064 519.955 285.465 520.162 286.155 520.304C286.852 520.448 287.771 520.51 289 520.51H410.998C412.794 520.501 414.074 519.574 414.769 518.828C415.37 518.183 415.571 517.438 415.61 516.68C415.63 516.296 415.608 515.919 415.576 515.555C415.569 515.482 415.562 515.404 415.555 515.325C415.529 515.05 415.5 514.749 415.5 514.51V484.01C415.5 482.292 415.238 481.412 414.73 480.905C414.217 480.391 413.201 480.01 411 480.01H290.5C290.189 480.01 289.892 480.007 289.604 480.005C289.048 480 288.528 479.995 288.018 480.011C287.256 480.035 286.618 480.105 286.088 480.263C285.573 480.417 285.183 480.648 284.883 480.988ZM417.5 484.011C417.5 482.229 417.262 480.608 416.145 479.491C415.033 478.379 413.299 478.01 411 478.01H290.5C290.231 478.01 289.955 478.008 289.678 478.005C289.096 478 288.505 477.995 287.955 478.012C287.13 478.038 286.291 478.115 285.516 478.347C284.726 478.583 283.983 478.985 283.383 479.665C282.787 480.341 282.393 481.224 282.184 482.323C282.112 482.697 282.07 483.465 282.043 484.146C282.015 484.864 282 485.61 282 486.01V516.01C282 518.226 282.215 520.039 283.445 521.18C284.061 521.753 284.847 522.077 285.751 522.263C286.648 522.448 287.729 522.51 289 522.51H411H411.004C413.527 522.499 415.298 521.193 416.231 520.192C417.253 519.096 417.553 517.841 417.607 516.784C417.635 516.261 417.603 515.776 417.568 515.381C417.557 515.255 417.547 515.145 417.538 515.047C417.515 514.809 417.5 514.646 417.5 514.51V484.011Z" fill="#F8B20E"/>
<path fill-rule="evenodd" clip-rule="evenodd" d="M322.236 16V88.8219C318.719 200.583 453.393 203.112 453.393 88.8219V16H322.236Z" fill="#FFD555"/>
<path d="M275 16V137.37C273.651 259.174 435.33 295.862 464 167C464.678 159.428 465.121 145.644 464.95 137.37V16H453.393V88.8219C453.393 203.112 318.719 200.583 322.236 88.8219V16H275Z" fill="#FDC802"/>
<path fill-rule="evenodd" clip-rule="evenodd" d="M323.236 88.8376L323.236 88.8534C322.363 116.591 330.064 137.447 342.005 151.393C353.948 165.341 370.179 172.436 386.505 172.591C402.83 172.747 419.279 165.963 431.659 152.089C444.037 138.216 452.393 117.196 452.393 88.8219V18H323.236V88.8376ZM321.236 18V88.8062C320.354 116.942 328.167 138.307 340.486 152.694C352.805 167.081 369.583 174.43 386.486 174.591C403.389 174.752 420.389 167.723 433.151 153.42C445.914 139.116 454.393 117.592 454.393 88.8219V18H462.95V137.39L462.951 137.411C463.119 145.571 462.684 159.172 462.02 166.692C454.934 198.415 439.725 219.765 421.075 232.199C402.384 244.659 380.07 248.277 358.614 244.22C315.709 236.106 276.336 197.301 277 137.392L277 137.381V18H321.236ZM464 167C435.33 295.862 273.651 259.174 275 137.37V16H464.95V137.37C465.121 145.644 464.678 159.428 464 167Z" fill="#FDC802"/>
<path d="M445 59C445 78.33 429.33 94 410 94C390.67 94 375 78.33 375 59C375 39.67 390.67 24 410 24C429.33 24 445 39.67 445 59Z" fill="white"/>
<path fill-rule="evenodd" clip-rule="evenodd" d="M372.369 368.789C371.701 365.738 371.026 362.545 370.5 359.289C372.29 339.6 371.517 339.24 356.987 332.473C354.941 331.521 352.123 329.779 349.5 328.5C353.942 324.843 358.415 322.073 362 320C391 309.643 396.794 338.074 389.555 350L390.258 350.214C388.929 349.769 387.36 349.485 385.5 349.382C394.915 353.399 397.941 366.289 392.667 378.789C391.869 379.338 390.98 379.799 390 380.199C397.884 386.85 399.5 399.211 389 407C388.219 407.34 389.146 407 387.5 407.5C384.243 408.49 380.264 409.182 375.5 409C363.703 408.55 353.041 407.099 346.5 404C343.006 402.345 341.188 400.338 340.5 397.5C349.861 400.977 353.714 396.516 353.367 391.522C355.935 393.132 358 394.289 361.5 394.789C361.995 394.859 362.488 394.911 363 394.94C364.028 394.997 365.135 394.959 366.5 394.789C370.5 394.289 373.5 392.249 374.492 389.289C375.937 384.977 374.453 378.245 372.736 370.46C372.615 369.908 372.492 369.351 372.369 368.789Z" fill="#FBC6A5"/>
<path fill-rule="evenodd" clip-rule="evenodd" d="M376.079 434.266C387.5 431.101 398 420.795 387.5 407.5C384.243 408.49 380.264 409.182 375.5 409C363.703 408.55 353.041 407.099 346.5 404C347.5 403.546 345.97 404.579 345.723 404.657C351.5 404.657 350.147 416.5 343 415C346.565 423.127 358.046 433.223 376.079 434.266Z" fill="#FBC6A5"/>
<path d="M378.255 434.266C394.439 434.002 396.5 415.5 389 407C388.219 407.34 389.146 407 387.5 407.5C398 420.795 387.5 431.101 376.079 434.266C376.712 434.245 377.608 434.295 378.255 434.266Z" fill="#DDA993"/>
<path d="M389 407C401.58 401.517 401.643 387.825 392.667 378.789C391.869 379.338 390.98 379.799 390 380.199C397.884 386.85 399.5 399.211 389 407Z" fill="#DDA993"/>
<path d="M397.941 366.289C397.974 364.472 397.908 361.978 397.647 360.289C396.686 355.455 394.298 351.59 389.555 350L390.258 350.214C388.929 349.769 387.36 349.485 385.5 349.382C394.915 353.399 397.941 366.289 392.667 378.789C394.818 375.96 396.825 372.512 397.941 366.289Z" fill="#DDA993"/>
<path d="M389.555 350C396.555 342 396.947 330.104 389.5 322.789C382.842 315.347 374.957 312.506 362 320C391 309.643 396.794 338.074 389.555 350Z" fill="#DDA993"/>
<path fill-rule="evenodd" clip-rule="evenodd" d="M373.225 316.772C375.658 316.748 377.865 317.07 379.854 317.686C384.635 319.166 388.043 322.306 390.236 326.148C392.421 329.977 393.404 334.504 393.382 338.83C393.378 339.547 393.347 340.261 393.288 340.968C394.929 334.784 393.524 328.143 388.799 323.502L388.776 323.48L388.755 323.456C385.509 319.828 382.066 317.435 377.955 316.781C376.494 316.549 374.925 316.532 373.225 316.772ZM389.063 348.847C390.533 346.122 391.362 342.563 391.382 338.819C391.403 334.784 390.482 330.614 388.499 327.139C386.523 323.678 383.497 320.907 379.262 319.596C375.032 318.287 369.489 318.402 362.422 320.911C359.197 322.779 355.282 325.198 351.331 328.31C352.203 328.769 353.073 329.251 353.901 329.71L353.945 329.734C355.243 330.454 356.425 331.109 357.409 331.567L357.468 331.594C361.051 333.263 363.868 334.575 366.006 335.899C368.177 337.243 369.742 338.654 370.749 340.57C371.747 342.469 372.138 344.754 372.187 347.728C372.235 350.673 371.948 354.401 371.507 359.253C372.026 362.438 372.687 365.566 373.346 368.575C373.465 369.12 373.584 369.661 373.703 370.198L373.72 370.277C374.573 374.145 375.381 377.81 375.792 381.051C376.202 384.284 376.237 387.23 375.44 389.606C374.287 393.05 370.864 395.251 366.624 395.781C365.55 395.915 364.619 395.971 363.753 395.964C363.424 397.253 363.318 398.298 363.35 399.333C363.389 400.584 363.628 401.852 363.98 403.591L362.02 403.987C361.673 402.27 361.396 400.841 361.351 399.395C361.316 398.255 361.424 397.124 361.727 395.828C361.604 395.813 361.481 395.796 361.359 395.779C358.369 395.352 356.355 394.46 354.318 393.272C354.054 395.379 353.039 397.328 351.104 398.536C348.995 399.852 346.005 400.155 342.163 399.092C342.971 400.585 344.346 401.811 346.556 402.916C346.633 402.898 346.765 402.876 346.915 402.89C347.019 402.9 347.312 402.942 347.558 403.201C347.638 403.285 347.696 403.374 347.738 403.462C354.14 406.219 364.237 407.569 375.538 408.001C380.181 408.178 384.048 407.504 387.209 406.543C387.626 406.417 387.884 406.342 388.05 406.296C388.134 406.272 388.194 406.256 388.238 406.245L388.255 406.24C388.305 406.216 388.378 406.182 388.493 406.13C393.436 402.426 395.465 397.715 395.394 393.188C395.325 388.79 393.271 384.479 389.798 381.35C387.515 382.19 385.025 382.599 382.025 383.092C381.274 383.215 380.49 383.344 379.671 383.485L379.329 381.515C380.207 381.363 381.027 381.228 381.797 381.101C385.03 380.568 387.408 380.177 389.622 379.273C390.449 378.936 391.193 378.558 391.86 378.125C394.327 372.135 394.819 366.114 393.619 361.139C392.419 356.156 389.539 352.259 385.267 350.371C382.476 350.223 379.493 350.229 375.172 350.985L374.828 349.015C379.426 348.21 382.602 348.22 385.555 348.384C386.84 348.455 388.005 348.61 389.063 348.847ZM390.415 351.417C392.949 353.8 394.683 357.015 395.564 360.67C396.258 363.552 396.428 366.718 396.046 369.999C396.385 368.861 396.687 367.601 396.942 366.191C396.971 364.409 396.904 362.043 396.662 360.462C395.829 356.297 393.934 353.061 390.415 351.417ZM398.628 360.094L398.632 360.115L398.636 360.136C398.91 361.91 398.974 364.472 398.941 366.307L398.939 366.387L398.925 366.465C397.866 372.373 396.011 375.888 393.974 378.706C398.237 383.293 400.388 388.978 399.913 394.316C399.443 399.597 396.41 404.412 390.578 407.363C393.933 411.891 395.034 418.411 393.472 423.991C392.625 427.019 390.983 429.812 388.446 431.867C385.909 433.921 382.536 435.189 378.308 435.265C377.999 435.291 377.645 435.282 377.354 435.273C377.333 435.273 377.312 435.272 377.292 435.271C377.243 435.271 377.194 435.27 377.145 435.269L377.087 435.268C376.884 435.265 376.693 435.262 376.517 435.261L375.5 435.299V435.232C357.428 434.006 345.78 423.827 342.084 415.402L341.304 413.622L343.205 414.021C344.693 414.334 345.798 413.952 346.599 413.26C347.432 412.541 348.001 411.425 348.224 410.21C348.448 408.99 348.301 407.795 347.855 406.951C347.435 406.155 346.756 405.657 345.723 405.657L345.569 404.657C342.2 402.952 340.271 400.799 339.528 397.736L339.085 395.908L340.848 396.563C345.386 398.248 348.327 397.911 350.044 396.839C351.739 395.781 352.525 393.826 352.37 391.592L352.233 389.631L353.898 390.675C356.424 392.259 358.348 393.328 361.641 393.799C362.112 393.866 362.576 393.915 363.055 393.941C364.015 393.995 365.061 393.961 366.376 393.796C370.136 393.326 372.714 391.449 373.544 388.971C374.193 387.036 374.208 384.46 373.808 381.302C373.41 378.162 372.621 374.58 371.76 370.675L371.748 370.622C371.63 370.087 371.511 369.547 371.392 369.003C370.723 365.949 370.044 362.733 369.513 359.448L369.493 359.324L369.504 359.198C369.952 354.267 370.234 350.606 370.187 347.76C370.14 344.918 369.765 342.998 368.978 341.5C368.199 340.019 366.958 338.841 364.953 337.599C362.928 336.345 360.219 335.081 356.565 333.38C355.503 332.886 354.253 332.192 352.975 331.483L352.954 331.472C351.667 330.758 350.338 330.021 349.062 329.399L347.663 328.717L348.865 327.728C353.368 324.021 357.894 321.22 361.499 319.134C368.092 315.321 373.539 314.053 378.269 314.806C382.995 315.558 386.817 318.297 390.224 322.098C397.731 329.496 397.619 341.22 391.248 349.512C393.471 350.393 395.059 351.748 396.206 353.483C397.445 355.359 398.138 357.629 398.628 360.094ZM349.792 406.366C350.348 407.632 350.452 409.151 350.191 410.572C349.905 412.13 349.157 413.694 347.906 414.774C347.03 415.531 345.937 416.021 344.666 416.115C348.752 423.547 359.479 432.231 375.914 433.254C375.923 433.25 375.932 433.246 375.941 433.242C375.994 433.219 376.095 433.178 376.224 433.154C376.267 433.146 376.322 433.139 376.388 433.136C381.728 431.535 386.673 428.36 389.149 424.173C390.42 422.023 391.045 419.604 390.757 416.954C390.484 414.443 389.384 411.659 387.125 408.652C383.901 409.564 380.029 410.174 375.462 409.999C365.636 409.624 356.475 408.556 349.792 406.366ZM391.12 424.753C391.039 424.9 390.956 425.046 390.871 425.191C389.068 428.24 386.182 430.735 382.856 432.58C384.554 432.064 385.99 431.282 387.187 430.313C388.999 428.846 390.301 426.918 391.12 424.753ZM396.093 399.828C397.148 398.062 397.744 396.131 397.921 394.138C398.338 389.459 396.454 384.315 392.514 380.073C392.277 380.214 392.035 380.348 391.787 380.477C395.249 383.891 397.32 388.446 397.394 393.157C397.429 395.398 397.012 397.657 396.093 399.828ZM360.683 419.218C360.418 421.991 360.417 424.911 360.499 426.744L358.501 426.833C358.416 424.928 358.416 421.913 358.692 419.027C358.83 417.585 359.039 416.152 359.35 414.897C359.654 413.666 360.079 412.505 360.704 411.683L362.296 412.894C361.921 413.387 361.575 414.228 361.291 415.377C361.013 416.504 360.816 417.831 360.683 419.218Z" fill="#DDA993"/>
<path d="M342.154 384.583C339.185 386.867 338.739 392.056 340.154 397.89C349.515 401.367 355.222 395.594 354.875 390.601C352.075 388.845 349.484 386.393 347.23 383.568C346.11 383.542 343.515 384.215 342.154 384.583Z" fill="#FFD7BF"/>
<path d="M372.5 368C361.756 367.675 357.256 367.887 359.008 377.867C361.289 390.867 368.061 393.327 376 388.367C377.445 384.055 374.607 377.846 372.89 370.061C372.769 369.509 372.623 368.562 372.5 368Z" fill="#FFD7BF"/>
<path d="M343.007 415.39C340.829 410.425 341.66 406.088 345.876 404.758C351.654 404.758 350.154 416.89 343.007 415.39Z" fill="#FFD7BF"/>
<path d="M346.684 382.867C345.409 382.993 343.002 383.931 342.154 384.583C343.515 384.215 346.11 383.542 347.23 383.568C347.179 383.504 347.128 383.44 347.077 383.375C346.945 383.207 346.814 383.038 346.684 382.867Z" fill="#D9D9D9"/>
<path fill-rule="evenodd" clip-rule="evenodd" d="M223.072 386.027C223.418 388.613 223.854 392.863 225.008 396.867C226.731 402.849 228.716 408.997 230.661 415.024C234.967 428.363 239.079 441.103 239.738 450.11L240.354 451.5C262.087 444.841 272.849 442.204 289.354 440C282.997 427.492 282.854 422 285.854 416C283.757 442.641 302.373 441.34 314.854 442.5C319.238 442.908 316.854 443.5 319.286 441.867C325.262 430.065 328.791 416.435 331.592 399.816C332.294 395.649 332.95 391.294 333.588 386.733C334.717 378.663 335.787 369.948 336.949 360.485L337.008 360.008C337.534 360.137 338.091 360.257 338.683 360.367C338.468 362.617 338.727 365.183 339.382 367.867C340.605 372.879 343.209 378.306 346.684 382.867C346.814 383.038 346.945 383.207 347.077 383.375C347.128 383.44 347.179 383.504 347.23 383.568C349.484 386.393 352.075 388.845 354.875 390.601C357.443 392.211 359.508 393.367 363.008 393.867C363.503 393.938 363.995 393.99 364.508 394.018C365.536 394.075 366.643 394.038 368.008 393.867C372.008 393.367 375.008 391.328 376 388.367C368.061 393.327 361.289 390.867 359.008 377.867C357.256 367.887 361.756 367.675 372.5 368C371.832 364.949 372.008 361.5 372.008 358.367C373.798 338.678 373.025 338.318 358.495 331.552C356.449 330.599 354.13 329.519 351.508 328.241C351.129 328.056 350.745 327.868 350.354 327.675C346.966 326.003 343.096 324.005 338.683 321.54C319.682 313.731 314.6 314.664 305.854 321.5C305.346 321.897 303.889 323.086 303.354 323.5C267.114 351.524 274.29 371.518 278.354 381C279.8 384.375 280.637 385.74 279 387C273.5 375.5 275.318 361.977 276.818 355.477C261.642 369.827 247.108 378.382 223.072 386.027Z" fill="#FBC6A5"/>
<path d="M285.854 416C282.854 422 282.997 427.492 289.354 440C272.849 442.204 262.087 444.841 240.354 451.5L239.738 450.11C239.822 451.258 238.497 452.869 238.461 453.89C263.154 448.39 285 435.5 316.5 446.5C317.177 445.309 318.664 443.096 319.286 441.867C316.854 443.5 319.238 442.908 314.854 442.5C302.373 441.34 283.757 442.641 285.854 416Z" fill="#E09372"/>
<path fill-rule="evenodd" clip-rule="evenodd" d="M352.319 327.523C354.78 328.719 356.969 329.738 358.917 330.645L358.975 330.672C362.559 332.341 365.376 333.653 367.514 334.977C369.685 336.322 371.249 337.733 372.256 339.648C373.255 341.548 373.646 343.832 373.695 346.806C373.743 349.768 373.452 353.521 373.008 358.413C373.007 358.954 373.003 359.498 372.998 360.042C372.973 362.711 372.949 365.377 373.477 367.786C373.542 368.085 373.612 368.476 373.677 368.839L373.68 368.859C373.748 369.242 373.811 369.594 373.867 369.845C374.29 371.764 374.783 373.59 375.267 375.331C375.351 375.634 375.435 375.935 375.519 376.233C375.912 377.642 376.291 378.999 376.602 380.281C377.347 383.35 377.77 386.233 376.948 388.685C375.794 392.128 372.372 394.329 368.132 394.859C367.05 394.995 366.113 395.051 365.242 395.042C365.184 395.23 365.128 395.415 365.072 395.596C364.197 398.431 363.577 400.438 364.134 403.192L362.174 403.588C361.51 400.305 362.291 397.794 363.167 394.977C363.175 394.952 363.183 394.926 363.191 394.901C363.083 394.887 362.974 394.872 362.866 394.857C359.856 394.427 357.835 393.526 355.784 392.326C354.974 397.141 349.632 401.386 341.88 399.47C342.857 401.086 344.598 402.475 347.082 403.652C353.417 406.652 363.886 407.94 375.692 408.391C380.37 408.569 384.234 408.089 387.363 407.138C388.192 406.887 388.969 406.602 389.696 406.288C392.711 404.471 396.229 401.05 397.552 396.458C398.821 392.059 398.133 386.379 392.621 379.702C391.966 380.088 391.269 380.425 390.532 380.726C387.536 381.948 383.755 382.608 379.324 383.375L378.983 381.404C383.484 380.626 387.024 379.997 389.776 378.874C390.686 378.503 391.495 378.083 392.213 377.594C393.316 376.646 394.461 374.872 395.364 372.553C396.268 370.231 396.891 367.46 397.002 364.647C397.225 359.019 395.412 353.469 390.03 350.742C388.816 350.343 387.359 350.079 385.599 349.982C382.804 349.827 379.281 350.094 374.819 350.875L374.474 348.905C379.023 348.108 382.709 347.819 385.709 347.985C387.307 348.073 388.721 348.292 389.973 348.637C393.373 343.124 394.614 338.005 393.975 333.367C393.312 328.556 390.604 324.107 385.86 320.158C383 317.778 380.336 316.517 377.749 316.068C375.163 315.62 372.572 315.968 369.833 316.939C364.97 318.663 359.821 322.269 353.627 326.608C353.196 326.91 352.76 327.215 352.319 327.523ZM391.822 349.446C395.289 343.736 396.665 338.236 395.956 333.094C395.209 327.673 392.167 322.805 387.14 318.621C384.073 316.068 381.095 314.619 378.091 314.098C375.087 313.577 372.142 313.999 369.165 315.054C364.024 316.876 358.622 320.663 352.476 324.972C351.75 325.48 351.014 325.996 350.268 326.516C347.02 324.905 343.339 322.995 339.171 320.667C338.715 320.412 338.159 320.199 337.58 320.012C335.613 319.221 333.793 318.526 332.1 317.927C327.439 315.369 323.159 314.139 319.119 314.031C314.769 313.914 310.775 315.099 306.962 317.209C299.435 321.373 292.489 329.224 284.741 337.982L284.639 338.097C281.573 341.563 278.369 345.184 274.928 348.82C261.873 362.612 245.462 376.542 220.769 382.417L219.76 382.657L220.036 383.656C220.281 384.545 221.005 385.013 221.378 385.255C221.426 385.286 221.467 385.313 221.502 385.337C221.703 385.476 221.821 385.576 221.904 385.685C221.975 385.778 222.048 385.914 222.081 386.16C222.128 386.516 222.178 386.907 222.232 387.328C222.561 389.915 223.032 393.623 224.047 397.144C225.775 403.141 227.763 409.302 229.707 415.323L229.71 415.331C234.032 428.723 238.093 441.326 238.741 450.183C238.748 450.275 238.728 450.443 238.634 450.716C238.542 450.983 238.407 451.276 238.244 451.613C238.22 451.664 238.194 451.716 238.168 451.769C238.033 452.048 237.882 452.358 237.762 452.651C237.623 452.992 237.477 453.418 237.462 453.855L237.418 455.147L238.679 454.866C244.527 453.563 250.213 451.85 255.864 450.147C256.22 450.04 256.575 449.932 256.931 449.826C262.946 448.015 268.935 446.245 275.127 444.987C287.481 442.479 300.628 442.017 316.17 447.444L316.957 447.719L317.369 446.994C317.632 446.532 318.024 445.906 318.452 445.223C318.554 445.06 318.658 444.895 318.762 444.727C319.291 443.88 319.843 442.98 320.178 442.319C326.221 430.384 329.77 416.639 332.578 399.982C333.282 395.803 333.94 391.439 334.579 386.871C335.61 379.499 336.592 371.59 337.639 363.075C337.723 364.686 337.99 366.379 338.411 368.104C339.558 372.806 341.878 377.838 344.973 382.225C344.612 382.335 344.247 382.462 343.901 382.594C343.015 382.933 342.088 383.372 341.544 383.791C339.776 385.151 338.845 387.31 338.519 389.774C338.192 392.245 338.456 395.13 339.182 398.125C339.818 400.748 341.646 402.786 344.219 404.375C342.57 405.27 341.511 406.7 341.073 408.471C340.54 410.629 340.949 413.188 342.091 415.792C345.83 424.314 357.826 434.304 376.175 435.365C376.318 435.374 376.461 435.381 376.604 435.389L376.648 435.391L376.691 435.389C377.21 435.37 377.721 435.336 378.223 435.289C386.978 434.886 392.16 430.668 394.096 424.925C395.909 419.552 394.809 413.048 391.524 407.494C394.642 405.401 398.09 401.814 399.474 397.012C400.958 391.865 400.013 385.531 394.189 378.46C395.369 377.189 396.417 375.359 397.227 373.279C398.208 370.759 398.88 367.77 399.001 364.726C399.228 358.976 397.473 352.804 391.822 349.446ZM389.752 408.427C389.173 408.653 388.571 408.862 387.945 409.052C384.56 410.08 380.467 410.574 375.616 410.389C365.867 410.017 356.758 409.075 350.082 406.952C350.478 408.153 350.519 409.529 350.27 410.825C349.965 412.414 349.201 414.008 347.943 415.113C347.058 415.89 345.955 416.398 344.674 416.5C348.785 423.914 359.692 432.394 376.246 433.366C376.859 433.346 377.48 433.321 378.109 433.293C386.186 432.928 390.566 429.134 392.201 424.286C393.796 419.559 392.852 413.617 389.752 408.427ZM343.715 414.492C344.946 414.625 345.899 414.246 346.623 413.61C347.476 412.862 348.065 411.705 348.306 410.448C348.549 409.186 348.415 407.951 347.977 407.079C347.585 406.299 346.961 405.808 346.025 405.762C344.337 406.341 343.381 407.47 343.015 408.951C342.651 410.424 342.853 412.334 343.715 414.492ZM342.616 385.495C341.499 386.432 340.775 387.967 340.501 390.036C340.234 392.057 340.412 394.493 341.004 397.131C349.197 399.917 353.783 395.097 353.887 391.155C351.283 389.441 348.881 387.168 346.771 384.591C346.322 384.638 345.701 384.75 344.997 384.904C344.151 385.091 343.276 385.317 342.616 385.495ZM346.449 384.192C346.449 384.192 346.449 384.192 346.449 384.192L347.23 383.568ZM346.449 384.192C346.396 384.126 346.344 384.06 346.292 383.994C346.291 383.994 346.292 383.994 346.292 383.994M337.795 359.165C337.927 357.873 338.094 356.668 338.498 355.643C339.056 354.224 340.047 353.168 341.777 352.464L342.531 354.316C341.281 354.825 340.706 355.492 340.359 356.375C339.977 357.345 339.858 358.589 339.689 360.358L339.679 360.462C339.477 362.572 339.717 365.022 340.354 367.63C341.542 372.5 344.082 377.803 347.479 382.261C347.606 382.427 347.734 382.593 347.863 382.756C347.883 382.782 347.903 382.808 347.923 382.833C347.953 382.871 347.982 382.908 348.012 382.945C350.211 385.702 352.722 388.071 355.406 389.754C357.932 391.337 359.855 392.407 363.149 392.877C363.62 392.944 364.083 392.993 364.563 393.02C365.523 393.073 366.569 393.039 367.884 392.875C369.887 392.624 371.555 391.974 372.802 391.046C369.994 392.031 367.289 392.031 364.904 390.73C361.526 388.888 359.181 384.637 358.023 378.04C357.576 375.495 357.503 373.45 357.894 371.834C358.299 370.159 359.199 368.969 360.579 368.196C361.9 367.456 363.595 367.136 365.545 367.003C367.199 366.89 369.126 366.908 371.295 366.965C370.951 364.658 370.975 362.206 370.997 359.949C371.003 359.409 371.008 358.88 371.008 358.367V358.322L371.012 358.277C371.46 353.346 371.742 349.685 371.695 346.839C371.648 343.997 371.273 342.076 370.486 340.579C369.707 339.097 368.466 337.919 366.461 336.678C364.436 335.423 361.726 334.16 358.073 332.458L358.071 332.457C356.026 331.505 353.7 330.422 351.069 329.14C350.69 328.954 350.304 328.765 349.911 328.572C346.524 326.9 342.656 324.903 338.248 322.442C337.791 322.254 337.343 322.072 336.902 321.895C336.482 321.761 336.01 321.628 335.496 321.484L335.445 321.47C334.361 321.164 333.093 320.804 332.149 320.253C331.858 320.083 331.569 319.919 331.282 319.76C325.704 317.794 321.722 316.951 318.446 317.028C314.032 317.132 310.786 318.914 306.47 322.288C306.244 322.464 305.82 322.806 305.367 323.171L305.242 323.272C304.751 323.668 304.243 324.076 303.966 324.291C288.228 336.461 280.835 347.024 277.78 355.756C276.958 359.333 276.061 364.978 276.331 371.197C276.963 374.992 278.215 378.137 279.273 380.606C279.41 380.925 279.544 381.234 279.673 381.53C279.875 381.992 280.062 382.421 280.22 382.804C280.481 383.436 280.701 384.037 280.813 384.596C280.928 385.167 280.945 385.76 280.734 386.345C280.521 386.933 280.121 387.399 279.61 387.792L278.669 388.517L278.115 387.466C276.314 384.044 274.188 379.639 273.154 373.497C272.536 369.824 272.312 365.551 272.765 360.512C259.239 372.296 245.383 379.901 224.171 386.726C224.187 386.848 224.203 386.973 224.219 387.1C224.55 389.696 225.001 393.232 225.969 396.59C227.687 402.554 229.667 408.687 231.613 414.717L231.654 414.845C235.837 427.804 239.891 440.363 240.688 449.448C240.876 449.642 240.959 449.864 240.996 449.998C241.02 450.083 241.035 450.166 241.044 450.243C261.548 443.981 272.27 441.342 287.833 439.197C285.044 433.544 283.547 429.282 283.102 425.682C282.619 421.766 283.388 418.695 284.959 415.553L286.851 416.079C286.335 422.632 287.102 427.364 288.656 430.805C290.201 434.225 292.554 436.439 295.355 437.921C298.178 439.416 301.474 440.174 304.893 440.625C307.092 440.915 309.267 441.071 311.385 441.224C312.593 441.311 313.783 441.396 314.946 441.504C316.075 441.609 316.783 441.728 317.253 441.823C317.386 441.85 317.503 441.875 317.596 441.897C317.785 441.73 318.062 441.499 318.509 441.187C323.946 430.37 327.338 417.969 330.021 403.015C329.48 403.611 328.951 404.197 328.429 404.775C321.328 412.635 315.674 418.895 304.137 425.265L303.171 423.514C314.398 417.315 319.834 411.3 326.919 403.461C328.106 402.147 329.34 400.782 330.655 399.356C331.203 396.087 331.724 392.701 332.23 389.189C325.753 394.5 319.677 397.911 312.747 399.502C305.116 401.253 296.558 400.773 285.442 398.367L285.865 396.412C296.846 398.789 305.076 399.21 312.299 397.552C319.414 395.919 325.657 392.245 332.65 386.222C333.742 378.379 334.782 369.925 335.908 360.758C330.935 359.436 327.379 357.586 323.49 354.138L324.817 352.642C328.662 356.051 332.1 357.769 337.247 359.037C337.426 359.081 337.608 359.124 337.795 359.165ZM316.978 443.808C316.94 443.8 316.9 443.792 316.856 443.783C316.463 443.703 315.825 443.595 314.761 443.496C313.683 443.396 312.533 443.312 311.342 443.226C310.152 443.141 308.922 443.052 307.683 442.94C310.401 443.544 313.189 444.319 316.056 445.29C316.275 444.932 316.521 444.538 316.769 444.142C316.839 444.031 316.909 443.919 316.978 443.808ZM299.311 441.577C297.613 441.114 295.963 440.506 294.419 439.689C291.267 438.021 288.58 435.493 286.834 431.628C286.095 429.994 285.531 428.133 285.168 426.013C285.694 429.426 287.253 433.66 290.245 439.547L290.884 440.805L289.486 440.991C288.575 441.113 287.682 441.236 286.804 441.361C290.832 441.093 294.987 441.129 299.311 441.577ZM259.708 446.908C254.652 448.26 249.079 449.887 242.472 451.899C246.78 450.795 251.029 449.515 255.304 448.227C255.654 448.121 256.004 448.016 256.354 447.91C257.47 447.575 258.587 447.239 259.708 446.908ZM240.047 452.498C240.044 452.498 240.041 452.497 240.038 452.497C240.038 452.498 240.037 452.499 240.036 452.501C240.04 452.5 240.043 452.499 240.047 452.498ZM223.697 384.777C245.462 377.761 259.293 369.947 273.1 357.545C273.307 356.018 273.573 354.427 273.906 352.766C261.429 365.513 245.711 378.094 222.965 383.934C223.141 384.077 223.326 384.252 223.494 384.472C223.567 384.568 223.635 384.67 223.697 384.777ZM276.564 350.001C276.112 351.883 275.745 353.677 275.454 355.387C275.621 355.231 275.788 355.074 275.955 354.917C276.981 352.028 278.448 348.978 280.471 345.772C279.202 347.172 277.901 348.585 276.564 350.001ZM299.063 325.647C300.238 324.677 301.463 323.698 302.742 322.709C303 322.51 303.488 322.117 303.986 321.715L304.116 321.611C304.563 321.251 304.999 320.899 305.238 320.712C305.514 320.496 305.788 320.285 306.059 320.08C303.711 321.593 301.398 323.476 299.063 325.647ZM371.669 368.976C369.328 368.911 367.343 368.885 365.681 368.999C363.82 369.126 362.485 369.421 361.557 369.941C360.687 370.428 360.119 371.142 359.838 372.304C359.542 373.524 359.563 375.249 359.993 377.694C361.117 384.097 363.298 387.576 365.861 388.974C368.303 390.306 371.458 389.935 375.153 387.713C375.641 385.905 375.357 383.63 374.659 380.752C374.357 379.507 373.989 378.191 373.596 376.784C373.511 376.482 373.426 376.177 373.34 375.867C372.854 374.119 372.349 372.25 371.914 370.276C371.848 369.979 371.778 369.587 371.713 369.222L371.711 369.21C371.697 369.13 371.683 369.052 371.669 368.976ZM360.837 418.819C360.571 421.592 360.571 424.512 360.653 426.345L358.655 426.434C358.57 424.53 358.57 421.514 358.846 418.628C358.984 417.186 359.193 415.753 359.503 414.499C359.808 413.267 360.233 412.106 360.858 411.284L362.45 412.495C362.075 412.988 361.729 413.829 361.445 414.978C361.167 416.105 360.97 417.432 360.837 418.819Z" fill="#AA755E"/>
<path d="M286.269 405.5C279.737 413.467 279.912 425.304 286.269 437.811C269.764 440.016 260.774 442.77 239.041 449.429L239.041 448.523C239.125 449.672 239.076 450.979 239.041 452C263.733 446.5 284 434.023 315.5 445.023C316.177 443.832 316.378 443.252 317 442.023C311.338 440.333 305.794 439.648 301.41 439.241C290.448 437.444 285.548 431.558 286.269 405.5Z" fill="#DDA993"/>
<path fill-rule="evenodd" clip-rule="evenodd" d="M287.349 402.605L287.269 405.528C286.908 418.548 287.969 426.308 290.351 431.017C291.524 433.338 293.017 434.912 294.838 436.021C296.668 437.135 298.879 437.81 301.537 438.248C305.938 438.658 311.545 439.351 317.286 441.065L318.433 441.407L317.892 442.474C317.684 442.887 317.515 443.244 317.352 443.59C317.07 444.189 316.803 444.755 316.369 445.517L315.957 446.242L315.17 445.967C291.448 437.683 274.331 442.854 256.466 448.251C250.879 449.939 245.217 451.649 239.258 452.976L237.997 453.257L238.044 451.884C238.064 451.315 238.085 450.687 238.087 450.059C238.068 450.035 238.05 450.01 238.032 449.984C237.941 449.85 237.894 449.712 237.871 449.594C237.828 449.374 237.864 449.192 237.886 449.102C237.927 448.939 237.998 448.797 238.041 448.717L238.041 447.783L238.748 447.567C238.832 447.541 238.946 447.512 239.077 447.503C239.196 447.494 239.424 447.495 239.666 447.618C239.795 447.683 239.918 447.779 240.019 447.908C240.056 447.956 240.088 448.005 240.114 448.054C260.273 441.879 269.366 439.148 284.758 437.008C278.915 424.766 278.836 412.989 285.496 404.866L287.349 402.605ZM238.748 448.472C238.748 448.472 238.748 448.472 238.748 448.472ZM240.087 450.154C240.086 450.351 240.083 450.546 240.079 450.737C245.346 449.506 250.455 447.961 255.556 446.417C273.346 441.035 291.044 435.68 315.026 443.802C315.203 443.459 315.341 443.164 315.495 442.836C315.523 442.777 315.551 442.717 315.58 442.655C310.408 441.228 305.384 440.614 301.317 440.236L301.283 440.233L301.248 440.228C298.441 439.768 295.94 439.034 293.798 437.729C291.64 436.415 289.897 434.553 288.566 431.92C286.168 427.179 285.102 419.929 285.207 408.795C280.949 416.216 281.594 426.407 287.16 437.358L287.8 438.616L286.401 438.803C270.178 440.969 261.278 443.662 240.087 450.154Z" fill="#DDA993"/>
<path d="M275 352.633C261.127 366.816 245.876 379.315 221.5 385C221.812 386.131 222.279 388.35 222.5 390C246.536 382.355 258.324 373.849 273.5 359.5C272 366 275.5 385.5 280.5 390.5C282.137 389.24 281.947 388.375 280.5 385C276.436 375.518 266.055 357.024 302.295 329C302.83 328.586 303.351 328.179 303.859 327.782C312.605 320.946 320.998 316.691 340 324.5C338.505 323.665 335.7 322.3 334 321.5C310.538 310.459 304.5 321.5 285 341.633C281.935 345.097 278.455 348.983 275 352.633Z" fill="#FFDEC9"/>
<path fill-rule="evenodd" clip-rule="evenodd" d="M285.734 342.312C282.671 345.774 279.187 349.664 275.726 353.32L275.72 353.326L275.715 353.332C261.967 367.388 246.781 379.887 222.716 385.738C222.919 386.606 223.138 387.678 223.31 388.689C246.428 381.191 257.959 372.819 272.813 358.773L275.219 356.498L274.474 359.725C274.133 361.202 274.062 363.52 274.255 366.314C274.447 369.084 274.893 372.242 275.542 375.359C276.19 378.478 277.036 381.533 278.02 384.103C278.818 386.188 279.68 387.882 280.556 389.037C280.626 388.912 280.663 388.779 280.657 388.573C280.649 388.322 280.577 387.968 280.394 387.428C280.212 386.893 279.943 386.238 279.581 385.394C279.403 384.978 279.21 384.541 279.009 384.085C276.948 379.403 273.949 372.589 275.295 363.802C276.776 354.138 283.455 342.304 301.683 328.209C302.216 327.797 302.735 327.392 303.243 326.994C307.653 323.547 312.099 320.648 317.917 319.663C320.511 319.224 323.349 319.17 326.549 319.595C323.815 318.728 321.375 318.264 319.139 318.155C315.175 317.962 311.797 318.883 308.507 320.746C305.19 322.625 301.952 325.468 298.292 329.146C296.291 331.157 294.206 333.374 291.929 335.794C290.02 337.824 287.976 339.997 285.734 342.312ZM319.236 316.158C323.586 316.369 328.496 317.805 334.426 320.595C336.126 321.395 338.959 322.773 340.488 323.627L339.62 325.425C330.219 321.562 323.568 320.735 318.251 321.635C312.935 322.535 308.811 325.18 304.475 328.57C303.967 328.967 303.445 329.375 302.907 329.791C284.894 343.72 278.645 355.145 277.272 364.105C276.018 372.291 278.787 378.6 280.846 383.29C281.045 383.743 281.237 384.182 281.419 384.606C281.781 385.45 282.078 386.168 282.287 386.784C282.495 387.395 282.64 387.969 282.656 388.513C282.673 389.089 282.546 389.615 282.248 390.105C281.965 390.568 281.56 390.946 281.11 391.292L280.414 391.828L279.793 391.207C278.389 389.804 277.172 387.484 276.152 384.818C275.12 382.123 274.247 378.96 273.583 375.766C272.919 372.571 272.459 369.322 272.26 366.452C272.152 364.889 272.119 363.414 272.179 362.108C257.847 375.415 245.94 383.594 222.803 390.953L221.667 391.314L221.509 390.133C221.294 388.527 220.836 386.352 220.536 385.266L220.259 384.263L221.273 384.026C245.381 378.404 260.471 366.056 274.279 351.939C277.72 348.304 281.19 344.43 284.251 340.97L284.266 340.953L284.281 340.937C286.475 338.673 288.517 336.502 290.437 334.461C292.744 332.01 294.873 329.747 296.874 327.736C300.564 324.027 303.959 321.024 307.521 319.006C311.111 316.973 314.861 315.945 319.236 316.158Z" fill="#FFDEC9"/>
<path fill-rule="evenodd" clip-rule="evenodd" d="M277.159 387.064C270.797 377.188 269.985 362.905 274.551 349.207L276.448 349.839C272.015 363.14 272.896 376.754 278.84 385.981L277.159 387.064Z" fill="#AA755E"/>
<path fill-rule="evenodd" clip-rule="evenodd" d="M289.02 437.432C290.382 439.404 291.89 440.86 293.432 441.598L292.567 443.402C290.593 442.456 288.843 440.695 287.374 438.569C285.898 436.432 284.658 433.859 283.731 431.19C282.803 428.52 282.177 425.724 281.945 423.131C281.714 420.553 281.865 418.103 282.558 416.164L284.441 416.836C283.884 418.397 283.719 420.526 283.937 422.953C284.153 425.365 284.739 428 285.62 430.534C286.501 433.068 287.665 435.472 289.02 437.432Z" fill="#AA755E"/>
<path fill-rule="evenodd" clip-rule="evenodd" d="M201.13 381.053C201.128 381.053 201.127 381.053 201.125 381.053L2 407.935V518.773C30.5699 511.451 58.7772 504.486 85.2622 497.946C111.637 491.433 136.305 485.343 157.921 479.741C179.715 474.093 198.343 468.959 212.394 464.417C219.42 462.146 225.284 460.029 229.82 458.075C234.117 456.224 237.128 454.56 238.819 453.105C238.833 452.248 238.804 451.337 238.733 450.377C238.085 441.52 234.025 428.917 229.702 415.525L229.7 415.518C227.756 409.497 225.767 403.336 224.039 397.338C222.865 393.264 222.421 389.954 222.074 387.364L222.073 387.355C221.849 385.682 221.672 384.379 221.382 383.327C221.091 382.273 220.714 381.584 220.16 381.1C219.601 380.612 218.747 380.232 217.308 380.03C214.374 379.617 209.501 379.997 201.13 381.053ZM238.604 455.77C236.647 457.098 233.942 458.477 230.611 459.912C225.993 461.901 220.063 464.04 213.009 466.32C198.899 470.881 180.224 476.027 158.422 481.677C136.844 487.269 112.137 493.37 85.7279 499.891C59.0652 506.475 30.6669 513.488 2 520.837V531.79C95.183 509.175 145.648 493.375 233.164 462.12L233.233 462.095L233.305 462.08C235.212 461.702 236.501 460.778 237.361 459.406C237.961 458.447 238.374 457.235 238.604 455.77ZM221.475 379.594C222.438 380.434 222.963 381.539 223.31 382.796C223.64 383.993 223.833 385.428 224.048 387.033L224.055 387.089C224.401 389.669 224.829 392.857 225.961 396.784C227.679 402.748 229.659 408.882 231.605 414.911L231.646 415.039C235.921 428.28 240.06 441.105 240.728 450.231C240.814 451.409 240.843 452.533 240.807 453.596C240.715 456.282 240.2 458.64 239.056 460.467C237.899 462.314 236.147 463.538 233.769 464.027C145.853 495.424 95.2636 511.244 1.23554 534.033L0 534.333V406.187L200.866 379.07L200.875 379.069C209.174 378.023 214.335 377.592 217.587 378.049C219.241 378.282 220.518 378.758 221.475 379.594Z" fill="#78687A"/>
<path d="M291 480C287.512 480 284.739 479.62 284 483.5L319.5 520.5H349L309.5 480H291Z" fill="#FDC802"/>
<path d="M339 480L379.5 520.5H387L345.5 480L339 480Z" fill="#FDC802"/>
<path d="M410.5 520.5L391.482 520.519C390.36 519.77 389.057 518.421 385.367 514.345C379.199 507.531 368.874 496.894 351.5 480H375.5L415 518.5C414.5 519.5 413.037 520.42 410.5 520.5Z" fill="#FDC802"/>
<path fill-rule="evenodd" clip-rule="evenodd" d="M285.095 483.197L319.926 519.5H346.628L309.078 481H291C290.686 481 290.389 480.997 290.103 480.994C289.559 480.989 289.059 480.985 288.572 481.001C287.842 481.025 287.253 481.094 286.773 481.248C286.312 481.395 285.963 481.615 285.688 481.95C285.463 482.225 285.253 482.617 285.095 483.197ZM290.18 478.995C290.455 478.997 290.73 479 291 479H309.922L351.372 521.5H319.074L282.921 483.82L283.018 483.313C283.224 482.231 283.588 481.357 284.142 480.682C284.703 479.997 285.404 479.585 286.165 479.342C286.907 479.106 287.711 479.028 288.506 479.002C289.034 478.984 289.607 478.99 290.18 478.995ZM345.907 479L389.456 521.5H379.086L336.586 479L345.907 479ZM341.414 481L379.914 519.5H384.544L345.093 481L341.414 481ZM349.037 479H375.907L416.221 518.294L415.894 518.947C415.159 520.419 413.243 521.414 410.531 521.499L410.516 521.5L391.18 521.519L390.928 521.351C389.675 520.516 388.275 519.046 384.626 515.016C378.479 508.226 368.171 497.605 350.803 480.717L349.037 479ZM353.961 481C370.281 496.909 380.132 507.071 386.109 513.674C389.546 517.47 390.838 518.813 391.797 519.518L410.483 519.5C412.131 519.446 413.118 519.016 413.652 518.583L375.093 481H353.961Z" fill="#FDC802"/>
<path d="M198.84 381L0.00022167 408V521.159C114.779 491.712 225.083 467.735 239.148 454.561C239.183 453.541 239.155 452.453 239.071 451.304C238.412 442.298 234.299 429.558 229.994 416.218C228.048 410.192 226.37 403.982 224.647 398C223.493 393.997 223.147 392 222.647 389.5C222.426 387.85 221.753 385.169 221.647 384C221.147 378.5 215.513 378.898 198.84 381Z" fill="#AF8ABD"/>
<path d="M0.00022167 534.5C94.0134 511.715 145.571 495.465 233.5 464.061C237.823 463.204 238.969 459.752 239.148 454.561C225.083 467.735 114.779 491.712 0.00022167 521.159V534.5Z" fill="#78687A"/>
<path d="M256.493 231.712C252.428 225.594 248.781 218.919 245.63 211.685C242.384 208.673 237.34 205.623 232 202.5C232.869 203.832 234.23 205.183 235.079 206.479L235.088 206.493C251.328 231.282 262.5 248.5 245 259.5C254.5 254.5 260.215 245.331 256.493 231.712Z" fill="#EB9016"/>
<path d="M232.5 74V59.4999C226.14 57.4208 219.572 56.3695 213 56.5C221.751 56.7316 222.077 70.2553 213 72C219.799 71.8245 226.451 72.1097 232.5 74Z" fill="#EB9016"/>
<path fill-rule="evenodd" clip-rule="evenodd" d="M256.281 231.391C252.348 225.433 248.811 218.948 245.741 211.938C245.704 211.854 245.667 211.769 245.63 211.685C243.36 209.579 240.211 207.454 236.696 205.298C235.184 204.371 233.606 203.439 232 202.5C232.439 203.173 233.004 203.851 233.565 204.524C234.114 205.183 234.659 205.838 235.079 206.479L235.088 206.493C235.149 206.586 235.21 206.679 235.271 206.772C246.916 224.55 255.898 238.419 253.449 248.881C252.503 252.918 249.855 256.448 245 259.5C249.488 257.138 253.131 253.845 255.334 249.593C257.794 244.844 258.457 238.897 256.493 231.712C256.422 231.605 256.351 231.498 256.281 231.391ZM254.646 232.545C250.661 226.514 247.078 219.957 243.968 212.876C242.69 211.73 241.129 210.567 239.365 209.379C246.307 220.028 252.173 229.468 254.612 237.592C255.025 238.967 255.346 240.323 255.558 241.657C255.797 238.947 255.535 235.917 254.646 232.545ZM230.5 60.9679C227.188 59.9698 223.827 59.2618 220.449 58.8646C221.267 60.3299 221.667 62.0034 221.685 63.6601C221.71 65.8474 221.058 68.1353 219.702 70.0176C223.373 70.1555 227.004 70.5439 230.5 71.3782V60.9679ZM232.5 59.4999C227.989 58.025 223.372 57.0673 218.723 56.6818C216.819 56.5239 214.91 56.4621 213 56.5C215.102 56.5556 216.718 57.378 217.834 58.6198C220.499 61.5846 220.316 66.9403 217.102 69.9592C216.057 70.9404 214.692 71.6748 213 72C214.623 71.9581 216.237 71.9424 217.837 71.9686C222.209 72.0401 226.472 72.4238 230.5 73.4373C231.173 73.6068 231.84 73.7938 232.5 74V59.4999Z" fill="#EB9016"/>
<path d="M307.702 461.5H393.5C392.188 459.812 390.475 457.817 389 456.5C358.446 456.46 328.223 456.43 315.5 451C315.798 449.965 311.32 457.358 307.702 461.5Z" fill="#EB9016"/>
<path d="M339 400C337.585 394.166 338.031 386.284 341 384C341.848 383.348 342.225 382.626 343.5 382.5C340.025 377.939 338.723 370.012 337.5 365C330.125 421.947 346.255 438.938 378 437C378.496 436.97 377.495 435.538 378 435.5C361.843 435.134 350.447 427.668 344 418.5C341.104 414.007 336.306 405.9 341 404.5C341.247 404.422 337.853 403.835 341.5 404.5C337.853 403.335 339.688 402.838 339 400Z" fill="#EB9016"/>
<path fill-rule="evenodd" clip-rule="evenodd" d="M339.136 402.84C339.113 402.632 339.128 402.402 339.146 402.135C339.18 401.603 339.224 400.926 339 400C337.585 394.166 338.031 386.284 341 384C341.222 383.83 341.411 383.654 341.593 383.486C341.622 383.459 341.652 383.432 341.681 383.405C342.16 382.964 342.613 382.588 343.5 382.5C343.078 381.947 342.689 381.344 342.328 380.703C340.705 377.824 339.652 374.174 338.83 370.765C338.574 369.703 338.34 368.665 338.119 367.681C337.904 366.727 337.701 365.824 337.5 365C337.239 367.015 337.007 368.979 336.805 370.895C335.265 385.472 335.408 397.207 337.08 406.511C337.506 408.877 338.03 411.087 338.651 413.145C343.83 430.318 355.719 437.011 372.848 437.144C373.934 437.152 375.041 437.135 376.168 437.091C376.761 437.069 377.361 437.039 377.965 437.002C377.977 437.001 377.988 437.001 378 437C378.05 436.997 378.086 436.979 378.108 436.95C378.12 436.935 378.128 436.917 378.133 436.896L378.128 436.695C378.116 436.63 378.096 436.559 378.073 436.484C378.051 436.411 378.025 436.335 377.999 436.258C377.993 436.244 377.988 436.229 377.983 436.214C377.97 436.175 377.957 436.136 377.944 436.098C377.862 435.843 377.806 435.613 377.91 435.531C377.932 435.514 377.962 435.503 378 435.5C377.969 435.499 377.938 435.499 377.908 435.498C377.529 435.489 377.152 435.475 376.779 435.458C376.474 435.445 376.171 435.428 375.869 435.409C374.888 435.348 373.925 435.259 372.981 435.146C359.463 433.518 349.758 426.688 344 418.5C342.908 416.806 341.546 414.599 340.524 412.431C339.479 410.213 338.789 408.035 339.109 406.492C339.138 406.353 339.175 406.22 339.22 406.093C339.254 405.997 339.293 405.904 339.337 405.814C339.36 405.769 339.383 405.724 339.408 405.681C339.699 405.17 340.171 404.778 340.865 404.543C340.909 404.528 340.954 404.514 341 404.5C341.02 404.493 341.015 404.483 340.991 404.47C340.991 404.47 340.99 404.47 340.991 404.47C340.969 404.459 340.931 404.445 340.883 404.431C340.602 404.345 339.951 404.216 339.823 404.191L339.8 404.186C339.8 404.186 339.811 404.188 339.836 404.193C339.933 404.211 340.239 404.269 340.889 404.388C340.915 404.393 340.942 404.398 340.969 404.403C340.969 404.403 340.97 404.403 340.971 404.403C341.128 404.432 341.304 404.464 341.5 404.5C341.298 404.435 341.113 404.373 340.944 404.312C340.942 404.312 340.941 404.311 340.94 404.311C340.926 404.306 340.913 404.301 340.899 404.296C340.024 403.978 339.57 403.701 339.341 403.392C339.278 403.306 339.231 403.217 339.198 403.124C339.166 403.034 339.147 402.939 339.136 402.84ZM337.809 384.918C338.289 383.957 338.927 383.071 339.781 382.415C339.913 382.313 340.036 382.202 340.211 382.04C340.223 382.029 340.234 382.018 340.246 382.007C340.341 381.92 340.459 381.811 340.592 381.696C339.655 380.035 338.913 378.187 338.304 376.333C338.061 379.332 337.897 382.192 337.809 384.918ZM356.542 432.132C352.974 430.572 349.911 428.375 347.356 425.469C349.984 427.998 353.049 430.265 356.542 432.132ZM315.5 451C315.536 450.875 315.502 450.873 315.408 450.974C315.232 451.164 314.841 451.72 314.305 452.502C314.276 452.543 314.248 452.585 314.219 452.628C314.082 452.827 313.937 453.04 313.783 453.265C312.604 454.992 310.967 457.391 309.335 459.5C308.784 460.212 308.234 460.891 307.702 461.5H393.5C393.002 460.86 392.447 460.175 391.869 459.5C390.923 458.396 389.916 457.318 389 456.5L388.824 456.5C358.33 456.46 328.199 456.42 315.5 451ZM388.211 458.499C373.212 458.479 358.261 458.451 345.457 457.768C333.382 457.125 322.93 455.891 316.118 453.394C315.921 453.681 315.697 454.008 315.451 454.37C315.226 454.699 314.981 455.057 314.719 455.44C313.885 456.655 312.886 458.092 311.843 459.5H389.189C388.858 459.144 388.529 458.807 388.211 458.499Z" fill="#EB9016"/>
<path fill-rule="evenodd" clip-rule="evenodd" d="M337.993 361.12C330.996 419.093 325.481 441.405 306.742 462.17L305.258 460.83C323.519 440.595 329.004 418.907 336.007 360.88L337.993 361.12Z" fill="#BD7A5D"/>
</svg>
