<svg width="50" height="50" viewBox="0 0 50 50" fill="none" xmlns="http://www.w3.org/2000/svg">
<path d="M50 25C50 38.8071 38.8071 50 25 50C11.1929 50 0 38.8071 0 25C0 11.1929 11.1929 0 25 0C38.8071 0 50 11.1929 50 25Z" fill="#FDC802"/>
<path fill-rule="evenodd" clip-rule="evenodd" d="M25 47C37.1503 47 47 37.1503 47 25C47 12.8497 37.1503 3 25 3C12.8497 3 3 12.8497 3 25C3 37.1503 12.8497 47 25 47ZM25 50C38.8071 50 50 38.8071 50 25C50 11.1929 38.8071 0 25 0C11.1929 0 0 11.1929 0 25C0 38.8071 11.1929 50 25 50Z" fill="url(#paint0_linear_433_468)"/>
<defs>
<linearGradient id="paint0_linear_433_468" x1="-19" y1="-51.5" x2="36.5" y2="50" gradientUnits="userSpaceOnUse">
<stop stop-color="white"/>
<stop offset="1" stop-color="white" stop-opacity="0"/>
</linearGradient>
</defs>
</svg>
