<svg width="340" height="108" viewBox="0 0 340 108" fill="none" xmlns="http://www.w3.org/2000/svg">
<g filter="url(#filter0_d_135_184)">
<path d="M60.2637 57.5563C60.068 55.3058 60.068 53.153 59.6766 50.9025C59.2852 49.1412 58.9916 47.282 58.7959 45.4228C58.8938 42.4873 59.2852 39.4539 59.1873 36.4206C59.5787 34.3657 59.4809 32.3108 58.9916 30.256C58.111 28.2011 55.8604 28.299 54.2948 29.571C50.87 32.1151 49.7937 37.6926 48.3259 41.5088C46.956 45.325 44.999 48.9455 42.5527 52.0767C41.0849 46.3035 40.2043 40.2368 38.443 34.5614C37.4645 31.6259 32.7676 24.2871 30.1257 29.6689C27.4837 35.0507 28.9515 42.0959 27.8751 47.8691C27.1902 51.2939 26.0159 54.7186 25.1353 58.0456C24.2546 60.4918 23.8632 63.1338 24.1568 65.7758C23.7654 68.222 23.8632 72.2339 27.3859 71.7447C30.2235 71.3533 31.3977 68.222 31.887 65.7758C32.5719 62.1553 32.3762 58.2413 32.7676 54.6208C32.8655 53.7401 33.0612 45.0314 35.3118 48.7498C35.801 50.1197 36.0946 51.6853 36.0946 53.153C36.1924 55.3058 36.6817 57.2628 37.4645 59.2198C38.5408 61.666 38.443 67.7328 42.7484 66.3629C46.271 65.2865 46.956 60.394 47.9345 57.5563C48.6194 55.5993 49.5001 53.838 50.1851 51.881C50.4786 50.6089 51.3593 49.5326 52.6313 49.0433C52.5335 50.2175 52.7292 51.3917 53.0227 52.5659C53.6098 56.6757 54.0012 60.8832 54.1969 65.0908C54.5883 67.9285 56.3496 73.6038 59.9701 69.8855C62.8078 66.95 60.5572 60.9811 60.2637 57.5563ZM140.435 57.9477C139.848 55.795 139.456 53.5444 139.26 51.2939C139.26 51.0003 139.26 50.7068 139.26 50.4132C139.26 49.5326 139.163 48.6519 138.967 47.8691C138.869 47.6734 138.771 47.3798 138.673 47.282C138.282 46.8906 138.184 46.4013 138.184 45.8142C138.086 44.4443 137.988 43.0744 137.988 41.7045C137.891 40.1389 137.793 38.3776 137.695 36.7141L137.597 35.9313C137.303 32.898 136.912 28.0054 134.564 26.2441C133.781 25.657 132.704 25.4613 131.824 25.7549C128.497 26.4398 127.91 30.7452 127.421 34.5614C127.323 35.9313 127.029 37.3991 126.638 38.769C126.148 40.1389 125.659 41.5088 125.072 42.7809C124.583 44.2486 123.996 45.6185 123.506 47.0863C123.409 47.282 123.311 47.5756 123.213 47.8691C122.919 49.5326 122.137 51.0003 120.962 52.1745L120.669 52.3702L120.473 52.0767C119.788 50.7068 119.299 49.239 119.005 47.7713C118.712 46.8906 118.516 46.0099 118.223 45.1293C117.342 42.7809 116.755 40.3346 116.363 37.7905C115.972 35.1485 115.483 32.5066 114.798 29.9624C114.7 29.571 114.602 29.0818 114.504 28.5925C114.309 26.8312 113.721 25.0699 112.645 23.7C112.254 23.2107 111.667 22.9172 110.982 22.9172C110.786 22.9172 110.492 23.015 110.297 23.015C108.535 23.7 107.165 25.1678 106.578 26.9291C106.089 29.0818 105.796 31.1366 105.796 33.2894C105.698 35.4421 105.404 37.6926 104.915 39.7475C104.328 42.0959 103.839 44.5422 103.545 46.9884C103.251 48.6519 102.958 50.3154 102.664 51.9788C101.784 56.0886 101.197 60.1983 100.805 64.308C100.707 64.8951 100.609 65.4822 100.512 66.1672C100.12 68.1242 99.6309 70.4726 100.414 71.6468C101.686 72.7232 103.447 73.2124 105.111 72.7232C106.383 71.9404 107.165 70.5704 107.165 69.1027C107.263 68.222 107.361 67.2435 107.361 66.265C107.361 65.4822 107.361 64.6994 107.459 63.9166C107.557 63.036 107.753 62.1553 108.046 61.2746C108.144 60.5897 108.34 59.9047 108.438 59.2198C108.633 58.0456 108.731 56.8714 108.829 55.5993C108.927 52.2724 109.71 49.0433 111.275 46.1078L111.667 45.5207L111.862 46.2056C112.645 48.5541 113.232 50.9025 113.819 53.3487C114.406 56.8714 115.483 60.1983 116.951 63.4274C117.44 64.5037 118.32 65.2865 119.495 65.5801C120.571 65.8736 121.745 65.6779 122.724 64.993C124.485 63.5252 125.757 61.4703 126.246 59.2198L126.344 58.9262C126.638 58.2413 126.931 57.4585 127.323 56.7735C127.714 56.1864 128.008 55.5015 128.203 54.9143C128.399 54.2294 128.595 53.5444 128.693 52.9573C128.888 52.1745 129.084 51.3917 129.28 50.7068C129.573 50.0218 130.062 48.9455 131.139 49.1412C132.313 49.3369 132.313 50.4132 132.313 51.0982C132.215 51.2939 132.215 51.4896 132.313 51.6853C132.313 52.1745 132.509 52.6638 132.704 53.153C132.9 53.6423 132.998 54.2294 133.096 54.7186C133.194 55.4036 133.194 56.0886 133.096 56.7735C133.096 57.4585 133.096 58.0456 133.096 58.7305C133.292 60.1004 133.585 61.4703 133.879 62.8403C134.074 64.1123 134.368 65.2865 134.466 66.5586C134.857 69.2005 136.031 70.179 138.576 69.7876C140.63 69.3962 142 67.5371 141.707 65.4822C141.609 62.9381 141.217 60.394 140.435 57.9477ZM178.832 40.8239C178.538 36.6163 176.777 32.7023 173.94 29.571C170.71 26.5377 167.971 23.8957 163.274 24.3849C155.054 25.657 148.303 31.3323 145.563 39.0625C143.704 43.7594 143.019 48.8476 143.508 53.838C143.899 56.8714 144.976 59.8069 146.835 62.2531C149.281 65.5801 152.804 69.4941 157.109 70.179C161.317 70.6683 165.622 69.7876 169.341 67.6349C173.548 65.1887 176.581 61.1768 177.854 56.48C179.028 51.2939 179.419 46.0099 178.832 40.8239ZM172.961 43.8572C171.787 50.8046 171.591 61.4703 162.98 63.5252C159.066 64.4059 155.25 61.7639 152.804 59.0241C150.064 56.1864 150.26 52.8595 150.651 49.239C151.14 42.9766 153.195 33.9743 160.24 31.9194C163.959 30.8431 166.307 33.4851 168.558 35.9313C170.319 37.9862 173.059 40.9217 172.961 43.7594V43.8572ZM207.186 59.8069C204.935 60.4918 202.684 60.7854 200.336 60.7854C198.183 60.8832 196.031 60.7854 193.878 60.7854C191.725 60.6875 190.942 59.709 190.649 57.5563C190.453 56.3821 190.649 55.1101 190.453 53.838C190.16 52.7616 189.866 51.5874 189.67 50.5111C189.67 48.2605 189.377 46.2056 189.377 43.9551C189.377 41.2153 189.083 38.3776 189.181 35.6378C189.475 32.9958 189.573 30.3538 189.475 27.8097C189.377 26.9291 188.985 26.2441 188.3 25.8527C187.616 25.3635 186.833 25.2656 186.05 25.4613C183.604 26.0484 181.842 28.3968 182.038 30.9409C182.038 33.8765 182.429 36.7141 182.332 39.6496C182.332 42.7809 182.332 45.9121 182.625 49.1412C183.017 54.2294 182.723 59.3176 182.821 64.5037C182.625 66.5586 183.506 68.5156 185.071 69.8855C187.224 71.3533 188.985 70.179 191.04 69.2005C194.661 68.1242 198.379 67.3414 202.097 66.95C205.522 66.1672 212.176 67.6349 211.785 62.2531C211.589 59.5133 209.436 59.2198 207.186 59.8069ZM247.729 40.8239C247.435 36.6163 245.674 32.7023 242.836 29.571C239.607 26.5377 236.867 23.8957 232.17 24.3849C223.951 25.657 217.199 31.3323 214.459 39.0625C212.6 43.7594 211.915 48.8476 212.405 53.838C212.796 56.8714 213.872 59.8069 215.732 62.2531C218.178 65.5801 221.7 69.4941 226.006 70.179C230.213 70.6683 234.519 69.7876 238.237 67.6349C242.445 65.1887 245.478 61.1768 246.75 56.48C247.924 51.2939 248.316 46.0099 247.729 40.8239ZM241.858 43.8572C240.683 50.8046 240.488 61.4703 231.877 63.5252C227.963 64.4059 224.147 61.7639 221.7 59.0241C218.961 56.1864 219.156 52.8595 219.548 49.239C220.037 42.9766 222.092 33.9743 229.137 31.9194C232.855 30.8431 235.204 33.4851 237.454 35.9313C239.216 37.9862 241.955 40.9217 241.858 43.7594V43.8572ZM280.681 47.1841C278.822 46.7927 276.474 48.3584 274.81 49.0433C272.951 49.8261 270.896 50.3154 268.841 50.5111C266.982 50.4132 265.221 50.9025 263.753 51.881C261.796 53.5444 261.6 57.3606 264.732 57.6542C267.471 57.5563 270.113 56.9692 272.658 55.9907C276.18 55.3057 276.082 57.6542 274.027 59.8069C272.168 61.9596 269.722 63.5252 266.884 64.308C262.872 64.1123 259.252 61.5682 257.784 57.8499C255.827 51.5874 257.001 44.7379 261.013 39.6496C263.362 36.7141 266.591 34.7571 270.211 33.8765C273.049 33.5829 278.724 37.0077 280.192 33.1915C281.66 29.6689 275.104 27.8097 272.658 27.1248C270.309 26.6355 267.863 26.7334 265.612 27.4183C263.557 27.9076 261.698 28.9839 260.23 30.4517C258.469 31.528 256.904 32.898 255.729 34.4636C254.751 36.127 253.968 37.9862 253.185 39.6496C251.62 42.4873 250.543 45.5207 249.956 48.5541C249.956 48.5541 250.054 58.1434 251.717 61.3725C252.305 63.3295 253.283 65.0908 254.653 66.4607C256.219 67.8306 257.98 68.8091 259.839 69.5919C263.264 71.1576 267.08 71.3533 270.505 70.0812C273.734 69.1027 276.572 67.0478 278.626 64.4059C279.898 62.0574 280.975 59.709 281.953 57.2628C282.247 56.3821 282.54 55.5015 282.736 54.6208C283.03 53.153 284.4 51.4896 284.204 50.0218C284.106 48.7498 281.953 47.3798 280.681 47.1841ZM314.695 22.0365C312.151 17.2419 306.867 21.9387 305.987 25.657C305.693 27.7119 305.302 29.7667 304.617 31.7237C303.834 33.7786 303.051 35.7356 302.073 37.6926C301.29 39.5518 299.235 47.1842 296.495 42.8787C295.321 40.2368 294.538 37.3991 294.245 34.4636C293.755 32.8001 293.168 31.1366 292.483 29.571C291.505 27.0269 289.352 21.9387 285.829 24.1892C280.545 27.4183 285.536 35.7356 286.71 39.9432C286.808 41.3131 287.199 42.683 288.08 43.8572C288.961 44.8357 289.841 45.9121 290.624 47.0863C292.19 49.6304 293.364 52.3702 294.049 55.3058C294.734 60.0026 291.505 65.5801 289.254 69.5919C287.884 72.2339 286.025 77.1264 289.254 79.377C290.135 79.9641 291.309 80.1598 292.385 79.8663C293.462 79.5727 294.342 78.8878 294.832 77.9092C296.006 76.1479 295.712 73.8974 296.887 72.1361C297.865 70.0812 298.159 67.7328 299.137 65.5801C299.724 64.1123 300.116 62.5467 300.703 61.0789C302.66 56.48 305.987 53.0552 306.965 48.0648C307.944 43.9551 309.216 39.9432 310.683 36.127C311.466 32.9958 312.64 30.0603 314.108 27.2226C315.38 25.1678 315.967 24.2871 314.695 22.0365Z" fill="#D62D30"/>
<path fill-rule="evenodd" clip-rule="evenodd" d="M64.2487 57.2098L64.2491 57.2147C64.3009 57.819 64.448 58.6051 64.6695 59.7633L64.6731 59.7819C64.8761 60.843 65.1267 62.1532 65.2685 63.479C65.5273 65.8991 65.6132 69.8032 62.8462 72.6656L62.8411 72.6708L62.8361 72.676C61.5473 73.9996 59.6635 75.279 57.2822 75.0917C54.9155 74.9056 53.4122 73.3756 52.626 72.2831C51.1025 70.1661 50.4561 67.2436 50.2345 65.6374L50.2098 65.4578L50.2013 65.2766C50.1788 64.7929 50.1537 64.3093 50.1259 63.8259C50.0762 63.9492 50.025 64.0725 49.9722 64.1958C49.0858 66.2639 47.3932 69.1163 43.9394 70.1815C41.9826 70.7986 39.8592 70.7271 38.0181 69.4828C36.9387 68.7533 36.2223 67.7898 35.7376 66.9043C35.4355 68.2948 34.9021 70.0587 33.9112 71.6475C32.7992 73.4306 30.8938 75.2973 27.9362 75.7066C26.2817 75.9364 24.5511 75.6825 23.0613 74.6497C21.6334 73.6598 20.8919 72.275 20.5089 71.1259C19.8716 69.214 19.9455 67.1332 20.1295 65.6848C19.8724 62.6109 20.3476 59.6045 21.3116 56.8601C21.6665 55.5294 22.026 54.3058 22.371 53.1312C22.9742 51.0782 23.5333 49.1749 23.9476 47.111C24.2881 45.2689 24.3207 43.3434 24.3597 41.0347C24.3732 40.2388 24.3874 39.3974 24.4153 38.4982C24.515 35.2816 24.8084 31.4234 26.5351 27.9062C27.5311 25.8773 29.373 23.8325 32.2914 23.7516C34.7463 23.6836 36.6175 25.1132 37.6476 26.0814C39.8419 28.1438 41.5789 31.3199 42.2378 33.2965L42.251 33.336L42.2633 33.3758C43.0561 35.9304 43.6727 38.53 44.2229 41.0612C44.3397 40.7616 44.4525 40.4602 44.5612 40.1573L44.5764 40.1149L44.5926 40.0729C44.8837 39.3159 45.1611 38.4697 45.4897 37.4671C45.5244 37.3612 45.5597 37.2534 45.5957 37.1439C45.9563 36.0454 46.3712 34.799 46.8655 33.5702C47.811 31.2195 49.2599 28.3586 51.8437 26.4094C53.2456 25.2955 55.1645 24.505 57.237 24.6801C59.5856 24.8786 61.6484 26.3007 62.6683 28.6803L62.8034 28.9957L62.8829 29.3295C63.4524 31.7211 63.6094 34.198 63.1963 36.7198C63.2266 38.2869 63.1482 39.811 63.0566 41.218C63.0284 41.6522 62.9995 42.0688 62.9714 42.4731C62.9032 43.4561 62.84 44.3665 62.8038 45.2801C62.9848 46.9113 63.2454 48.5226 63.5814 50.0347L63.6016 50.1255L63.6175 50.2171C63.9187 51.949 64.032 53.835 64.1273 55.4219C64.1668 56.0801 64.2032 56.6868 64.2487 57.2098ZM58.796 45.4228C58.8321 44.3381 58.9084 43.24 58.9852 42.1334C59.1163 40.2455 59.2491 38.333 59.1874 36.4206C59.5788 34.3657 59.4809 32.3108 58.9917 30.256C58.111 28.2011 55.8605 28.299 54.2949 29.571C51.6395 31.5436 50.3959 35.3397 49.287 38.7245C48.9657 39.7052 48.6557 40.6515 48.326 41.5088C47.5819 43.5816 46.6646 45.5967 45.5898 47.5069C44.6858 49.1136 43.6703 50.6462 42.5528 52.0767C42.1123 50.3442 41.7248 48.5854 41.3504 46.8186C41.2226 46.2153 41.0963 45.6112 40.97 45.0069C40.2333 41.4827 39.4954 37.9522 38.4431 34.5614C37.4646 31.6259 32.7677 24.2871 30.1258 29.6689C28.4949 32.9909 28.43 36.9469 28.3661 40.8462C28.3264 43.2637 28.2871 45.6596 27.8752 47.8691C27.4308 50.0909 26.7806 52.3126 26.1381 54.5077C25.7903 55.6962 25.4447 56.8769 25.1354 58.0456C24.2547 60.4918 23.8633 63.1338 24.1569 65.7758C23.7655 68.222 23.8633 72.2339 27.3859 71.7446C30.2236 71.3532 31.3978 68.222 31.8871 65.7758C32.2969 63.6094 32.3915 61.3379 32.4851 59.0872C32.5146 58.3793 32.544 57.6735 32.5831 56.9736C32.6274 56.1798 32.6842 55.3936 32.7677 54.6208C32.7793 54.5167 32.7922 54.3032 32.8098 54.0137C32.8221 53.8097 32.8368 53.568 32.8548 53.3003C32.8581 53.252 32.8614 53.2029 32.8649 53.153C32.8981 52.6788 32.9418 52.1344 33.0019 51.5788C33.0591 51.0505 33.131 50.5121 33.2225 50.0143C33.2582 49.8206 33.2968 49.6329 33.3387 49.4544C33.697 47.9275 34.2945 47.0689 35.3118 48.7497C35.6119 49.5899 35.8383 50.5036 35.9686 51.4232C36.0507 52.0031 36.0946 52.5854 36.0946 53.153C36.1233 53.784 36.1856 54.3981 36.2791 55.0004C36.2796 55.004 36.2802 55.0075 36.2808 55.0111C36.3659 55.5573 36.4766 56.0936 36.6111 56.624C36.8334 57.5003 37.1207 58.36 37.4646 59.2198C37.7311 59.8257 37.9257 60.6536 38.133 61.5357C38.7626 64.215 39.5094 67.3935 42.7485 66.3629C45.6246 65.484 46.6091 62.0613 47.4061 59.29C47.5853 58.6671 47.755 58.0771 47.9346 57.5563C48.277 56.5778 48.6684 55.6482 49.0599 54.7186C49.1156 54.5862 49.1713 54.4538 49.227 54.3213C49.3522 54.0227 49.4767 53.7235 49.5989 53.4219C49.6513 53.2927 49.7032 53.163 49.7546 53.0328C49.9038 52.6546 50.0484 52.2717 50.1851 51.881C50.4787 50.6089 51.3593 49.5326 52.6314 49.0433C52.5344 50.2069 52.7257 51.3704 53.0148 52.534C53.0175 52.5446 53.0201 52.5553 53.0228 52.5659C53.0382 52.674 53.0535 52.782 53.0687 52.8902C53.1607 53.5464 53.2477 54.2051 53.3297 54.8658C53.7486 58.2389 54.0377 61.6649 54.197 65.0908C54.5884 67.9285 56.3497 73.6038 59.9702 69.8855C62.11 67.6719 61.3566 63.7336 60.7307 60.4619C60.5265 59.3948 60.3359 58.3986 60.2638 57.5563C60.1992 56.8137 60.1559 56.0817 60.1129 55.3533C60.0254 53.8744 59.9389 52.4104 59.6766 50.9025C59.2852 49.1411 58.9917 47.282 58.796 45.4228ZM134.466 66.5586C134.402 65.7339 134.257 64.9504 134.109 64.1547C134.029 63.723 133.948 63.2877 133.879 62.8402C133.585 61.4703 133.292 60.1004 133.096 58.7305V56.7735C133.194 56.0885 133.194 55.4036 133.096 54.7186C133.082 54.6502 133.069 54.5798 133.055 54.508C132.975 54.1013 132.888 53.6504 132.743 53.2526C132.73 53.219 132.718 53.1857 132.705 53.153C132.632 52.9725 132.56 52.7919 132.498 52.6114C132.429 52.4139 132.373 52.2163 132.341 52.0188C132.323 51.9076 132.313 51.7964 132.313 51.6853C132.292 51.6433 132.276 51.6013 132.264 51.5593C132.22 51.4056 132.236 51.2519 132.313 51.0982C132.313 50.4132 132.313 49.3369 131.139 49.1412C130.488 49.0228 130.052 49.3695 129.744 49.8135C129.542 50.1039 129.396 50.4359 129.28 50.7068C129.243 50.8341 129.207 50.9647 129.171 51.0982C129.119 51.2889 129.067 51.4852 129.015 51.6853C128.975 51.8377 128.936 51.9923 128.896 52.1483C128.828 52.4153 128.76 52.6863 128.693 52.9573C128.676 53.056 128.657 53.1575 128.635 53.2613C128.619 53.3388 128.602 53.4175 128.584 53.4974C128.48 53.9467 128.342 54.4305 128.203 54.9143C128.008 55.5014 127.714 56.1864 127.323 56.7735C127.02 57.3031 126.776 57.8912 126.545 58.4474C126.477 58.6105 126.411 58.7709 126.344 58.9262L126.246 59.2198C125.757 61.4703 124.485 63.5252 122.724 64.993C121.745 65.6779 120.571 65.8736 119.495 65.5801C118.321 65.2865 117.44 64.5037 116.951 63.4273C115.483 60.1983 114.406 56.8713 113.819 53.3487C113.68 52.7665 113.54 52.1899 113.398 51.6175C112.974 49.913 112.526 48.246 111.986 46.5816C111.974 46.5434 111.961 46.5052 111.949 46.4669C111.92 46.3798 111.891 46.2927 111.862 46.2056L111.667 45.5207L111.275 46.1078C111.22 46.2115 111.166 46.3155 111.112 46.4199C111.105 46.4343 111.098 46.4486 111.09 46.463C110.25 48.1176 109.653 49.8615 109.283 51.6606C109.017 52.9494 108.868 54.2665 108.829 55.5993C108.731 56.8713 108.633 58.0456 108.438 59.2198C108.389 59.5622 108.315 59.9047 108.242 60.2472C108.168 60.5897 108.095 60.9321 108.046 61.2746C107.753 62.1553 107.557 63.0359 107.459 63.9166C107.361 64.6994 107.361 65.4822 107.361 66.265C107.361 67.2435 107.263 68.222 107.166 69.1027C107.166 70.5704 106.383 71.9403 105.111 72.7232C103.447 73.2124 101.686 72.7232 100.414 71.6468C99.6455 70.4943 100.103 68.2105 100.49 66.2759L100.512 66.1672C100.61 65.4822 100.707 64.8951 100.805 64.308C101.197 60.1983 101.784 56.0885 102.664 51.9788L103.545 46.9884C103.839 44.5422 104.328 42.0959 104.915 39.7475C105.404 37.6926 105.698 35.4421 105.796 33.2893C105.796 31.1366 106.089 29.0818 106.578 26.9291C107.166 25.1677 108.535 23.7 110.297 23.015C110.395 23.015 110.517 22.9906 110.639 22.9661C110.762 22.9416 110.884 22.9172 110.982 22.9172C111.667 22.9172 112.254 23.2107 112.645 23.7C113.722 25.0699 114.309 26.8312 114.504 28.5925C114.602 29.0818 114.7 29.571 114.798 29.9624C115.483 32.5065 115.972 35.1485 116.363 37.7905C116.755 40.3346 117.342 42.7809 118.223 45.1293C118.369 45.5696 118.492 46.0099 118.614 46.4503C118.736 46.8906 118.859 47.3309 119.005 47.7712C119.019 47.8391 119.033 47.9069 119.047 47.9748C119.213 48.7546 119.434 49.5332 119.71 50.2958C119.837 50.6475 119.977 50.9959 120.127 51.3394C120.237 51.5879 120.352 51.8338 120.473 52.0767L120.669 52.3702L120.962 52.1745C121.163 51.9744 121.351 51.7659 121.528 51.5492C121.625 51.431 121.718 51.3104 121.807 51.1875C122.483 50.2583 122.952 49.1967 123.182 48.0368C123.193 47.9811 123.203 47.9252 123.213 47.8691C123.311 47.5756 123.409 47.2819 123.507 47.0863C123.751 46.3524 124.02 45.643 124.289 44.9336C124.558 44.2242 124.828 43.5147 125.072 42.7809C125.659 41.5089 126.148 40.139 126.638 38.7692C127.029 37.3993 127.323 35.9313 127.421 34.5614C127.91 30.7452 128.497 26.4398 131.824 25.7548C132.705 25.4613 133.781 25.657 134.564 26.2441C136.831 27.9449 137.274 32.5652 137.566 35.612C137.577 35.7205 137.587 35.827 137.597 35.9313L137.695 36.7141C137.728 37.2691 137.76 37.835 137.793 38.4009C137.858 39.5311 137.923 40.6612 137.988 41.7045C137.988 43.0744 138.086 44.4443 138.184 45.8142C138.184 46.4013 138.282 46.8906 138.673 47.282C138.739 47.3472 138.804 47.4994 138.869 47.6516C138.902 47.7277 138.934 47.8039 138.967 47.8691C139.163 48.6519 139.261 49.5326 139.261 50.4132V51.2939C139.302 51.7711 139.352 52.2483 139.411 52.7246C139.473 53.224 139.545 53.7223 139.626 54.2185C139.633 54.2578 139.639 54.2971 139.646 54.3363C139.85 55.5588 140.113 56.7679 140.435 57.9477C140.646 58.6083 140.829 59.276 140.985 59.9489C141.408 61.768 141.635 63.6251 141.707 65.4822C142 67.5371 140.63 69.3962 138.576 69.7876C136.031 70.179 134.857 69.2005 134.466 66.5586ZM145.661 67.2076C145.17 70.4566 142.649 73.0837 139.324 73.717L139.254 73.7303L139.184 73.7411C137.427 74.0114 135.147 73.9728 133.222 72.4397C131.373 70.9675 130.757 68.8206 130.509 67.1448L130.488 67.0056L130.478 66.8653C130.428 66.2191 130.343 65.7741 130.226 65.167C130.146 64.7496 130.052 64.2556 129.944 63.5668C129.833 63.0492 129.717 62.5089 129.605 61.9533C128.724 64.3372 127.215 66.4571 125.285 68.0658L125.155 68.1735L125.018 68.2699C123.095 69.6154 120.716 70.0457 118.484 69.4504C116.067 68.833 114.263 67.1805 113.309 65.0826C112.835 64.0387 112.396 62.981 111.996 61.907L111.955 62.1974L111.841 62.5395C111.632 63.1656 111.5 63.7706 111.435 64.3583L111.432 64.3856L111.428 64.4127C111.366 64.9077 111.361 65.4417 111.361 66.265C111.361 67.4007 111.256 68.4938 111.162 69.359C111.074 72.1595 109.552 74.6869 107.207 76.1298L106.752 76.4098L106.239 76.5606C103.117 77.4789 99.9878 76.5261 97.8301 74.7003L97.3989 74.3355L97.0856 73.8656C95.8948 72.0794 95.9516 69.9953 96.0336 68.9014C96.1234 67.7041 96.3754 66.449 96.5555 65.5513C96.5598 65.5303 96.564 65.5094 96.5681 65.4888C96.6597 64.8567 96.7509 64.3034 96.8367 63.7879C97.2378 59.6234 97.8378 55.4285 98.7378 51.2127L99.5871 46.3999C99.9053 43.7968 100.422 41.2287 101.029 38.8C101.444 37.049 101.705 35.0906 101.796 33.1922C101.805 30.7004 102.149 28.3693 102.678 26.0426L102.721 25.8508L102.784 25.6641C103.741 22.7933 105.958 20.4107 108.847 19.287L109.546 19.015H110.002C110.059 19.0044 110.126 18.9924 110.196 18.9814C110.279 18.9683 110.387 18.9529 110.512 18.9407C110.634 18.9286 110.795 18.9172 110.982 18.9172C112.87 18.9172 114.611 19.7542 115.769 21.2012L115.78 21.2149L115.79 21.2287C117.398 23.2751 118.183 25.724 118.458 27.9654C118.543 28.3886 118.61 28.715 118.671 28.962C119.403 31.6913 119.916 34.4798 120.319 37.1928C120.554 38.718 120.861 40.1741 121.259 41.5697C121.265 41.5518 121.271 41.5339 121.277 41.5159L121.348 41.3058L121.44 41.1046C121.924 40.0564 122.344 38.899 122.825 37.5507C123.142 36.4163 123.36 35.2724 123.431 34.2764L123.439 34.1643L123.468 33.9385C123.697 32.1485 124.013 29.6808 124.82 27.5611C125.659 25.3555 127.369 22.6836 130.803 21.8839C132.956 21.2586 135.277 21.7788 136.964 23.0441C139.345 24.8302 140.285 27.7385 140.745 29.696C141.209 31.6713 141.409 33.7655 141.545 35.2011C141.555 35.301 141.564 35.3978 141.573 35.491L141.68 36.3482L141.688 36.4792C141.714 36.9148 141.739 37.3539 141.764 37.7924C141.782 37.7473 141.8 37.7022 141.817 37.6571C145.06 28.5878 153 21.9272 162.662 20.432L162.76 20.4168L162.859 20.4065C169.342 19.7312 173.314 23.4803 176.291 26.2908C176.422 26.4143 176.551 26.5361 176.678 26.6556L176.796 26.7658L176.904 26.8849C177.379 27.4091 177.829 27.9528 178.254 28.5143C179.03 25.1479 181.683 22.4032 185.099 21.5761C186.798 21.1561 188.742 21.3285 190.463 22.4852C192.364 23.6534 193.249 25.5595 193.45 27.368L193.466 27.5116L193.472 27.656C193.576 30.3547 193.475 33.1415 193.174 35.9223C193.139 37.0762 193.18 38.2868 193.238 39.6211C193.247 39.813 193.256 40.0084 193.265 40.2067C193.318 41.394 193.377 42.6853 193.377 43.9551C193.377 44.9229 193.44 45.8662 193.514 46.961L193.518 47.012C193.582 47.9494 193.654 49.0037 193.668 50.1213C193.832 50.951 194.064 51.8734 194.312 52.7855L194.372 53.005L194.407 53.2298C194.552 54.1738 194.551 55.0749 194.551 55.6558L194.551 55.7338C194.551 56.3059 194.558 56.5912 194.579 56.788C195.167 56.7922 195.721 56.8008 196.255 56.8092C197.607 56.8304 198.833 56.8496 200.155 56.7895L200.245 56.7854H200.336C202.339 56.7854 204.192 56.5368 206.021 55.9802L206.098 55.9567L206.176 55.9364C206.856 55.7589 207.703 55.5926 208.625 55.5604C208.552 55.1573 208.49 54.7536 208.438 54.3499L208.43 54.2892L208.424 54.2283C207.876 48.6425 208.636 42.9393 210.714 37.6571C213.957 28.5878 221.897 21.9272 231.559 20.432L231.657 20.4168L231.756 20.4065C238.239 19.7312 242.21 23.4803 245.188 26.2907C245.319 26.4143 245.448 26.5361 245.575 26.6556L245.692 26.7658L245.8 26.8849C248.035 29.3512 249.734 32.2482 250.738 35.41C251.201 34.4302 251.719 33.3928 252.282 32.4355L252.395 32.2426L252.529 32.0636C253.953 30.1659 255.769 28.554 257.751 27.2846C259.631 25.5181 261.966 24.1982 264.564 23.5566C267.444 22.7021 270.528 22.5953 273.473 23.2088L273.606 23.2364L273.802 23.2912C274.996 23.6254 277.65 24.368 279.854 25.6077C279.871 25.6174 279.888 25.6273 279.906 25.6372C280.505 23.7377 281.725 22.0204 283.711 20.7962C285.392 19.7337 287.34 19.3212 289.3 19.8722C291.091 20.3756 292.356 21.5379 293.172 22.5073C294.725 24.3547 295.702 26.8007 296.185 28.0523C296.932 29.7714 297.562 31.5668 298.082 33.3349L298.188 33.6935L298.225 34.0655C298.287 34.6872 298.375 35.3049 298.488 35.9173L298.495 35.9038C299.374 34.1467 300.094 32.3574 300.858 30.3532C301.408 28.7676 301.751 27.0233 302.027 25.0913L302.053 24.9117L302.094 24.7351C302.791 21.7949 305.016 18.7954 307.673 17.216C309.058 16.3928 311.009 15.696 313.18 16.1364C315.479 16.6026 317.152 18.1589 318.203 20.1127C319.063 21.647 319.679 23.4156 319.283 25.463C318.992 26.965 318.154 28.3007 317.647 29.1082C317.627 29.1394 317.608 29.1699 317.589 29.1995C316.275 31.7629 315.248 34.363 314.564 37.0972L314.505 37.3345L314.417 37.5629C313.016 41.2046 311.805 45.0216 310.874 48.919C310.245 52.0491 308.904 54.5953 307.656 56.7341C307.327 57.2984 307.013 57.8221 306.714 58.3207C305.806 59.8361 305.037 61.1193 304.401 62.6037C304.173 63.1778 303.973 63.794 303.727 64.5575L303.71 64.6082C303.476 65.3339 303.196 66.2033 302.851 67.0656L302.817 67.1513L302.779 67.2353C302.434 67.9934 302.192 68.8242 301.858 69.9936L301.839 70.0586C301.537 71.1183 301.14 72.5081 300.498 73.8558L300.374 74.1155L300.215 74.3548C300.112 74.5091 300.012 74.7596 299.766 75.8803C299.756 75.9271 299.745 75.9763 299.734 76.0278C299.543 76.9092 299.207 78.4583 298.293 79.9215C297.237 81.8736 295.447 83.1773 293.438 83.7253C291.263 84.3184 288.894 83.9439 287.035 82.7052L287.001 82.6823L286.967 82.6586C283.615 80.3225 283.237 76.6873 283.561 74.1286C283.881 71.6018 284.939 69.2253 285.703 67.7507L285.733 67.6923L285.927 67.3478C287.039 65.3669 288.196 63.3048 289.044 61.2075C289.916 59.0486 290.256 57.3222 290.11 56.0312C289.679 54.2545 289.034 52.5492 288.193 50.9131C288.068 52.2711 287.562 53.3879 287.309 53.9456L287.297 53.9722C287.173 54.246 287.09 54.4209 287.021 54.5682C286.94 54.7383 286.877 54.8715 286.788 55.0774C286.683 55.3216 286.657 55.4162 286.656 55.416L286.65 55.447L286.641 55.4885C286.4 56.5728 286.051 57.6206 285.773 58.4527L285.711 58.6392L285.667 58.7483C284.64 61.3171 283.499 63.8081 282.144 66.311L281.986 66.6011L281.784 66.8616C279.288 70.0702 275.817 72.6222 271.781 73.8735C267.357 75.481 262.513 75.1954 258.233 73.2555C256.128 72.3646 253.982 71.1885 252.019 69.471L251.919 69.3833L251.825 69.2891C250.118 67.5827 248.913 65.5079 248.143 63.3126C246.226 66.4931 243.534 69.1825 240.248 71.0929L240.241 71.0966C235.776 73.6818 230.605 74.7408 225.544 74.1523L225.46 74.1426L225.377 74.1294C222.231 73.6287 219.608 71.9945 217.567 70.2423C216.424 69.2618 215.391 68.1822 214.475 67.1121C214.266 67.4056 214.031 67.6872 213.767 67.955C212.316 69.4276 210.478 69.9873 209.148 70.2503C207.843 70.5081 206.458 70.5789 205.437 70.6312L205.317 70.6374C204.11 70.6995 203.435 70.7473 202.989 70.8494L202.755 70.9029L202.516 70.928C199.177 71.2795 195.808 71.9751 192.495 72.9418C192.455 72.9618 192.413 72.9828 192.37 73.0046C191.597 73.3909 190.284 74.0473 189.028 74.3495C187.083 74.8172 184.924 74.6261 182.818 73.1904L182.619 73.0546L182.437 72.8958C180.077 70.8302 178.582 67.7583 178.818 64.378C178.816 64.253 178.814 64.1286 178.812 64.0047C176.931 66.8836 174.396 69.3226 171.351 71.0929L171.345 71.0966C166.879 73.6818 161.709 74.7408 156.647 74.1523L156.564 74.1426L156.481 74.1294C153.334 73.6287 150.712 71.9945 148.67 70.2423C147.561 69.2909 146.556 68.2463 145.661 67.2076ZM178.752 51.3302C178.827 50.7125 178.891 50.0943 178.942 49.476C178.944 49.4587 178.945 49.4414 178.946 49.4241C179.182 46.5495 179.155 43.6719 178.832 40.8238C178.805 40.4297 178.764 40.0382 178.711 39.6496C178.706 39.6092 178.7 39.5688 178.694 39.5284C178.605 38.9065 178.484 38.2924 178.332 37.6876C177.576 34.6816 176.058 31.9082 173.94 29.571L173.808 29.4478C170.636 26.4666 167.907 23.9023 163.274 24.3849C155.054 25.657 148.303 31.3323 145.563 39.0625C143.886 43.2985 143.165 47.8528 143.398 52.3666C143.423 52.8577 143.46 53.3483 143.508 53.838C143.636 54.8303 143.837 55.8122 144.116 56.7699C144.131 56.8236 144.147 56.8773 144.163 56.9309C144.345 57.538 144.559 58.135 144.804 58.7184C145.331 59.9709 146.005 61.1608 146.835 62.2531C149.281 65.5801 152.804 69.4941 157.109 70.179C161.317 70.6683 165.622 69.7876 169.341 67.6349C173.548 65.1887 176.582 61.1768 177.854 56.4799C178.24 54.7717 178.542 53.0527 178.752 51.3302ZM172.961 43.7594C173.052 41.1289 170.704 38.4144 168.958 36.3952C168.82 36.2361 168.686 36.0814 168.558 35.9313L168.444 35.8075C166.228 33.397 163.896 30.8612 160.24 31.9194C153.195 33.9743 151.14 42.9766 150.651 49.239C150.26 52.8595 150.064 56.1864 152.804 59.0241C155.25 61.7639 159.066 64.4058 162.98 63.5252C170.43 61.7473 171.581 53.5236 172.517 46.8392C172.662 45.7978 172.803 44.7937 172.961 43.8572V43.7594ZM168.959 43.5391C168.932 43.3081 168.775 42.7449 168.124 41.7636C167.514 40.8445 166.771 39.9837 165.962 39.0469C165.832 38.8963 165.7 38.7438 165.567 38.5887C164.358 37.2754 163.601 36.4778 162.832 35.9981C162.294 35.6622 161.943 35.5917 161.357 35.7604C159.394 36.3344 157.837 37.9251 156.645 40.6196C155.448 43.3259 154.867 46.6373 154.639 49.5506L154.634 49.6098L154.628 49.6689C154.227 53.3755 154.362 54.8786 155.681 56.2457L155.736 56.3018L155.788 56.36C156.777 57.468 157.964 58.4588 159.16 59.0697C160.33 59.667 161.29 59.7988 162.08 59.6278C164.481 59.0445 165.924 57.3631 166.967 54.2537C167.771 51.8582 168.124 49.3309 168.499 46.6478C168.641 45.6342 168.786 44.5984 168.959 43.5391ZM182.316 37.1463C182.348 37.9758 182.36 38.8087 182.332 39.6496C182.332 39.909 182.332 40.1683 182.332 40.4277C182.332 40.4783 182.332 40.529 182.332 40.5797C182.335 43.4018 182.361 46.2317 182.625 49.1412C182.685 49.9242 182.729 50.7073 182.761 51.4908C182.86 53.9442 182.839 56.4011 182.818 58.8725C182.802 60.7397 182.785 62.6152 182.821 64.5037C182.625 66.5586 183.506 68.5156 185.071 69.8855C186.993 71.1958 188.603 70.4006 190.388 69.5187C190.603 69.4127 190.82 69.3055 191.04 69.2005C194.661 68.1242 198.379 67.3414 202.097 66.95C202.957 66.7535 204.02 66.6988 205.124 66.642C208.033 66.4923 211.226 66.328 211.732 63.5167C211.799 63.1441 211.819 62.7249 211.785 62.2531C211.669 60.6275 210.863 59.8631 209.758 59.6328C209 59.475 208.101 59.5681 207.186 59.8069C204.935 60.4918 202.685 60.7854 200.336 60.7854C198.901 60.8506 197.466 60.8289 196.031 60.8071C195.313 60.7962 194.596 60.7854 193.878 60.7854C191.725 60.6875 190.943 59.709 190.649 57.5563C190.551 56.9692 190.551 56.3576 190.551 55.7338C190.551 55.11 190.551 54.474 190.453 53.838C190.16 52.7616 189.866 51.5874 189.67 50.5111C189.67 49.3858 189.597 48.3094 189.524 47.2331C189.45 46.1567 189.377 45.0803 189.377 43.9551C189.377 42.7834 189.323 41.5938 189.269 40.4017C189.197 38.8061 189.125 37.2059 189.181 35.6378C189.475 32.9958 189.573 30.3538 189.475 27.8097C189.377 26.9291 188.985 26.2441 188.301 25.8527C187.616 25.3634 186.833 25.2656 186.05 25.4613C183.604 26.0484 181.842 28.3968 182.038 30.9409C182.038 32.2478 182.116 33.5352 182.193 34.8205C182.24 35.5953 182.286 36.3693 182.316 37.1463ZM215.529 61.9808C215.53 61.9823 215.532 61.9839 215.533 61.9854C215.598 62.0753 215.664 62.1645 215.732 62.2531C215.752 62.2815 215.773 62.31 215.795 62.3385C218.238 65.6467 221.737 69.4999 226.006 70.179C230.213 70.6683 234.519 69.7876 238.237 67.6349C242.245 65.3049 245.187 61.5546 246.557 57.145C246.625 56.9249 246.69 56.7032 246.75 56.4799C247.343 53.8615 247.736 51.2181 247.905 48.575C247.914 48.4372 247.922 48.2995 247.929 48.1618C248.048 45.9949 248.015 43.8291 247.817 41.6782C247.79 41.3932 247.761 41.1084 247.729 40.8238C247.435 36.6163 245.674 32.7022 242.836 29.571L242.705 29.4478C239.532 26.4666 236.804 23.9023 232.171 24.3849C223.951 25.657 217.199 31.3323 214.46 39.0625C212.6 43.7594 211.915 48.8476 212.405 53.838C212.532 54.8238 212.731 55.7992 213.007 56.7509C213.547 58.6197 214.38 60.397 215.529 61.9808ZM241.858 43.7594C241.948 41.1289 239.601 38.4144 237.854 36.3952C237.717 36.2361 237.583 36.0814 237.454 35.9313L237.341 35.8075C235.124 33.3971 232.793 30.8612 229.137 31.9194C222.092 33.9743 220.037 42.9766 219.548 49.239C219.156 52.8595 218.961 56.1864 221.7 59.0241C224.147 61.7639 227.963 64.4058 231.877 63.5252C239.327 61.7473 240.478 53.5236 241.413 46.8392C241.559 45.7978 241.699 44.7937 241.858 43.8572V43.7594ZM237.856 43.5391C237.829 43.3081 237.672 42.7449 237.02 41.7636C236.41 40.8445 235.667 39.9836 234.859 39.0468C234.729 38.8962 234.597 38.7436 234.464 38.5885C233.255 37.2753 232.498 36.4778 231.729 35.9981C231.19 35.662 230.839 35.5916 230.253 35.7607C228.29 36.3349 226.734 37.9256 225.542 40.6196C224.345 43.3259 223.763 46.6373 223.536 49.5506L223.531 49.6098L223.525 49.6689C223.124 53.3755 223.258 54.8786 224.578 56.2457L224.632 56.3018L224.684 56.36C225.674 57.468 226.86 58.4589 228.057 59.0697C229.227 59.667 230.187 59.7988 230.976 59.6278C233.377 59.0446 234.821 57.3632 235.864 54.2537C236.667 51.8581 237.021 49.3308 237.396 46.6477C237.538 45.6342 237.682 44.5984 237.856 43.5391ZM251.881 42.3136C251.005 44.3504 250.363 46.4522 249.956 48.554C249.956 48.554 250.006 53.3972 250.631 57.3587C250.634 57.3771 250.637 57.3954 250.64 57.4138C250.894 59.0049 251.242 60.4489 251.718 61.3725C252.305 63.3295 253.283 65.0908 254.653 66.4607C256.219 67.8306 257.98 68.8091 259.839 69.5919C263.264 71.1575 267.08 71.3532 270.505 70.0812C273.734 69.1027 276.572 67.0478 278.626 64.4058C279.899 62.0574 280.975 59.709 281.953 57.2628C282.247 56.3821 282.541 55.5014 282.736 54.6208C282.854 54.0329 283.144 53.4137 283.437 52.7882C283.876 51.852 284.321 50.9017 284.204 50.0218C284.106 48.7497 281.953 47.3798 280.681 47.1841C279.27 46.887 277.576 47.7178 276.115 48.4349C275.651 48.6623 275.211 48.8784 274.81 49.0433C272.951 49.8261 270.896 50.3154 268.841 50.5111C266.982 50.4132 265.221 50.9025 263.753 51.881C261.796 53.5444 261.6 57.3606 264.732 57.6542C267.471 57.5563 270.113 56.9692 272.658 55.9907C276.18 55.3057 276.082 57.6542 274.027 59.8069C272.168 61.9596 269.722 63.5252 266.884 64.308C262.873 64.1123 259.252 61.5682 257.784 57.8499C255.827 51.5874 257.001 44.7379 261.013 39.6496C263.362 36.7141 266.591 34.7571 270.211 33.8765C271.14 33.7803 272.374 34.0828 273.664 34.3992C276.267 35.0378 279.102 35.7331 280.138 33.325C280.156 33.2815 280.175 33.237 280.192 33.1915C280.661 32.0658 280.311 31.11 279.537 30.3081C277.89 28.6006 274.322 27.5908 272.658 27.1248C270.309 26.6355 267.863 26.7334 265.612 27.4183C263.557 27.9076 261.698 28.9839 260.231 30.4517C258.469 31.528 256.904 32.8979 255.729 34.4636C254.985 35.7294 254.353 37.1087 253.749 38.4287C253.559 38.8433 253.372 39.2521 253.185 39.6496C252.705 40.5211 252.27 41.4109 251.881 42.3136ZM281.635 37.684C280.993 38.154 280.271 38.4996 279.495 38.7178C277.822 39.1885 276.155 38.9927 275.026 38.7951C274.21 38.6522 273.273 38.4227 272.549 38.2453C272.287 38.1811 272.053 38.1238 271.862 38.0798C271.256 37.9398 270.914 37.8884 270.749 37.8687C268.105 38.5954 265.818 40.0519 264.146 42.1369C262.598 44.1042 261.577 46.4205 261.125 48.8656C261.137 48.8548 261.15 48.844 261.163 48.8332L261.34 48.6822L261.534 48.5528C263.64 47.1491 266.13 46.435 268.714 46.5033C270.319 46.3275 271.881 45.9365 273.258 45.3568L273.273 45.3506L273.287 45.3446C273.555 45.2342 273.882 45.0746 274.406 44.8176C274.879 44.5859 275.491 44.2857 276.134 44.0178C277.255 43.5507 279.241 42.8306 281.4 43.2486C282.147 43.3768 282.891 43.6383 283.579 43.9691C283.124 42.8697 282.876 41.7558 282.762 40.7001C282.566 40.0791 282.271 39.3207 281.883 38.322C281.804 38.1195 281.721 37.9071 281.635 37.684ZM286.71 39.9432C286.808 41.3131 287.199 42.683 288.08 43.8572C288.961 44.8357 289.841 45.9121 290.624 47.0863C292.19 49.6304 293.364 52.3702 294.049 55.3057C294.715 59.8703 291.684 65.2665 289.447 69.2492C289.382 69.3647 289.318 69.4789 289.254 69.5919C287.884 72.2339 286.025 77.1264 289.254 79.377C290.135 79.9641 291.309 80.1598 292.385 79.8662C293.462 79.5727 294.342 78.8877 294.832 77.9092C295.419 77.0286 295.639 76.0256 295.859 75.0226C296.079 74.0197 296.299 73.0167 296.887 72.136C297.385 71.0896 297.706 69.967 298.03 68.8328C298.342 67.74 298.657 66.6365 299.137 65.5801C299.431 64.8462 299.675 64.0878 299.92 63.3295C300.165 62.5712 300.409 61.8128 300.703 61.0789C301.46 59.2998 302.422 57.6963 303.374 56.11C304.882 53.5958 306.365 51.1246 306.965 48.0648C307.944 43.9551 309.216 39.9432 310.684 36.127C311.466 32.9958 312.641 30.0603 314.108 27.2226L314.167 27.1286C315.398 25.1403 315.948 24.2525 314.695 22.0365C312.151 17.2418 306.867 21.9387 305.987 25.657C305.693 27.7119 305.302 29.7667 304.617 31.7237C303.834 33.7786 303.051 35.7356 302.073 37.6926C301.964 37.952 301.83 38.3237 301.672 38.7597C300.703 41.4489 298.853 46.5835 296.495 42.8787C295.321 40.2367 294.538 37.3991 294.245 34.4636C293.755 32.8001 293.168 31.1366 292.483 29.571C291.505 27.0269 289.352 21.9387 285.829 24.1892C284.041 25.2821 283.43 26.9577 283.449 28.8595C283.463 30.2666 283.822 31.7975 284.306 33.3079C284.693 34.517 285.159 35.7129 285.591 36.8216C286.046 37.9872 286.463 39.0565 286.71 39.9432ZM271.559 56.4975C271.57 56.4684 271.574 56.4654 271.562 56.491C271.561 56.4928 271.56 56.495 271.559 56.4975Z" fill="white"/>
<path d="M87.8862 65.1887C84.755 63.9167 81.6238 62.3511 78.4926 60.8833C75.1657 59.4155 71.8387 58.1435 68.414 57.0671C67.044 56.3822 65.5763 56.3822 64.2064 56.9693C62.8365 57.6542 62.8365 58.7306 63.13 60.1983C63.815 63.2317 66.9462 63.9167 69.2946 64.7973C70.7624 65.2866 71.8387 66.0694 73.3065 66.5586C75.1656 67.1457 76.927 67.8307 78.6883 68.5156C80.4496 69.0049 82.3087 69.6899 83.9722 70.3748C85.2443 71.0598 86.3206 72.1361 87.5927 72.7232C90.7239 74.0931 92.2895 72.4297 93.4637 69.9834C94.6379 67.5371 90.4304 66.2651 87.8862 65.1887ZM99.2369 31.4303C97.6713 27.027 86.8099 27.9076 81.1345 28.299C77.8076 28.4947 65.1849 27.6141 66.2612 33.3873C66.8483 36.6163 71.2516 35.4421 73.6 35.2464C76.927 34.7572 80.2539 34.5615 83.5808 34.6593C86.8099 34.855 90.1368 34.3658 93.268 34.7572C96.5949 35.1486 100.215 34.0722 99.2369 31.4303ZM72.4258 48.9455C73.6 49.2391 74.8721 49.4348 76.0463 49.5326C78.5904 49.8262 81.1345 50.2176 83.6787 50.7068C86.3206 51.3918 94.3444 52.2724 93.5616 46.8907C93.268 44.8358 90.0389 44.5422 88.3755 43.9551C85.7335 43.0745 83.0916 43.2702 80.4496 42.6831C78.2969 41.9981 76.0463 41.6067 73.6979 41.6067C72.5237 41.5089 71.3495 41.9981 70.5667 42.8788C69.7839 43.7594 69.4903 45.0315 69.686 46.2057C69.8817 46.7928 70.5667 47.4778 70.9581 48.0649C71.2516 48.652 71.8387 48.9455 72.4258 48.9455Z" fill="#F9ED37"/>
<path fill-rule="evenodd" clip-rule="evenodd" d="M89.4184 61.4936L89.4448 61.5048C89.6191 61.5786 89.8499 61.6704 90.1201 61.778C91.2022 62.2088 92.9173 62.8916 94.1771 63.6727C94.9976 64.1814 96.1737 65.0401 96.9347 66.3978C97.851 68.0326 97.9181 69.9471 97.0698 71.7143L93.4637 69.9834C94.4926 67.8399 91.3894 66.5979 88.8939 65.5992C88.5414 65.4581 88.2011 65.3219 87.8862 65.1887C85.5379 64.2347 83.1895 63.1155 80.8411 61.9964C80.0582 61.6233 79.2754 61.2502 78.4926 60.8833C75.1657 59.4155 71.8387 58.1435 68.414 57.0671C67.0441 56.3821 65.5763 56.3821 64.2064 56.9693C62.8365 57.6542 62.8365 58.7306 63.13 60.1983C63.7275 62.8441 66.186 63.7033 68.3628 64.464C68.6817 64.5754 68.9946 64.6848 69.2946 64.7973C70.0285 65.0419 70.6645 65.3599 71.3006 65.678C71.9366 65.996 72.5726 66.314 73.3065 66.5586C75.1657 67.1457 76.927 67.8307 78.6883 68.5156C80.4496 69.0049 82.3088 69.6898 83.9722 70.3748C84.5549 70.6885 85.0965 71.0844 85.6347 71.4778C86.2714 71.9432 86.9033 72.405 87.5927 72.7232C90.7239 74.0931 92.2895 72.4297 93.4637 69.9834L97.0698 71.7143C96.4078 73.0936 95.2962 75.0444 93.3001 76.2263C90.9786 77.6008 88.3942 77.4399 85.9894 76.3878L85.9528 76.3718L85.9165 76.355C84.8752 75.8745 83.995 75.2328 83.4258 74.8177L83.3745 74.7803C82.8333 74.3857 82.5148 74.1535 82.2279 73.9829C80.7137 73.3664 79.0998 72.7814 77.6177 72.3697L77.425 72.3162L77.2385 72.2436C75.4598 71.5519 73.8174 70.9147 72.102 70.3729L72.0717 70.3634L72.0416 70.3533C71.0348 70.0177 70.1814 69.5907 69.5753 69.2875L69.5117 69.2557C68.8489 68.9243 68.4549 68.7338 68.0297 68.592L67.9595 68.5686L67.8901 68.5426C67.7423 68.4872 67.5447 68.4186 67.311 68.3375C66.3682 68.0103 64.837 67.479 63.6119 66.7826C61.8183 65.7631 59.8946 64.0304 59.2283 61.0794L59.2174 61.0312L59.2077 60.9828C59.0548 60.2182 58.7934 58.8019 59.1638 57.3201C59.624 55.4793 60.8555 54.1726 62.4175 53.3915L62.5227 53.339L62.6307 53.2927C64.9122 52.3149 67.4838 52.2507 69.8784 53.3349C73.3642 54.4418 76.7438 55.7398 80.1071 57.2236L80.149 57.2421L80.1903 57.2614C81.0281 57.6542 81.845 58.0434 82.6474 58.4258C84.9653 59.5302 87.1621 60.577 89.3918 61.4828L89.4184 61.4936ZM80.9138 38.6444C81.1009 38.6983 81.2872 38.7541 81.4727 38.8117C82.2756 38.9786 83.0772 39.0575 84.1182 39.1599C84.3398 39.1817 84.5722 39.2046 84.8179 39.2296C86.1812 39.3685 87.8747 39.5718 89.6404 40.1604L89.6737 40.1715L89.7068 40.1832C89.8995 40.2512 90.1547 40.3181 90.6616 40.451C90.7246 40.4676 90.7915 40.4851 90.8627 40.5038C91.4052 40.6463 92.1639 40.8496 92.9153 41.138C94.1586 41.6151 97.035 42.9483 97.5203 46.3173C97.8722 48.7411 97.2393 51.0402 95.5055 52.7235C93.9802 54.2045 92.0341 54.778 90.5515 55.0211C87.6515 55.4965 84.4829 55.0286 82.8103 54.6132C80.4211 54.1566 78.0337 53.79 75.6478 53.5132C74.4196 53.4078 73.0899 53.2103 71.809 52.9114C70.2093 52.7352 68.5509 51.871 67.5675 50.1983C67.5428 50.1657 67.5125 50.1265 67.4743 50.0778C67.4549 50.053 67.4238 50.0137 67.3862 49.9664C67.2963 49.8528 67.1694 49.6927 67.0782 49.5741C66.9251 49.3751 66.7207 49.1006 66.524 48.7873C66.3343 48.4849 66.0784 48.032 65.8913 47.4706L65.792 47.1729L65.7404 46.8633C65.3768 44.6815 65.874 42.1372 67.577 40.2213C67.7972 39.9736 68.0329 39.7406 68.282 39.5236C67.3398 39.3996 66.2209 39.1106 65.1672 38.4354C63.6524 37.4647 62.6635 35.9473 62.3274 34.1118C62.0605 32.6714 62.1887 31.1916 62.835 29.8171C63.4645 28.4782 64.4486 27.5287 65.424 26.8697C67.2637 25.6268 69.5689 25.0842 71.4416 24.7976C73.4195 24.4949 75.4811 24.402 77.1697 24.3657C78.0317 24.3471 78.7263 24.3423 79.2984 24.3383C79.9705 24.3337 80.4737 24.3302 80.8811 24.307C81.0412 24.2959 81.207 24.2844 81.3782 24.2724C84.1456 24.0791 88.3039 23.7886 92.0368 24.0786C94.0161 24.2324 96.1592 24.5659 98.0309 25.3141C99.8756 26.0516 102.056 27.4474 102.997 30.0661C103.571 31.6346 103.58 33.4114 102.698 35.0319C101.89 36.5178 100.598 37.3787 99.5362 37.8663C97.4528 38.823 94.9132 38.9783 92.8007 38.7298L92.7863 38.7281L92.7719 38.7263C91.5451 38.5729 90.208 38.5841 88.5814 38.633C88.3917 38.6387 88.1968 38.645 87.9975 38.6515C86.6061 38.6964 84.9976 38.7484 83.4047 38.6559C82.5746 38.6324 81.7443 38.6286 80.9138 38.6444ZM83.5808 34.6593C80.2539 34.5615 76.927 34.7572 73.6001 35.2464C73.2383 35.2766 72.8279 35.3299 72.3901 35.3868C69.9857 35.6994 66.7579 36.119 66.2613 33.3872C65.3417 28.4549 74.4214 28.3793 79.1605 28.3399C79.9683 28.3332 80.65 28.3275 81.1346 28.299C81.2875 28.2885 81.4442 28.2776 81.6044 28.2664C87.3886 27.864 97.7135 27.1456 99.2369 31.4302C100.215 34.0722 96.595 35.1486 93.268 34.7572C91.5087 34.5372 89.6876 34.5953 87.8567 34.6538C86.4291 34.6993 84.9956 34.745 83.5808 34.6593ZM73.6979 41.6067C72.5237 41.5089 71.3495 41.9981 70.5667 42.8788C69.7839 43.7594 69.4903 45.0315 69.686 46.2057C69.8144 46.5908 70.1532 47.018 70.4817 47.432C70.654 47.6492 70.8234 47.8628 70.9581 48.0648C71.2516 48.6519 71.8387 48.9455 72.4258 48.9455C73.6001 49.2391 74.8721 49.4348 76.0463 49.5326C78.5904 49.8262 81.1346 50.2176 83.6787 50.7068C86.3206 51.3918 94.3444 52.2724 93.5616 46.8906C93.3319 45.2826 91.3044 44.7532 89.6364 44.3176C89.1729 44.1966 88.7372 44.0828 88.3755 43.9551C86.8459 43.4453 85.3164 43.2962 83.7868 43.1471C82.6744 43.0387 81.562 42.9303 80.4496 42.6831C78.2969 41.9981 76.0463 41.6067 73.6979 41.6067Z" fill="white"/>
</g>
<defs>
<filter id="filter0_d_135_184" x="0" y="0" width="339.406" height="108.001" filterUnits="userSpaceOnUse" color-interpolation-filters="sRGB">
<feFlood flood-opacity="0" result="BackgroundImageFix"/>
<feColorMatrix in="SourceAlpha" type="matrix" values="0 0 0 0 0 0 0 0 0 0 0 0 0 0 0 0 0 0 127 0" result="hardAlpha"/>
<feOffset dy="4"/>
<feGaussianBlur stdDeviation="10"/>
<feComposite in2="hardAlpha" operator="out"/>
<feColorMatrix type="matrix" values="0 0 0 0 0 0 0 0 0 0 0 0 0 0 0 0 0 0 0.43 0"/>
<feBlend mode="normal" in2="BackgroundImageFix" result="effect1_dropShadow_135_184"/>
<feBlend mode="normal" in="SourceGraphic" in2="effect1_dropShadow_135_184" result="shape"/>
</filter>
</defs>
</svg>
