<svg width="104" height="104" viewBox="0 0 104 104" fill="none" xmlns="http://www.w3.org/2000/svg">
<g filter="url(#filter0_i_391_581)">
<path d="M97 52C97 76.8528 76.8528 97 52 97C27.1472 97 7 76.8528 7 52C7 27.1472 27.1472 7 52 7C76.8528 7 97 27.1472 97 52Z" fill="white"/>
</g>
<path fill-rule="evenodd" clip-rule="evenodd" d="M104 52C104 80.7188 80.7188 104 52 104C23.2812 104 0 80.7188 0 52C0 23.2812 23.2812 0 52 0C80.7188 0 104 23.2812 104 52ZM52 97C76.8528 97 97 76.8528 97 52C97 27.1472 76.8528 7 52 7C27.1472 7 7 27.1472 7 52C7 76.8528 27.1472 97 52 97Z" fill="#B597C1"/>
<defs>
<filter id="filter0_i_391_581" x="3" y="3" width="94" height="94" filterUnits="userSpaceOnUse" color-interpolation-filters="sRGB">
<feFlood flood-opacity="0" result="BackgroundImageFix"/>
<feBlend mode="normal" in="SourceGraphic" in2="BackgroundImageFix" result="shape"/>
<feColorMatrix in="SourceAlpha" type="matrix" values="0 0 0 0 0 0 0 0 0 0 0 0 0 0 0 0 0 0 127 0" result="hardAlpha"/>
<feOffset dx="-4" dy="-4"/>
<feGaussianBlur stdDeviation="10"/>
<feComposite in2="hardAlpha" operator="arithmetic" k2="-1" k3="1"/>
<feColorMatrix type="matrix" values="0 0 0 0 0 0 0 0 0 0 0 0 0 0 0 0 0 0 0.2 0"/>
<feBlend mode="normal" in2="shape" result="effect1_innerShadow_391_581"/>
</filter>
</defs>
</svg>
