<svg width="249" height="51" viewBox="0 0 249 51" fill="none" xmlns="http://www.w3.org/2000/svg">
<path d="M0 10C0 4.47715 4.47715 0 10 0H239C244.523 0 249 4.47715 249 10V40C249 45.5228 244.523 50 239 50H10C4.47716 50 0 45.5228 0 40V10Z" fill="#B597C1"/>
<path fill-rule="evenodd" clip-rule="evenodd" d="M239 3H10C6.13401 3 3 6.13401 3 10V40C3 43.866 6.13401 47 10 47H239C242.866 47 246 43.866 246 40V10C246 6.13401 242.866 3 239 3ZM10 0C4.47715 0 0 4.47715 0 10V40C0 45.5228 4.47716 50 10 50H239C244.523 50 249 45.5228 249 40V10C249 4.47715 244.523 0 239 0H10Z" fill="url(#paint0_radial_433_503)"/>
<g filter="url(#filter0_d_433_503)">
<path d="M17.1367 36V13.6H26.3527C28.3367 13.6 30.0327 13.92 31.4407 14.56C32.8701 15.2 33.9687 16.1173 34.7367 17.312C35.5047 18.5066 35.8887 19.9253 35.8887 21.568C35.8887 23.2106 35.5047 24.6293 34.7367 25.824C33.9687 27.0186 32.8701 27.936 31.4407 28.576C30.0327 29.216 28.3367 29.536 26.3527 29.536H19.4407L21.2967 27.584V36H17.1367ZM21.2967 28.032L19.4407 26.016H26.1607C27.9954 26.016 29.3714 25.632 30.2887 24.864C31.2274 24.0746 31.6967 22.976 31.6967 21.568C31.6967 20.1386 31.2274 19.04 30.2887 18.272C29.3714 17.504 27.9954 17.12 26.1607 17.12H19.4407L21.2967 15.072V28.032Z" fill="white"/>
<path d="M43.6642 22.912H54.8002V26.336H43.6642V22.912ZM43.9842 32.512H56.6242V36H39.8242V13.6H56.1762V17.088H43.9842V32.512Z" fill="white"/>
<path d="M59.0537 33.792L60.3977 30.752C61.3577 31.4133 62.4031 31.9253 63.5337 32.288C64.6857 32.6293 65.8271 32.8106 66.9577 32.832C68.0884 32.8533 69.1124 32.7253 70.0297 32.448C70.9684 32.1706 71.7151 31.7546 72.2697 31.2C72.8244 30.6453 73.1017 29.952 73.1017 29.12C73.1017 28.1173 72.6857 27.3706 71.8537 26.88C71.0431 26.368 69.9337 26.112 68.5257 26.112H63.3097V22.848H68.2057C69.4644 22.848 70.4351 22.592 71.1177 22.08C71.8217 21.568 72.1737 20.8746 72.1737 20C72.1737 19.2746 71.9391 18.6773 71.4697 18.208C71.0217 17.7386 70.403 17.3866 69.6137 17.152C68.8457 16.9173 67.971 16.8106 66.9897 16.832C66.0297 16.832 65.027 16.9813 63.9817 17.28C62.9364 17.5573 61.9444 17.9733 61.0057 18.528L59.6937 15.168C61.1017 14.4213 62.5737 13.8986 64.1097 13.6C65.6671 13.3013 67.1711 13.216 68.6217 13.344C70.0724 13.472 71.3737 13.8026 72.5257 14.336C73.6991 14.8693 74.6377 15.5733 75.3417 16.448C76.0457 17.3013 76.3977 18.3146 76.3977 19.488C76.3977 20.5546 76.1097 21.504 75.5337 22.336C74.9791 23.1466 74.2111 23.776 73.2297 24.224C72.2484 24.672 71.1071 24.896 69.8057 24.896L69.9657 23.872C71.4377 23.872 72.7177 24.128 73.8057 24.64C74.9151 25.1306 75.7684 25.8133 76.3657 26.688C76.9844 27.5626 77.2937 28.576 77.2937 29.728C77.2937 30.816 77.0164 31.7866 76.4617 32.64C75.907 33.472 75.1497 34.176 74.1897 34.752C73.2297 35.3066 72.1311 35.7226 70.8937 36C69.6564 36.256 68.355 36.352 66.9897 36.288C65.6244 36.224 64.2591 35.9893 62.8937 35.584C61.5497 35.1786 60.2697 34.5813 59.0537 33.792Z" fill="white"/>
<path d="M82.0505 32.48C83.2238 32.8853 84.2585 32.992 85.1545 32.8C86.0505 32.608 86.8505 31.9573 87.5545 30.848L88.6425 29.152L89.0585 28.704L96.8665 13.6H100.962L91.2345 31.68C90.4451 33.1946 89.5065 34.3466 88.4185 35.136C87.3305 35.9253 86.1571 36.3626 84.8985 36.448C83.6611 36.5546 82.3705 36.32 81.0265 35.744L82.0505 32.48ZM88.9625 32.288L78.9785 13.6H83.4265L91.2345 29.088L88.9625 32.288Z" fill="white"/>
<path d="M103.127 36.32C102.764 36.32 102.402 36.288 102.039 36.224C101.676 36.16 101.282 36.0853 100.855 36L101.143 32.384C101.442 32.4693 101.762 32.512 102.103 32.512C102.999 32.512 103.714 32.1493 104.247 31.424C104.78 30.6773 105.164 29.5893 105.399 28.16C105.634 26.7306 105.794 24.9706 105.879 22.88L106.199 13.6H122.679V36H118.583V16.096L119.543 17.12H108.887L109.783 16.064L109.559 22.72C109.495 24.9386 109.346 26.8906 109.111 28.576C108.876 30.2613 108.514 31.68 108.023 32.832C107.554 33.9626 106.924 34.8266 106.135 35.424C105.346 36.0213 104.343 36.32 103.127 36.32Z" fill="white"/>
<path d="M139.316 21.184C141.983 21.184 144.042 21.7813 145.492 22.976C146.943 24.1706 147.668 25.9626 147.668 28.352C147.668 30.8693 146.868 32.7786 145.268 34.08C143.69 35.36 141.482 36 138.644 36H129.012V13.6H133.108V21.184H139.316ZM138.452 32.8C140.052 32.8 141.29 32.4266 142.164 31.68C143.06 30.9333 143.508 29.8453 143.508 28.416C143.508 27.008 143.071 25.984 142.196 25.344C141.322 24.6826 140.074 24.352 138.452 24.352H133.108V32.8H138.452Z" fill="white"/>
<path d="M154.372 36V16.096L155.364 17.12H146.98V13.6H165.924V17.12H157.54L158.5 16.096V36H154.372Z" fill="white"/>
<path d="M165.539 36L175.619 13.6H179.715L189.827 36H185.475L176.803 15.808H178.467L169.827 36H165.539ZM170.179 30.816L171.299 27.552H183.395L184.515 30.816H170.179Z" fill="white"/>
<path d="M196.841 36V16.096L197.833 17.12H189.449V13.6H208.393V17.12H200.009L200.969 16.096V36H196.841Z" fill="white"/>
<path d="M212.012 36V13.6H216.108V29.504L228.14 13.6H232.012V36H227.916V20.128L215.884 36H212.012Z" fill="white"/>
</g>
<defs>
<filter id="filter0_d_433_503" x="7.13672" y="7.28638" width="234.875" height="43.1866" filterUnits="userSpaceOnUse" color-interpolation-filters="sRGB">
<feFlood flood-opacity="0" result="BackgroundImageFix"/>
<feColorMatrix in="SourceAlpha" type="matrix" values="0 0 0 0 0 0 0 0 0 0 0 0 0 0 0 0 0 0 127 0" result="hardAlpha"/>
<feOffset dy="4"/>
<feGaussianBlur stdDeviation="5"/>
<feComposite in2="hardAlpha" operator="out"/>
<feColorMatrix type="matrix" values="0 0 0 0 0 0 0 0 0 0 0 0 0 0 0 0 0 0 0.2 0"/>
<feBlend mode="normal" in2="BackgroundImageFix" result="effect1_dropShadow_433_503"/>
<feBlend mode="normal" in="SourceGraphic" in2="effect1_dropShadow_433_503" result="shape"/>
</filter>
<radialGradient id="paint0_radial_433_503" cx="0" cy="0" r="1" gradientUnits="userSpaceOnUse" gradientTransform="translate(-78.6657 -205.5) rotate(41.2562) scale(535.313 4723.77)">
<stop stop-color="white"/>
<stop offset="1" stop-color="white" stop-opacity="0"/>
</radialGradient>
</defs>
</svg>
