<svg width="550" height="488" viewBox="0 0 550 488" fill="none" xmlns="http://www.w3.org/2000/svg">
<path d="M0 40C0 17.9086 17.9086 0 40 0H510C532.091 0 550 17.9086 550 40V448C550 470.091 532.091 488 510 488H40C17.9086 488 0 470.091 0 448V40Z" fill="#B597C1"/>
<path fill-rule="evenodd" clip-rule="evenodd" d="M360.88 476.874H275L41.7947 476.874C28.4262 476.874 11 469.808 11 445.813V183.874C11 102.859 19.2463 68.3743 43.5 43.3743C68.2388 17.8743 124.5 12.8743 189.12 11L275 11H508.205C521.574 11 539 18.0667 539 42.0609V304C539 385.016 530.754 419.5 506.5 444.5C481.761 470 425.5 475 360.88 476.874Z" fill="white"/>
</svg>
