<svg width="148" height="53" viewBox="0 0 148 53" fill="none" xmlns="http://www.w3.org/2000/svg">
<path d="M0 9.91379C0 4.43856 4.45308 0 9.94624 0H138.054C143.547 0 148 4.43856 148 9.91379V36.0862C148 41.5614 143.547 46 138.054 46H9.94624C4.45308 46 0 41.5614 0 36.0862V9.91379Z" fill="#B597C1"/>
<path fill-rule="evenodd" clip-rule="evenodd" d="M138.054 3H9.94624C6.10069 3 3 6.10464 3 9.91379V36.0862C3 39.8954 6.10069 43 9.94624 43H138.054C141.899 43 145 39.8954 145 36.0862V9.91379C145 6.10464 141.899 3 138.054 3ZM9.94624 0C4.45308 0 0 4.43856 0 9.91379V36.0862C0 41.5614 4.45308 46 9.94624 46H138.054C143.547 46 148 41.5614 148 36.0862V9.91379C148 4.43856 143.547 0 138.054 0H9.94624Z" fill="url(#paint0_angular_393_591)"/>
<g filter="url(#filter0_d_393_591)">
<path d="M17.4424 33.779V11.5721H26.6088C28.5822 11.5721 30.2691 11.8894 31.6695 12.5239C33.0911 13.1584 34.1839 14.0678 34.9478 15.2521C35.7116 16.4365 36.0936 17.8429 36.0936 19.4715C36.0936 21.1 35.7116 22.5064 34.9478 23.6908C34.1839 24.8751 33.0911 25.7846 31.6695 26.419C30.2691 27.0535 28.5822 27.3708 26.6088 27.3708H19.734L21.58 25.4356V33.779H17.4424ZM21.58 25.8797L19.734 23.8811H26.4179C28.2427 23.8811 29.6113 23.5004 30.5237 22.739C31.4573 21.9565 31.9241 20.8673 31.9241 19.4715C31.9241 18.0544 31.4573 16.9652 30.5237 16.2039C29.6113 15.4425 28.2427 15.0618 26.4179 15.0618H19.734L21.58 13.0315V25.8797Z" fill="white"/>
<path d="M36.0563 33.779L46.0821 11.5721H50.1561L60.2137 33.779H55.8851L47.2597 13.7611H48.9148L40.3212 33.779H36.0563ZM40.6713 28.6397L41.7853 25.4039H53.8163L54.9303 28.6397H40.6713Z" fill="white"/>
<path d="M62.8296 30.2894C63.9966 30.6912 65.0257 30.797 65.9169 30.6066C66.808 30.4163 67.6037 29.7712 68.304 28.6715L69.3861 26.9901L69.7999 26.5459L77.5659 11.5721H81.6399L71.9642 29.4963C71.1791 30.9979 70.2455 32.14 69.1633 32.9225C68.0812 33.705 66.9141 34.1386 65.6622 34.2232C64.4316 34.3289 63.1478 34.0963 61.8111 33.5252L62.8296 30.2894ZM69.7044 30.099L59.7741 11.5721H64.1982L71.9642 26.9266L69.7044 30.099Z" fill="white"/>
<path d="M100.177 11.5721H104.314V33.779H100.177V11.5721ZM88.655 33.779H84.5173V11.5721H88.655V33.779ZM100.495 24.2618H88.3048V20.7404H100.495V24.2618Z" fill="white"/>
<path d="M125.146 31.8756V15.0618H116.426L116.266 18.9956C116.203 20.4761 116.107 21.8825 115.98 23.2149C115.874 24.5262 115.694 25.7211 115.439 26.7997C115.206 27.8784 114.877 28.7772 114.452 29.4963C114.028 30.2154 113.508 30.6912 112.893 30.9239L108.437 30.2894C109.243 30.3317 109.901 30.0567 110.41 29.4646C110.941 28.8724 111.354 28.0475 111.651 26.9901C111.948 25.9326 112.171 24.6954 112.32 23.2784C112.468 21.8402 112.574 20.2857 112.638 18.6149L112.893 11.5721H129.22V31.8756H125.146ZM107.673 38.5059L107.705 30.2894H132.435V38.5059H128.616V33.779H111.524V38.5059H107.673Z" fill="white"/>
</g>
<defs>
<filter id="filter0_d_393_591" x="7.44238" y="5.57214" width="134.993" height="46.9338" filterUnits="userSpaceOnUse" color-interpolation-filters="sRGB">
<feFlood flood-opacity="0" result="BackgroundImageFix"/>
<feColorMatrix in="SourceAlpha" type="matrix" values="0 0 0 0 0 0 0 0 0 0 0 0 0 0 0 0 0 0 127 0" result="hardAlpha"/>
<feOffset dy="4"/>
<feGaussianBlur stdDeviation="5"/>
<feComposite in2="hardAlpha" operator="out"/>
<feColorMatrix type="matrix" values="0 0 0 0 0 0 0 0 0 0 0 0 0 0 0 0 0 0 0.2 0"/>
<feBlend mode="normal" in2="BackgroundImageFix" result="effect1_dropShadow_393_591"/>
<feBlend mode="normal" in="SourceGraphic" in2="effect1_dropShadow_393_591" result="shape"/>
</filter>
<radialGradient id="paint0_angular_393_591" cx="0" cy="0" r="1" gradientUnits="userSpaceOnUse" gradientTransform="translate(90.4724 -49.5) rotate(61.1878) scale(142.09 457.225)">
<stop offset="0.20625" stop-color="white" stop-opacity="0.63"/>
<stop offset="1" stop-color="white" stop-opacity="0"/>
</radialGradient>
</defs>
</svg>
