<svg width="173" height="50" viewBox="0 0 173 50" fill="none" xmlns="http://www.w3.org/2000/svg">
<path d="M0 9.91379C0 4.43856 4.44121 0 9.91973 0H163.08C168.559 0 173 4.43856 173 9.91379V36.0862C173 41.5614 168.559 46 163.08 46H9.91972C4.44121 46 0 41.5614 0 36.0862V9.91379Z" fill="#B597C1"/>
<path fill-rule="evenodd" clip-rule="evenodd" d="M163.08 3H9.91973C6.09637 3 3 6.0971 3 9.91379V36.0862C3 39.9029 6.09637 43 9.91972 43H163.08C166.904 43 170 39.9029 170 36.0862V9.91379C170 6.0971 166.904 3 163.08 3ZM9.91973 0C4.44121 0 0 4.43856 0 9.91379V36.0862C0 41.5614 4.44121 46 9.91972 46H163.08C168.559 46 173 41.5614 173 36.0862V9.91379C173 4.43856 168.559 0 163.08 0H9.91973Z" fill="url(#paint0_angular_394_597)"/>
<g filter="url(#filter0_d_394_597)">
<path d="M22.3873 35.2931V15.5607L23.3714 16.5759H15.0547V13.0862H33.8466V16.5759H25.5299L26.4822 15.5607V35.2931H22.3873Z" fill="white"/>
<path d="M33.4645 35.2931L43.4635 13.0862H47.5267L57.5575 35.2931H53.2404L44.638 15.2752H46.2887L37.718 35.2931H33.4645ZM38.0672 30.1538L39.1782 26.9179H51.1771L52.2881 30.1538H38.0672Z" fill="white"/>
<path d="M60.9967 35.2931V13.0862H65.0598V28.8531L76.9952 13.0862H80.8361V35.2931H76.773V19.5579L64.8376 35.2931H60.9967ZM70.8688 11.5952C68.9642 11.5952 67.5252 11.1933 66.5517 10.3897C65.5994 9.58598 65.1127 8.45449 65.0915 6.99518H67.9801C68.0013 7.77771 68.2553 8.38047 68.742 8.80345C69.2499 9.22644 69.9588 9.43794 70.8688 9.43794C71.7787 9.43794 72.4877 9.22644 72.9956 8.80345C73.5246 8.38047 73.7997 7.77771 73.8209 6.99518H76.6778C76.6566 8.45449 76.1593 9.58598 75.1858 10.3897C74.2124 11.1933 72.7734 11.5952 70.8688 11.5952Z" fill="white"/>
<path d="M87.0979 35.2931V13.0862H90.4627L100.208 29.2972H98.3985L107.985 13.0862H111.35L111.413 35.2931H107.477L107.445 19.209H108.271L100.144 32.7552H98.3033L90.05 19.209H91.0023V35.2931H87.0979Z" fill="white"/>
<path d="M121.441 22.3179H132.487V25.7124H121.441V22.3179ZM121.758 31.8352H134.296V35.2931H117.631V13.0862H133.852V16.5441H121.758V31.8352Z" fill="white"/>
<path d="M138.897 35.2931V13.0862H148.039C150.007 13.0862 151.689 13.4035 153.086 14.0379C154.504 14.6724 155.594 15.5818 156.355 16.7662C157.117 17.9506 157.498 19.357 157.498 20.9855C157.498 22.614 157.117 24.0205 156.355 25.2048C155.594 26.3892 154.504 27.2986 153.086 27.9331C151.689 28.5676 150.007 28.8848 148.039 28.8848H141.182L143.023 26.9497V35.2931H138.897ZM143.023 27.3938L141.182 25.3952H147.848C149.668 25.3952 151.033 25.0145 151.943 24.2531C152.874 23.4706 153.34 22.3814 153.34 20.9855C153.34 19.5685 152.874 18.4793 151.943 17.7179C151.033 16.9566 149.668 16.5759 147.848 16.5759H141.182L143.023 14.5455V27.3938Z" fill="white"/>
</g>
<defs>
<filter id="filter0_d_394_597" x="5.05469" y="0.995178" width="162.443" height="48.2979" filterUnits="userSpaceOnUse" color-interpolation-filters="sRGB">
<feFlood flood-opacity="0" result="BackgroundImageFix"/>
<feColorMatrix in="SourceAlpha" type="matrix" values="0 0 0 0 0 0 0 0 0 0 0 0 0 0 0 0 0 0 127 0" result="hardAlpha"/>
<feOffset dy="4"/>
<feGaussianBlur stdDeviation="5"/>
<feComposite in2="hardAlpha" operator="out"/>
<feColorMatrix type="matrix" values="0 0 0 0 0 0 0 0 0 0 0 0 0 0 0 0 0 0 0.2 0"/>
<feBlend mode="normal" in2="BackgroundImageFix" result="effect1_dropShadow_394_597"/>
<feBlend mode="normal" in="SourceGraphic" in2="effect1_dropShadow_394_597" result="shape"/>
</filter>
<radialGradient id="paint0_angular_394_597" cx="0" cy="0" r="1" gradientUnits="userSpaceOnUse" gradientTransform="translate(105.755 -49.5) rotate(57.2613) scale(148.013 513.074)">
<stop offset="0.20625" stop-color="white" stop-opacity="0.63"/>
<stop offset="1" stop-color="white" stop-opacity="0"/>
</radialGradient>
</defs>
</svg>
