<svg width="289" height="51" viewBox="0 0 289 51" fill="none" xmlns="http://www.w3.org/2000/svg">
<path d="M0 10C0 4.47715 4.47715 0 10 0H279C284.523 0 289 4.47715 289 10V40C289 45.5228 284.523 50 279 50H9.99999C4.47714 50 0 45.5228 0 40V10Z" fill="#B597C1"/>
<g filter="url(#filter0_d_407_61)">
<path d="M15.168 36V13.6H30.368L30.336 17.12H18.272L19.232 16.128L19.264 36H15.168Z" fill="white"/>
<path d="M41.6922 36.32C39.9429 36.32 38.3322 36.032 36.8602 35.456C35.3882 34.88 34.1082 34.08 33.0202 33.056C31.9322 32.0107 31.0896 30.7947 30.4922 29.408C29.8949 28 29.5962 26.464 29.5962 24.8C29.5962 23.136 29.8949 21.6107 30.4922 20.224C31.0896 18.816 31.9322 17.6 33.0202 16.576C34.1082 15.5307 35.3882 14.72 36.8602 14.144C38.3322 13.568 39.9322 13.28 41.6602 13.28C43.4096 13.28 45.0096 13.568 46.4602 14.144C47.9322 14.72 49.2122 15.5307 50.3002 16.576C51.3882 17.6 52.2309 18.816 52.8282 20.224C53.4256 21.6107 53.7242 23.136 53.7242 24.8C53.7242 26.464 53.4256 28 52.8282 29.408C52.2309 30.816 51.3882 32.032 50.3002 33.056C49.2122 34.08 47.9322 34.88 46.4602 35.456C45.0096 36.032 43.4202 36.32 41.6922 36.32ZM41.6602 32.672C42.7909 32.672 43.8362 32.48 44.7962 32.096C45.7562 31.712 46.5882 31.168 47.2922 30.464C47.9962 29.7387 48.5402 28.9067 48.9242 27.968C49.3296 27.008 49.5322 25.952 49.5322 24.8C49.5322 23.648 49.3296 22.6027 48.9242 21.664C48.5402 20.704 47.9962 19.872 47.2922 19.168C46.5882 18.4427 45.7562 17.888 44.7962 17.504C43.8362 17.12 42.7909 16.928 41.6602 16.928C40.5296 16.928 39.4842 17.12 38.5242 17.504C37.5856 17.888 36.7536 18.4427 36.0282 19.168C35.3242 19.872 34.7696 20.704 34.3642 21.664C33.9802 22.6027 33.7882 23.648 33.7882 24.8C33.7882 25.9307 33.9802 26.976 34.3642 27.936C34.7696 28.896 35.3242 29.7387 36.0282 30.464C36.7322 31.168 37.5642 31.712 38.5242 32.096C39.4842 32.48 40.5296 32.672 41.6602 32.672Z" fill="white"/>
<path d="M57.2825 36.32C56.9198 36.32 56.5571 36.288 56.1945 36.224C55.8318 36.16 55.4371 36.0854 55.0105 36L55.2985 32.384C55.5971 32.4694 55.9171 32.512 56.2585 32.512C57.1545 32.512 57.8691 32.1494 58.4025 31.424C58.9358 30.6774 59.3198 29.5894 59.5545 28.16C59.7891 26.7307 59.9491 24.9707 60.0345 22.88L60.3545 13.6H76.8345V36H72.7385V16.096L73.6985 17.12H63.0425L63.9385 16.064L63.7145 22.72C63.6505 24.9387 63.5011 26.8907 63.2665 28.576C63.0318 30.2614 62.6691 31.68 62.1785 32.832C61.7091 33.9627 61.0798 34.8267 60.2905 35.424C59.5011 36.0214 58.4985 36.32 57.2825 36.32Z" fill="white"/>
<path d="M93.536 36.32C91.7866 36.32 90.176 36.032 88.704 35.456C87.232 34.88 85.952 34.08 84.864 33.056C83.776 32.0107 82.9333 30.7947 82.336 29.408C81.7386 28 81.44 26.464 81.44 24.8C81.44 23.136 81.7386 21.6107 82.336 20.224C82.9333 18.816 83.776 17.6 84.864 16.576C85.952 15.5307 87.232 14.72 88.704 14.144C90.176 13.568 91.776 13.28 93.504 13.28C95.2533 13.28 96.8533 13.568 98.304 14.144C99.776 14.72 101.056 15.5307 102.144 16.576C103.232 17.6 104.075 18.816 104.672 20.224C105.269 21.6107 105.568 23.136 105.568 24.8C105.568 26.464 105.269 28 104.672 29.408C104.075 30.816 103.232 32.032 102.144 33.056C101.056 34.08 99.776 34.88 98.304 35.456C96.8533 36.032 95.264 36.32 93.536 36.32ZM93.504 32.672C94.6346 32.672 95.68 32.48 96.64 32.096C97.6 31.712 98.432 31.168 99.136 30.464C99.84 29.7387 100.384 28.9067 100.768 27.968C101.173 27.008 101.376 25.952 101.376 24.8C101.376 23.648 101.173 22.6027 100.768 21.664C100.384 20.704 99.84 19.872 99.136 19.168C98.432 18.4427 97.6 17.888 96.64 17.504C95.68 17.12 94.6346 16.928 93.504 16.928C92.3733 16.928 91.328 17.12 90.368 17.504C89.4293 17.888 88.5973 18.4427 87.872 19.168C87.168 19.872 86.6133 20.704 86.208 21.664C85.824 22.6027 85.632 23.648 85.632 24.8C85.632 25.9307 85.824 26.976 86.208 27.936C86.6133 28.896 87.168 29.7387 87.872 30.464C88.576 31.168 89.408 31.712 90.368 32.096C91.328 32.48 92.3733 32.672 93.504 32.672Z" fill="white"/>
<path d="M120.471 36.32C118.765 36.32 117.175 36.0427 115.703 35.488C114.253 34.912 112.983 34.112 111.895 33.088C110.829 32.0427 109.997 30.816 109.399 29.408C108.802 28 108.503 26.464 108.503 24.8C108.503 23.136 108.802 21.6 109.399 20.192C109.997 18.784 110.839 17.568 111.927 16.544C113.015 15.4987 114.285 14.6987 115.735 14.144C117.186 13.568 118.775 13.28 120.503 13.28C122.338 13.28 124.013 13.6 125.527 14.24C127.042 14.8587 128.322 15.7867 129.367 17.024L126.679 19.552C125.869 18.6774 124.962 18.0267 123.959 17.6C122.957 17.152 121.869 16.928 120.695 16.928C119.522 16.928 118.445 17.12 117.463 17.504C116.503 17.888 115.661 18.432 114.935 19.136C114.231 19.84 113.677 20.672 113.271 21.632C112.887 22.592 112.695 23.648 112.695 24.8C112.695 25.952 112.887 27.008 113.271 27.968C113.677 28.928 114.231 29.76 114.935 30.464C115.661 31.168 116.503 31.712 117.463 32.096C118.445 32.48 119.522 32.672 120.695 32.672C121.869 32.672 122.957 32.4587 123.959 32.032C124.962 31.584 125.869 30.912 126.679 30.016L129.367 32.576C128.322 33.792 127.042 34.72 125.527 35.36C124.013 36 122.327 36.32 120.471 36.32Z" fill="white"/>
<path d="M133.081 32.48C134.254 32.8854 135.289 32.992 136.185 32.8C137.081 32.608 137.881 31.9574 138.585 30.848L139.673 29.152L140.089 28.704L147.897 13.6H151.993L142.265 31.68C141.476 33.1947 140.537 34.3467 139.449 35.136C138.361 35.9254 137.188 36.3627 135.929 36.448C134.692 36.5547 133.401 36.32 132.057 35.744L133.081 32.48ZM139.993 32.288L130.009 13.6H134.457L142.265 29.088L139.993 32.288Z" fill="white"/>
<path d="M154.918 36V13.6H164.934C167.451 13.6 169.414 14.1014 170.822 15.104C172.23 16.0854 172.934 17.504 172.934 19.36C172.934 21.1947 172.262 22.6134 170.918 23.616C169.574 24.5974 167.803 25.088 165.606 25.088L166.182 23.936C168.678 23.936 170.609 24.4374 171.974 25.44C173.339 26.4427 174.022 27.8934 174.022 29.792C174.022 31.7334 173.307 33.2587 171.878 34.368C170.449 35.456 168.337 36 165.542 36H154.918ZM159.014 32.8H165.414C166.865 32.8 167.963 32.5334 168.71 32C169.457 31.4454 169.83 30.6027 169.83 29.472C169.83 28.3414 169.457 27.52 168.71 27.008C167.963 26.4747 166.865 26.208 165.414 26.208H159.014V32.8ZM159.014 23.168H164.582C165.926 23.168 166.95 22.9014 167.654 22.368C168.358 21.8134 168.71 21.024 168.71 20C168.71 18.9334 168.358 18.1334 167.654 17.6C166.95 17.0667 165.926 16.8 164.582 16.8H159.014V23.168Z" fill="white"/>
<path d="M175.913 36L185.993 13.6H190.089L200.201 36H195.849L187.177 15.808H188.841L180.201 36H175.913ZM180.553 30.816L181.673 27.552H193.769L194.889 30.816H180.553Z" fill="white"/>
<path d="M219.38 13.6H223.54V36H219.38V13.6ZM207.796 36H203.636V13.6H207.796V36ZM219.7 26.4H207.444V22.848H219.7V26.4Z" fill="white"/>
<path d="M245.567 13.6H249.727V36H245.567V13.6ZM233.983 36H229.823V13.6H233.983V36ZM245.887 26.4H233.631V22.848H245.887V26.4Z" fill="white"/>
<path d="M269.035 36V28.832L270.059 29.76H263.499C261.622 29.76 260 29.4507 258.635 28.832C257.291 28.192 256.256 27.2854 255.531 26.112C254.806 24.9174 254.443 23.488 254.443 21.824C254.443 20.096 254.827 18.624 255.595 17.408C256.363 16.1707 257.451 15.232 258.859 14.592C260.267 13.9307 261.92 13.6 263.819 13.6H273.131V36H269.035ZM254.507 36L260.043 28H264.235L258.891 36H254.507ZM269.035 27.488V15.968L270.059 17.12H263.947C262.24 17.12 260.928 17.5147 260.011 18.304C259.115 19.072 258.667 20.224 258.667 21.76C258.667 23.232 259.094 24.3734 259.947 25.184C260.822 25.9734 262.102 26.368 263.787 26.368H270.059L269.035 27.488Z" fill="white"/>
</g>
<path fill-rule="evenodd" clip-rule="evenodd" d="M279 3H10C6.13401 3 3 6.13401 3 10V40C3 43.866 6.134 47 9.99999 47H279C282.866 47 286 43.866 286 40V10C286 6.134 282.866 3 279 3ZM10 0C4.47715 0 0 4.47715 0 10V40C0 45.5228 4.47714 50 9.99999 50H279C284.523 50 289 45.5228 289 40V10C289 4.47715 284.523 0 279 0H10Z" fill="url(#paint0_radial_407_61)"/>
<defs>
<filter id="filter0_d_407_61" x="5.16797" y="7.28003" width="277.963" height="43.193" filterUnits="userSpaceOnUse" color-interpolation-filters="sRGB">
<feFlood flood-opacity="0" result="BackgroundImageFix"/>
<feColorMatrix in="SourceAlpha" type="matrix" values="0 0 0 0 0 0 0 0 0 0 0 0 0 0 0 0 0 0 127 0" result="hardAlpha"/>
<feOffset dy="4"/>
<feGaussianBlur stdDeviation="5"/>
<feComposite in2="hardAlpha" operator="out"/>
<feColorMatrix type="matrix" values="0 0 0 0 0 0 0 0 0 0 0 0 0 0 0 0 0 0 0.2 0"/>
<feBlend mode="normal" in2="BackgroundImageFix" result="effect1_dropShadow_407_61"/>
<feBlend mode="normal" in="SourceGraphic" in2="effect1_dropShadow_407_61" result="shape"/>
</filter>
<radialGradient id="paint0_radial_407_61" cx="0" cy="0" r="1" gradientUnits="userSpaceOnUse" gradientTransform="translate(13.2584 -0.00024708) rotate(13.0069) scale(344.667 9176.7)">
<stop stop-color="white" stop-opacity="0.65"/>
<stop offset="0.412515" stop-color="white" stop-opacity="0.559375"/>
<stop offset="0.440725" stop-color="white" stop-opacity="0.559375"/>
<stop offset="1" stop-color="white" stop-opacity="0"/>
</radialGradient>
</defs>
</svg>
