<svg width="598" height="138" viewBox="0 0 598 138" fill="none" xmlns="http://www.w3.org/2000/svg">
<path d="M26.5011 9.50003C12.3163 14.4553 1.50105 17 1.50105 43C1.50105 43 -0.999609 98.5 1.50105 113C4.00172 127.5 7.61467 133.985 26.5011 134.5H492.5C500.898 134.156 509.201 129.381 514 132.5C521.228 135.393 525.271 135.639 532.5 132.5C535.254 131.878 536.848 131.707 540 132.5C547.492 135.238 551.854 135.893 560.5 132.5C563.435 131.487 565.067 131.601 568 132.5C593.5 145.5 605.75 118.967 591 108.5C585.341 105.005 576.786 105.2 568 108.5C565.071 109.529 563.427 109.452 560.5 108.5C553.09 106.229 548.726 105.755 540 108.5C537.271 109.22 535.667 109.341 532.5 108.5C525.822 105.676 521.866 105.236 514 108.5C510 110.16 511.5 106 511.5 96V23C511.5 17.5 509 9.50003 492.5 9.50003H345C325.5 9.50003 331.551 21.7159 329.5 36.5C329.5 39.5 315.745 40.0948 313.5 36.5C312.445 20.5218 314.981 8.51878 296.5 9.50003H237.5C230.5 -3.5 195.375 -1.1544 191 9.50003H26.5011Z" fill="white"/>
<path d="M32.265 57.55C29.2583 57.55 26.49 57.055 23.96 56.065C21.43 55.075 19.23 53.7 17.36 51.94C15.49 50.1433 14.0417 48.0533 13.015 45.67C11.9883 43.25 11.475 40.61 11.475 37.75C11.475 34.89 11.9883 32.2683 13.015 29.885C14.0417 27.465 15.49 25.375 17.36 23.615C19.23 21.8183 21.43 20.425 23.96 19.435C26.49 18.445 29.24 17.95 32.21 17.95C35.2167 17.95 37.9667 18.445 40.46 19.435C42.99 20.425 45.19 21.8183 47.06 23.615C48.93 25.375 50.3783 27.465 51.405 29.885C52.4317 32.2683 52.945 34.89 52.945 37.75C52.945 40.61 52.4317 43.25 51.405 45.67C50.3783 48.09 48.93 50.18 47.06 51.94C45.19 53.7 42.99 55.075 40.46 56.065C37.9667 57.055 35.235 57.55 32.265 57.55ZM32.21 51.28C34.1533 51.28 35.95 50.95 37.6 50.29C39.25 49.63 40.68 48.695 41.89 47.485C43.1 46.2383 44.035 44.8083 44.695 43.195C45.3917 41.545 45.74 39.73 45.74 37.75C45.74 35.77 45.3917 33.9733 44.695 32.36C44.035 30.71 43.1 29.28 41.89 28.07C40.68 26.8233 39.25 25.87 37.6 25.21C35.95 24.55 34.1533 24.22 32.21 24.22C30.2667 24.22 28.47 24.55 26.82 25.21C25.2067 25.87 23.7767 26.8233 22.53 28.07C21.32 29.28 20.3667 30.71 19.67 32.36C19.01 33.9733 18.68 35.77 18.68 37.75C18.68 39.6933 19.01 41.49 19.67 43.14C20.3667 44.79 21.32 46.2383 22.53 47.485C23.74 48.695 25.17 49.63 26.82 50.29C28.47 50.95 30.2667 51.28 32.21 51.28ZM84.0793 42.04C82.0626 42.8833 80.101 43.5067 78.1943 43.91C76.2876 44.3133 74.436 44.515 72.6393 44.515C67.726 44.515 63.931 43.3417 61.2543 40.995C58.6143 38.6117 57.2943 35.2017 57.2943 30.765V18.5H64.3893V29.995C64.3893 32.7083 65.1776 34.78 66.7543 36.21C68.331 37.64 70.586 38.355 73.5193 38.355C75.2793 38.355 77.0393 38.1533 78.7993 37.75C80.596 37.3467 82.3193 36.7233 83.9693 35.88L84.0793 42.04ZM82.9793 57V18.5H90.0743V57H82.9793ZM100.92 57V18.5H107.96V57H100.92ZM144.269 57L131.234 38.245L137.009 34.67L152.354 57H144.269ZM118.804 57V18.5H125.844V57H118.804ZM123.699 40.775V34.615H136.679V40.775H123.699ZM137.669 38.575L131.124 37.695L144.269 18.5H151.859L137.669 38.575ZM158.241 50.95C160.257 51.6467 162.036 51.83 163.576 51.5C165.116 51.17 166.491 50.0517 167.701 48.145L169.571 45.23L170.286 44.46L183.706 18.5H190.746L174.026 49.575C172.669 52.1783 171.056 54.1583 169.186 55.515C167.316 56.8717 165.299 57.6233 163.136 57.77C161.009 57.9533 158.791 57.55 156.481 56.56L158.241 50.95ZM170.121 50.62L152.961 18.5H160.606L174.026 45.12L170.121 50.62ZM195.773 57V18.5H202.813V45.835L223.493 18.5H230.148V57H223.108V29.72L202.428 57H195.773ZM212.878 15.915C209.578 15.915 207.085 15.2183 205.398 13.825C203.748 12.4317 202.905 10.47 202.868 7.94H207.873C207.91 9.29667 208.35 10.3417 209.193 11.075C210.073 11.8083 211.301 12.175 212.878 12.175C214.455 12.175 215.683 11.8083 216.563 11.075C217.48 10.3417 217.956 9.29667 217.993 7.94H222.943C222.906 10.47 222.045 12.4317 220.358 13.825C218.671 15.2183 216.178 15.915 212.878 15.915ZM249.028 57V22.79L250.733 24.55H236.323V18.5H268.883V24.55H254.473L256.123 22.79V57H249.028ZM281.649 34.505H300.789V40.39H281.649V34.505ZM282.199 51.005H303.924V57H275.049V18.5H303.154V24.495H282.199V51.005ZM309.737 65.305L312.927 53.15L313.862 57.22C312.579 57.22 311.497 56.835 310.617 56.065C309.774 55.2583 309.352 54.1767 309.352 52.82C309.352 51.4267 309.774 50.3267 310.617 49.52C311.497 48.6767 312.56 48.255 313.807 48.255C315.09 48.255 316.154 48.6767 316.997 49.52C317.84 50.3633 318.262 51.4633 318.262 52.82C318.262 53.1867 318.225 53.59 318.152 54.03C318.079 54.4333 317.95 54.91 317.767 55.46C317.62 56.01 317.364 56.7067 316.997 57.55L314.192 65.305H309.737ZM366.525 57L353.49 38.245L359.265 34.67L374.61 57H366.525ZM341.06 57V18.5H348.1V57H341.06ZM345.955 40.775V34.615H358.935V40.775H345.955ZM359.925 38.575L353.38 37.695L366.525 18.5H374.115L359.925 38.575ZM397.231 57.55C394.224 57.55 391.456 57.055 388.926 56.065C386.396 55.075 384.196 53.7 382.326 51.94C380.456 50.1433 379.007 48.0533 377.981 45.67C376.954 43.25 376.441 40.61 376.441 37.75C376.441 34.89 376.954 32.2683 377.981 29.885C379.007 27.465 380.456 25.375 382.326 23.615C384.196 21.8183 386.396 20.425 388.926 19.435C391.456 18.445 394.206 17.95 397.176 17.95C400.182 17.95 402.932 18.445 405.426 19.435C407.956 20.425 410.156 21.8183 412.026 23.615C413.896 25.375 415.344 27.465 416.371 29.885C417.397 32.2683 417.911 34.89 417.911 37.75C417.911 40.61 417.397 43.25 416.371 45.67C415.344 48.09 413.896 50.18 412.026 51.94C410.156 53.7 407.956 55.075 405.426 56.065C402.932 57.055 400.201 57.55 397.231 57.55ZM397.176 51.28C399.119 51.28 400.916 50.95 402.566 50.29C404.216 49.63 405.646 48.695 406.856 47.485C408.066 46.2383 409.001 44.8083 409.661 43.195C410.357 41.545 410.706 39.73 410.706 37.75C410.706 35.77 410.357 33.9733 409.661 32.36C409.001 30.71 408.066 29.28 406.856 28.07C405.646 26.8233 404.216 25.87 402.566 25.21C400.916 24.55 399.119 24.22 397.176 24.22C395.232 24.22 393.436 24.55 391.786 25.21C390.172 25.87 388.742 26.8233 387.496 28.07C386.286 29.28 385.332 30.71 384.636 32.36C383.976 33.9733 383.646 35.77 383.646 37.75C383.646 39.6933 383.976 41.49 384.636 43.14C385.332 44.79 386.286 46.2383 387.496 47.485C388.706 48.695 390.136 49.63 391.786 50.29C393.436 50.95 395.232 51.28 397.176 51.28ZM424.027 57.55C423.403 57.55 422.78 57.495 422.157 57.385C421.533 57.275 420.855 57.1467 420.122 57L420.617 50.785C421.13 50.9317 421.68 51.005 422.267 51.005C423.807 51.005 425.035 50.3817 425.952 49.135C426.868 47.8517 427.528 45.9817 427.932 43.525C428.335 41.0683 428.61 38.0433 428.757 34.45L429.307 18.5H457.632V57H450.592V22.79L452.242 24.55H433.927L435.467 22.735L435.082 34.175C434.972 37.9883 434.715 41.3433 434.312 44.24C433.908 47.1367 433.285 49.575 432.442 51.555C431.635 53.4983 430.553 54.9833 429.197 56.01C427.84 57.0367 426.117 57.55 424.027 57.55ZM468.517 57V18.5H475.557V45.835L496.237 18.5H502.892V57H495.852V29.72L475.172 57H468.517ZM14.445 124V85.5H40.57L40.515 91.55H19.78L21.43 89.845L21.485 124H14.445ZM46.5629 124V85.5H62.4029C65.8129 85.5 68.7279 86.05 71.1479 87.15C73.6045 88.25 75.4929 89.8267 76.8129 91.88C78.1329 93.9333 78.7929 96.3717 78.7929 99.195C78.7929 102.018 78.1329 104.457 76.8129 106.51C75.4929 108.563 73.6045 110.14 71.1479 111.24C68.7279 112.34 65.8129 112.89 62.4029 112.89H50.5229L53.7129 109.535V124H46.5629ZM53.7129 110.305L50.5229 106.84H62.0729C65.2262 106.84 67.5912 106.18 69.1679 104.86C70.7812 103.503 71.5879 101.615 71.5879 99.195C71.5879 96.7383 70.7812 94.85 69.1679 93.53C67.5912 92.21 65.2262 91.55 62.0729 91.55H50.5229L53.7129 88.03V110.305ZM78.7284 124L96.0534 85.5H103.093L120.473 124H112.993L98.0884 89.295H100.948L86.0984 124H78.7284ZM86.7034 115.09L88.6284 109.48H109.418L111.343 115.09H86.7034ZM141.633 124V85.5H175.678V124H168.638V89.79L170.288 91.55H147.023L148.673 89.79V124H141.633ZM204.409 124.55C201.402 124.55 198.634 124.055 196.104 123.065C193.574 122.075 191.374 120.7 189.504 118.94C187.634 117.143 186.185 115.053 185.159 112.67C184.132 110.25 183.619 107.61 183.619 104.75C183.619 101.89 184.132 99.2683 185.159 96.885C186.185 94.465 187.634 92.375 189.504 90.615C191.374 88.8183 193.574 87.425 196.104 86.435C198.634 85.445 201.384 84.95 204.354 84.95C207.36 84.95 210.11 85.445 212.604 86.435C215.134 87.425 217.334 88.8183 219.204 90.615C221.074 92.375 222.522 94.465 223.549 96.885C224.575 99.2683 225.089 101.89 225.089 104.75C225.089 107.61 224.575 110.25 223.549 112.67C222.522 115.09 221.074 117.18 219.204 118.94C217.334 120.7 215.134 122.075 212.604 123.065C210.11 124.055 207.379 124.55 204.409 124.55ZM204.354 118.28C206.297 118.28 208.094 117.95 209.744 117.29C211.394 116.63 212.824 115.695 214.034 114.485C215.244 113.238 216.179 111.808 216.839 110.195C217.535 108.545 217.884 106.73 217.884 104.75C217.884 102.77 217.535 100.973 216.839 99.36C216.179 97.71 215.244 96.28 214.034 95.07C212.824 93.8233 211.394 92.87 209.744 92.21C208.094 91.55 206.297 91.22 204.354 91.22C202.41 91.22 200.614 91.55 198.964 92.21C197.35 92.87 195.92 93.8233 194.674 95.07C193.464 96.28 192.51 97.71 191.814 99.36C191.154 100.973 190.824 102.77 190.824 104.75C190.824 106.693 191.154 108.49 191.814 110.14C192.51 111.79 193.464 113.238 194.674 114.485C195.884 115.695 197.314 116.63 198.964 117.29C200.614 117.95 202.41 118.28 204.354 118.28ZM256.223 109.04C254.206 109.883 252.245 110.507 250.338 110.91C248.431 111.313 246.58 111.515 244.783 111.515C239.87 111.515 236.075 110.342 233.398 107.995C230.758 105.612 229.438 102.202 229.438 97.765V85.5H236.533V96.995C236.533 99.7083 237.321 101.78 238.898 103.21C240.475 104.64 242.73 105.355 245.663 105.355C247.423 105.355 249.183 105.153 250.943 104.75C252.74 104.347 254.463 103.723 256.113 102.88L256.223 109.04ZM255.123 124V85.5H262.218V124H255.123ZM300.068 85.5H307.218V124H300.068V85.5ZM280.158 124H273.008V85.5H280.158V124ZM300.618 107.5H279.553V101.395H300.618V107.5ZM324.618 101.505H343.758V107.39H324.618V101.505ZM325.168 118.005H346.893V124H318.018V85.5H346.123V91.495H325.168V118.005ZM362.949 124V89.79L364.654 91.55H350.244V85.5H382.804V91.55H368.394L370.044 89.79V124H362.949ZM406.735 98.535C411.318 98.535 414.857 99.5617 417.35 101.615C419.843 103.668 421.09 106.748 421.09 110.855C421.09 115.182 419.715 118.463 416.965 120.7C414.252 122.9 410.457 124 405.58 124H389.025V85.5H396.065V98.535H406.735ZM405.25 118.5C408 118.5 410.127 117.858 411.63 116.575C413.17 115.292 413.94 113.422 413.94 110.965C413.94 108.545 413.188 106.785 411.685 105.685C410.182 104.548 408.037 103.98 405.25 103.98H396.065V118.5H405.25ZM446.104 124.55C443.171 124.55 440.439 124.073 437.909 123.12C435.416 122.13 433.234 120.755 431.364 118.995C429.531 117.198 428.101 115.09 427.074 112.67C426.047 110.25 425.534 107.61 425.534 104.75C425.534 101.89 426.047 99.25 427.074 96.83C428.101 94.41 429.549 92.32 431.419 90.56C433.289 88.7633 435.471 87.3883 437.964 86.435C440.457 85.445 443.189 84.95 446.159 84.95C449.312 84.95 452.191 85.5 454.794 86.6C457.397 87.6633 459.597 89.2583 461.394 91.385L456.774 95.73C455.381 94.2267 453.822 93.1083 452.099 92.375C450.376 91.605 448.506 91.22 446.489 91.22C444.472 91.22 442.621 91.55 440.934 92.21C439.284 92.87 437.836 93.805 436.589 95.015C435.379 96.225 434.426 97.655 433.729 99.305C433.069 100.955 432.739 102.77 432.739 104.75C432.739 106.73 433.069 108.545 433.729 110.195C434.426 111.845 435.379 113.275 436.589 114.485C437.836 115.695 439.284 116.63 440.934 117.29C442.621 117.95 444.472 118.28 446.489 118.28C448.506 118.28 450.376 117.913 452.099 117.18C453.822 116.41 455.381 115.255 456.774 113.715L461.394 118.115C459.597 120.205 457.397 121.8 454.794 122.9C452.191 124 449.294 124.55 446.104 124.55ZM489.612 124V111.68L491.372 113.275H480.097C476.87 113.275 474.084 112.743 471.737 111.68C469.427 110.58 467.649 109.022 466.402 107.005C465.155 104.952 464.532 102.495 464.532 99.635C464.532 96.665 465.192 94.135 466.512 92.045C467.832 89.9183 469.702 88.305 472.122 87.205C474.542 86.0683 477.384 85.5 480.647 85.5H496.652V124H489.612ZM464.642 124L474.157 110.25H481.362L472.177 124H464.642ZM489.612 109.37V89.57L491.372 91.55H480.867C477.934 91.55 475.679 92.2283 474.102 93.585C472.562 94.905 471.792 96.885 471.792 99.525C471.792 102.055 472.525 104.017 473.992 105.41C475.495 106.767 477.695 107.445 480.592 107.445H491.372L489.612 109.37ZM524.03 124.385C522.784 124.385 521.72 123.963 520.84 123.12C519.96 122.24 519.52 121.14 519.52 119.82C519.52 118.427 519.96 117.327 520.84 116.52C521.72 115.677 522.784 115.255 524.03 115.255C525.277 115.255 526.34 115.677 527.22 116.52C528.1 117.327 528.54 118.427 528.54 119.82C528.54 121.14 528.1 122.24 527.22 123.12C526.34 123.963 525.277 124.385 524.03 124.385ZM552.658 124.385C551.412 124.385 550.348 123.963 549.468 123.12C548.588 122.24 548.148 121.14 548.148 119.82C548.148 118.427 548.588 117.327 549.468 116.52C550.348 115.677 551.412 115.255 552.658 115.255C553.905 115.255 554.968 115.677 555.848 116.52C556.728 117.327 557.168 118.427 557.168 119.82C557.168 121.14 556.728 122.24 555.848 123.12C554.968 123.963 553.905 124.385 552.658 124.385ZM581.286 124.385C580.04 124.385 578.976 123.963 578.096 123.12C577.216 122.24 576.776 121.14 576.776 119.82C576.776 118.427 577.216 117.327 578.096 116.52C578.976 115.677 580.04 115.255 581.286 115.255C582.533 115.255 583.596 115.677 584.476 116.52C585.356 117.327 585.796 118.427 585.796 119.82C585.796 121.14 585.356 122.24 584.476 123.12C583.596 123.963 582.533 124.385 581.286 124.385Z" fill="black"/>
</svg>
