<svg width="570" height="97" viewBox="0 0 570 97" fill="none" xmlns="http://www.w3.org/2000/svg">
<path d="M0 20C0 8.95431 8.95431 0 20 0H550C561.046 0 570 8.95431 570 20V77C570 88.0457 561.046 97 550 97H20C8.9543 97 0 88.0457 0 77V20Z" fill="#B597C1"/>
<path fill-rule="evenodd" clip-rule="evenodd" d="M550 4H20C11.1634 4 4 11.1634 4 20V77C4 85.8366 11.1634 93 20 93H550C558.837 93 566 85.8366 566 77V20C566 11.1634 558.837 4 550 4ZM20 0C8.95431 0 0 8.95431 0 20V77C0 88.0457 8.9543 97 20 97H550C561.046 97 570 88.0457 570 77V20C570 8.9543 561.046 0 550 0H20Z" fill="url(#paint0_radial_413_309)"/>
<g filter="url(#filter0_d_413_309)">
<path d="M28.4453 68V29.5H54.5703L54.5153 35.55H33.7803L35.4303 33.845L35.4853 68H28.4453Z" fill="white"/>
<path d="M60.5632 68V29.5H76.4032C79.8132 29.5 82.7282 30.05 85.1482 31.15C87.6048 32.25 89.4932 33.8267 90.8132 35.88C92.1332 37.9333 92.7932 40.3717 92.7932 43.195C92.7932 46.0183 92.1332 48.4567 90.8132 50.51C89.4932 52.5633 87.6048 54.14 85.1482 55.24C82.7282 56.34 79.8132 56.89 76.4032 56.89H64.5232L67.7132 53.535V68H60.5632ZM67.7132 54.305L64.5232 50.84H76.0732C79.2265 50.84 81.5915 50.18 83.1682 48.86C84.7815 47.5033 85.5882 45.615 85.5882 43.195C85.5882 40.7383 84.7815 38.85 83.1682 37.53C81.5915 36.21 79.2265 35.55 76.0732 35.55H64.5232L67.7132 32.03V54.305Z" fill="white"/>
<path d="M99.2479 61.95C101.265 62.6467 103.043 62.83 104.583 62.5C106.123 62.17 107.498 61.0517 108.708 59.145L110.578 56.23L111.293 55.46L124.713 29.5H131.753L115.033 60.575C113.676 63.1783 112.063 65.1583 110.193 66.515C108.323 67.8717 106.306 68.6233 104.143 68.77C102.016 68.9533 99.7979 68.55 97.4879 67.56L99.2479 61.95ZM111.128 61.62L93.9679 29.5H101.613L115.033 56.12L111.128 61.62Z" fill="white"/>
<path d="M148.936 64.205L151.246 58.98C152.896 60.1167 154.693 60.9967 156.636 61.62C158.616 62.2067 160.578 62.5183 162.521 62.555C164.464 62.5917 166.224 62.3717 167.801 61.895C169.414 61.4183 170.698 60.7033 171.651 59.75C172.604 58.7967 173.081 57.605 173.081 56.175C173.081 54.4517 172.366 53.1683 170.936 52.325C169.543 51.445 167.636 51.005 165.216 51.005H156.251V45.395H164.666C166.829 45.395 168.498 44.955 169.671 44.075C170.881 43.195 171.486 42.0033 171.486 40.5C171.486 39.2533 171.083 38.2267 170.276 37.42C169.506 36.6133 168.443 36.0083 167.086 35.605C165.766 35.2017 164.263 35.0183 162.576 35.055C160.926 35.055 159.203 35.3117 157.406 35.825C155.609 36.3017 153.904 37.0167 152.291 37.97L150.036 32.195C152.456 30.9117 154.986 30.0133 157.626 29.5C160.303 28.9867 162.888 28.84 165.381 29.06C167.874 29.28 170.111 29.8483 172.091 30.765C174.108 31.6817 175.721 32.8917 176.931 34.395C178.141 35.8617 178.746 37.6033 178.746 39.62C178.746 41.4533 178.251 43.085 177.261 44.515C176.308 45.9083 174.988 46.99 173.301 47.76C171.614 48.53 169.653 48.915 167.416 48.915L167.691 47.155C170.221 47.155 172.421 47.595 174.291 48.475C176.198 49.3183 177.664 50.4917 178.691 51.995C179.754 53.4983 180.286 55.24 180.286 57.22C180.286 59.09 179.809 60.7583 178.856 62.225C177.903 63.655 176.601 64.865 174.951 65.855C173.301 66.8083 171.413 67.5233 169.286 68C167.159 68.44 164.923 68.605 162.576 68.495C160.229 68.385 157.883 67.9817 155.536 67.285C153.226 66.5883 151.026 65.5617 148.936 64.205Z" fill="white"/>
<path d="M183.554 68L200.879 29.5H207.919L225.299 68H217.819L202.914 33.295H205.774L190.924 68H183.554ZM191.529 59.09L193.454 53.48H214.244L216.169 59.09H191.529Z" fill="white"/>
<path d="M231.258 68V29.5H248.473C252.799 29.5 256.173 30.3617 258.593 32.085C261.013 33.7717 262.223 36.21 262.223 39.4C262.223 42.5533 261.068 44.9917 258.758 46.715C256.448 48.4017 253.404 49.245 249.628 49.245L250.618 47.265C254.908 47.265 258.226 48.1267 260.573 49.85C262.919 51.5733 264.093 54.0667 264.093 57.33C264.093 60.6667 262.864 63.2883 260.408 65.195C257.951 67.065 254.321 68 249.518 68H231.258ZM238.298 62.5H249.298C251.791 62.5 253.679 62.0417 254.963 61.125C256.246 60.1717 256.888 58.7233 256.888 56.78C256.888 54.8367 256.246 53.425 254.963 52.545C253.679 51.6283 251.791 51.17 249.298 51.17H238.298V62.5ZM238.298 45.945H247.868C250.178 45.945 251.938 45.4867 253.148 44.57C254.358 43.6167 254.963 42.26 254.963 40.5C254.963 38.6667 254.358 37.2917 253.148 36.375C251.938 35.4583 250.178 35 247.868 35H238.298V45.945Z" fill="white"/>
<path d="M278.838 45.505H297.978V51.39H278.838V45.505ZM279.388 62.005H301.113V68H272.238V29.5H300.343V35.495H279.388V62.005Z" fill="white"/>
<path d="M309.084 68V29.5H324.924C328.334 29.5 331.249 30.05 333.669 31.15C336.125 32.25 338.014 33.8267 339.334 35.88C340.654 37.9333 341.314 40.3717 341.314 43.195C341.314 46.0183 340.654 48.4567 339.334 50.51C338.014 52.5633 336.125 54.14 333.669 55.24C331.249 56.34 328.334 56.89 324.924 56.89H313.044L316.234 53.535V68H309.084ZM316.234 54.305L313.044 50.84H324.594C327.747 50.84 330.112 50.18 331.689 48.86C333.302 47.5033 334.109 45.615 334.109 43.195C334.109 40.7383 333.302 38.85 331.689 37.53C330.112 36.21 327.747 35.55 324.594 35.55H313.044L316.234 32.03V54.305Z" fill="white"/>
<path d="M370.958 61.95L369.363 63.71V29.5H376.403V63.71L374.698 61.95H392.243L390.538 63.71V29.5H397.578V68H348.133V29.5H355.173V63.71L353.523 61.95H370.958Z" fill="white"/>
<path d="M414.995 45.505H434.135V51.39H414.995V45.505ZM415.545 62.005H437.27V68H408.395V29.5H436.5V35.495H415.545V62.005Z" fill="white"/>
<path d="M472.301 29.5H479.451V68H472.301V29.5ZM452.391 68H445.241V29.5H452.391V68ZM472.851 51.5H451.786V45.395H472.851V51.5Z" fill="white"/>
<path d="M508.126 68.55C505.119 68.55 502.351 68.055 499.821 67.065C497.291 66.075 495.091 64.7 493.221 62.94C491.351 61.1433 489.902 59.0533 488.876 56.67C487.849 54.25 487.336 51.61 487.336 48.75C487.336 45.89 487.849 43.2683 488.876 40.885C489.902 38.465 491.351 36.375 493.221 34.615C495.091 32.8183 497.291 31.425 499.821 30.435C502.351 29.445 505.101 28.95 508.071 28.95C511.077 28.95 513.827 29.445 516.321 30.435C518.851 31.425 521.051 32.8183 522.921 34.615C524.791 36.375 526.239 38.465 527.266 40.885C528.292 43.2683 528.806 45.89 528.806 48.75C528.806 51.61 528.292 54.25 527.266 56.67C526.239 59.09 524.791 61.18 522.921 62.94C521.051 64.7 518.851 66.075 516.321 67.065C513.827 68.055 511.096 68.55 508.126 68.55ZM508.071 62.28C510.014 62.28 511.811 61.95 513.461 61.29C515.111 60.63 516.541 59.695 517.751 58.485C518.961 57.2383 519.896 55.8083 520.556 54.195C521.252 52.545 521.601 50.73 521.601 48.75C521.601 46.77 521.252 44.9733 520.556 43.36C519.896 41.71 518.961 40.28 517.751 39.07C516.541 37.8233 515.111 36.87 513.461 36.21C511.811 35.55 510.014 35.22 508.071 35.22C506.127 35.22 504.331 35.55 502.681 36.21C501.067 36.87 499.637 37.8233 498.391 39.07C497.181 40.28 496.227 41.71 495.531 43.36C494.871 44.9733 494.541 46.77 494.541 48.75C494.541 50.6933 494.871 52.49 495.531 54.14C496.227 55.79 497.181 57.2383 498.391 58.485C499.601 59.695 501.031 60.63 502.681 61.29C504.331 61.95 506.127 62.28 508.071 62.28Z" fill="white"/>
<path d="M536.271 55.24L534.951 29.5H543.091L541.716 55.24H536.271ZM539.021 68.385C537.737 68.385 536.674 67.9633 535.831 67.12C534.987 66.2767 534.566 65.2683 534.566 64.095C534.566 62.9217 534.987 61.9317 535.831 61.125C536.674 60.2817 537.737 59.86 539.021 59.86C540.304 59.86 541.349 60.2817 542.156 61.125C542.962 61.9317 543.366 62.9217 543.366 64.095C543.366 65.2683 542.962 66.2767 542.156 67.12C541.349 67.9633 540.304 68.385 539.021 68.385Z" fill="white"/>
</g>
<defs>
<filter id="filter0_d_413_309" x="18.4453" y="22.95" width="534.92" height="59.863" filterUnits="userSpaceOnUse" color-interpolation-filters="sRGB">
<feFlood flood-opacity="0" result="BackgroundImageFix"/>
<feColorMatrix in="SourceAlpha" type="matrix" values="0 0 0 0 0 0 0 0 0 0 0 0 0 0 0 0 0 0 127 0" result="hardAlpha"/>
<feOffset dy="4"/>
<feGaussianBlur stdDeviation="5"/>
<feComposite in2="hardAlpha" operator="out"/>
<feColorMatrix type="matrix" values="0 0 0 0 0 0 0 0 0 0 0 0 0 0 0 0 0 0 0.2 0"/>
<feBlend mode="normal" in2="BackgroundImageFix" result="effect1_dropShadow_413_309"/>
<feBlend mode="normal" in="SourceGraphic" in2="effect1_dropShadow_413_309" result="shape"/>
</filter>
<radialGradient id="paint0_radial_413_309" cx="0" cy="0" r="1" gradientUnits="userSpaceOnUse" gradientTransform="translate(26.1499 -0.000479335) rotate(12.8008) scale(679.233 17817.5)">
<stop stop-color="white" stop-opacity="0.65"/>
<stop offset="0.412515" stop-color="white" stop-opacity="0.559375"/>
<stop offset="0.440725" stop-color="white" stop-opacity="0.559375"/>
<stop offset="1" stop-color="white" stop-opacity="0"/>
</radialGradient>
</defs>
</svg>
