<svg width="322" height="80" viewBox="0 0 322 80" fill="none" xmlns="http://www.w3.org/2000/svg">
<path d="M15 36C15 22.1929 26.1929 11 40 11H282C295.807 11 307 22.1929 307 36V36C307 49.8071 295.807 61 282 61H40C26.1929 61 15 49.8071 15 36V36Z" fill="#FFE687"/>
<g filter="url(#filter0_d_435_571)">
<path fill-rule="evenodd" clip-rule="evenodd" d="M282 15H40C28.402 15 19 24.402 19 36C19 47.598 28.402 57 40 57H282C293.598 57 303 47.598 303 36C303 24.402 293.598 15 282 15ZM40 11C26.1929 11 15 22.1929 15 36C15 49.8071 26.1929 61 40 61H282C295.807 61 307 49.8071 307 36C307 22.1929 295.807 11 282 11H40Z" fill="url(#paint0_radial_435_571)"/>
</g>
<defs>
<filter id="filter0_d_435_571" x="0" y="0" width="322" height="80" filterUnits="userSpaceOnUse" color-interpolation-filters="sRGB">
<feFlood flood-opacity="0" result="BackgroundImageFix"/>
<feColorMatrix in="SourceAlpha" type="matrix" values="0 0 0 0 0 0 0 0 0 0 0 0 0 0 0 0 0 0 127 0" result="hardAlpha"/>
<feOffset dy="4"/>
<feGaussianBlur stdDeviation="7.5"/>
<feComposite in2="hardAlpha" operator="out"/>
<feColorMatrix type="matrix" values="0 0 0 0 0 0 0 0 0 0 0 0 0 0 0 0 0 0 0.15 0"/>
<feBlend mode="normal" in2="BackgroundImageFix" result="effect1_dropShadow_435_571"/>
<feBlend mode="normal" in="SourceGraphic" in2="effect1_dropShadow_435_571" result="shape"/>
</filter>
<radialGradient id="paint0_radial_435_571" cx="0" cy="0" r="1" gradientUnits="userSpaceOnUse" gradientTransform="translate(138.5 123.5) rotate(-106.334) scale(202.68 1183.65)">
<stop stop-color="#F9C503"/>
<stop offset="1" stop-color="white"/>
</radialGradient>
</defs>
</svg>
