<svg width="50" height="50" viewBox="0 0 50 50" fill="none" xmlns="http://www.w3.org/2000/svg">
<path d="M0 10C0 4.47715 4.47715 0 10 0H40C45.5228 0 50 4.47715 50 10V40C50 45.5228 45.5228 50 40 50H10C4.47715 50 0 45.5228 0 40V10Z" fill="#B597C1"/>
<path fill-rule="evenodd" clip-rule="evenodd" d="M40 3H10C6.13401 3 3 6.13401 3 10V40C3 43.866 6.13401 47 10 47H40C43.866 47 47 43.866 47 40V10C47 6.13401 43.866 3 40 3ZM10 0C4.47715 0 0 4.47715 0 10V40C0 45.5228 4.47715 50 10 50H40C45.5228 50 50 45.5228 50 40V10C50 4.47715 45.5228 0 40 0H10Z" fill="url(#paint0_radial_435_566)"/>
<defs>
<radialGradient id="paint0_radial_435_566" cx="0" cy="0" r="1" gradientUnits="userSpaceOnUse" gradientTransform="translate(-53.5 -46.5) rotate(46.2189) scale(149.587)">
<stop stop-color="white"/>
<stop offset="1" stop-color="white" stop-opacity="0"/>
</radialGradient>
</defs>
</svg>
